<?xml version="1.0" encoding="utf-8"?>
<!-- Generator: Adobe Illustrator 25.3.1, SVG Export Plug-In . SVG Version: 6.00 Build 0)  -->
<svg version="1.1" id="Calque_1" xmlns="http://www.w3.org/2000/svg" xmlns:xlink="http://www.w3.org/1999/xlink" x="0px" y="0px"
	 viewBox="0 0 595.3 841.9" style="enable-background:new 0 0 595.3 841.9;" xml:space="preserve">
<style type="text/css">
	.st0{fill:#313233;}
	.st1{fill:none;stroke:#D8D8D8;}
	.st2{fill:none;stroke:#F6E81D;stroke-width:3;stroke-miterlimit:10;}
</style>
<g transform="matrix(1, 0, 0, 1, 0, 0)">
	<rect id="Rectangle_196-2" x="11.7" y="59.8" class="st0" width="547" height="300.5"/>
</g>
<line id="Ligne_37" class="st1" x1="12.2" y1="135.8" x2="560" y2="135.8"/>
<line id="Ligne_38" class="st1" x1="12.5" y1="97.8" x2="560.3" y2="97.8"/>
<line id="Ligne_40" class="st1" x1="10.9" y1="173.8" x2="558.8" y2="173.8"/>
<line id="Ligne_41" class="st1" x1="12.2" y1="211.8" x2="560" y2="211.8"/>
<line id="Ligne_42" class="st1" x1="12.5" y1="249.8" x2="560.3" y2="249.8"/>
<line id="Ligne_43" class="st1" x1="12.5" y1="287.8" x2="560.3" y2="287.8"/>
<line id="Ligne_44" class="st1" x1="9.3" y1="325.8" x2="557.2" y2="325.8"/>
<polyline class="st2" points="10.9,195.8 48.6,190.4 90.2,218 131,197.6 181.7,231.3 222.9,198 260.7,221.1 306.1,203.3 
	377.2,199.8 418,180.2 466.4,199.8 496.7,185.6 520.9,187.3 558.8,162.4 "/>
</svg>
