<?xml version="1.0" encoding="utf-8"?>
<!-- Generator: Adobe Illustrator 25.4.1, SVG Export Plug-In . SVG Version: 6.00 Build 0)  -->
<svg version="1.1" id="Calque_1" xmlns="http://www.w3.org/2000/svg" xmlns:xlink="http://www.w3.org/1999/xlink" x="0px" y="0px"
	 viewBox="0 0 17 17" style="enable-background:new 0 0 17 17;" xml:space="preserve">
<style type="text/css">
	.st0{fill:none;}
	.st1{fill:#FCBF0B;}
</style>
<g id="Polygone_1" transform="translate(18 30) rotate(180)">
	<path class="st0" d="M5.96,16.48c0.44-1.96,2.38-3.18,4.34-2.74c1.37,0.31,2.44,1.38,2.74,2.74l0,0c0.04,0.17,0.09,0.34,0.15,0.51
		l2.87,7.43c0.72,1.87-0.21,3.97-2.08,4.69c-0.67,0.26-1.4,0.31-2.09,0.16l-1.6-0.36c-0.52-0.12-1.06-0.12-1.57,0l-1.6,0.36
		c-1.96,0.43-3.9-0.8-4.33-2.76c-0.16-0.7-0.1-1.43,0.16-2.09l2.86-7.43C5.86,16.82,5.92,16.65,5.96,16.48L5.96,16.48z"/>
	<path class="st1" d="M9.5,14.64c-0.97,0-2.22,0.54-2.57,2.05c-0.05,0.22-0.12,0.44-0.2,0.65l-2.87,7.43
		c-0.32,0.82-0.22,1.71,0.28,2.43c0.5,0.72,1.3,1.15,2.15,1.15c0.2,0,0.39-0.02,0.59-0.07l1.6-0.36c0.66-0.15,1.35-0.15,2.01,0
		l1.6,0.36c0.2,0.04,0.4,0.07,0.59,0.07c0.85,0,1.66-0.43,2.15-1.15c0.49-0.72,0.6-1.61,0.28-2.43l-2.87-7.43
		c-0.08-0.21-0.15-0.43-0.2-0.65C11.72,15.18,10.47,14.64,9.5,14.64 M9.5,13.64c1.56,0,3.12,0.94,3.54,2.83
		c0.04,0.17,0.09,0.34,0.15,0.51l2.87,7.43c1.04,2.7-1.35,5.48-4.17,4.85l-1.6-0.36c-0.52-0.12-1.06-0.12-1.57,0l-1.6,0.36
		c-2.83,0.63-5.22-2.15-4.17-4.85l2.87-7.43c0.06-0.17,0.12-0.34,0.15-0.51C6.38,14.59,7.94,13.64,9.5,13.64z"/>
</g>
</svg>
