<svg id="Calque_1" data-name="Calque 1" xmlns="http://www.w3.org/2000/svg" viewBox="0 0 24 24"><defs><style>.cls-1{fill:#013d16;}</style></defs><path class="cls-1" d="M21,5a11.8,11.8,0,0,0-3.5-.5A9.3,9.3,0,0,0,12,6,9.3,9.3,0,0,0,6.5,4.5,9.3,9.3,0,0,0,1,6V20.65a.54.54,0,0,0,.5.5c.1,0,.15,0,.25,0A12.21,12.21,0,0,1,6.5,20,9.3,9.3,0,0,1,12,21.5,12,12,0,0,1,17.5,20a10.18,10.18,0,0,1,4.75,1.05.45.45,0,0,0,.25.05.54.54,0,0,0,.5-.5V6A6.82,6.82,0,0,0,21,5Zm0,13.5a11.62,11.62,0,0,0-3.5-.5A12,12,0,0,0,12,19.5V8a12,12,0,0,1,5.5-1.5A11.62,11.62,0,0,1,21,7Z"/><path class="cls-1" d="M17.5,10.5a11.69,11.69,0,0,1,2.5.26V9.24A13.5,13.5,0,0,0,17.5,9a11.51,11.51,0,0,0-4.5.83v1.66A9.28,9.28,0,0,1,17.5,10.5Z"/><path class="cls-1" d="M13,12.49v1.66a9.28,9.28,0,0,1,4.5-1,11.69,11.69,0,0,1,2.5.26V11.9a13.5,13.5,0,0,0-2.5-.24A11.69,11.69,0,0,0,13,12.49Z"/><path class="cls-1" d="M17.5,14.33a11.51,11.51,0,0,0-4.5.83v1.66a9.28,9.28,0,0,1,4.5-1,11.69,11.69,0,0,1,2.5.26V14.57A12.7,12.7,0,0,0,17.5,14.33Z"/></svg>