<?xml version="1.0" encoding="utf-8"?>
<!-- Generator: Adobe Illustrator 25.3.1, SVG Export Plug-In . SVG Version: 6.00 Build 0)  -->
<svg version="1.1" id="Calque_1" xmlns="http://www.w3.org/2000/svg" xmlns:xlink="http://www.w3.org/1999/xlink" x="0px" y="0px"
	 viewBox="0 0 24 24" style="enable-background:new 0 0 24 24;" xml:space="preserve">
<style type="text/css">
	.st0{fill:#2C55A7;stroke:#2C55A7;stroke-linecap:round;stroke-linejoin:round;stroke-miterlimit:10;}
</style>
<path class="st0" d="M23.3,12c0,6.3-5.1,11.3-11.3,11.3S0.7,18.3,0.7,12h1.9c0,5.2,4.2,9.4,9.4,9.4s9.4-4.2,9.4-9.4S17.2,2.6,12,2.6
	c-2.6,0-5,1.1-6.7,2.8l1.9,1.9L0.7,8.6L1.9,2L4,4C6,2,8.9,0.7,12,0.7C18.3,0.7,23.3,5.7,23.3,12z M11.1,6.3v7.6h6.6V12h-4.7V6.3
	H11.1z"/>
</svg>
