<?xml version="1.0" encoding="utf-8"?>
<!-- Generator: Adobe Illustrator 26.0.3, SVG Export Plug-In . SVG Version: 6.00 Build 0)  -->
<svg version="1.1" id="Calque_1" xmlns="http://www.w3.org/2000/svg" xmlns:xlink="http://www.w3.org/1999/xlink" x="0px" y="0px"
	 viewBox="0 0 24 24" style="enable-background:new 0 0 24 24;" xml:space="preserve">
<style type="text/css">
	.st0{fill:#013D16;}
</style>
<path class="st0" d="M19.4,10c-0.7-3.5-3.7-6-7.4-6C9.1,4,6.6,5.6,5.3,8C2.3,8.4,0,10.9,0,14c0,3.3,2.7,6,6,6h13c2.8,0,5-2.2,5-5
	C24,12.4,22,10.2,19.4,10z M19,18H6c-2.2,0-4-1.8-4-4c0-2.1,1.5-3.8,3.6-4l1.1-0.1L7.1,9C8.1,7.1,9.9,6,12,6c2.6,0,4.9,1.9,5.4,4.4
	l0.3,1.5l1.5,0.1c1.6,0.1,2.8,1.4,2.8,3C22,16.6,20.6,18,19,18z M8,13h2.6v3h2.9v-3H16l-4-4L8,13z"/>
</svg>
