<?xml version="1.0" encoding="utf-8"?>
<!-- Generator: Adobe Illustrator 25.3.1, SVG Export Plug-In . SVG Version: 6.00 Build 0)  -->
<svg version="1.1" id="Calque_1" xmlns="http://www.w3.org/2000/svg" xmlns:xlink="http://www.w3.org/1999/xlink" x="0px" y="0px"
	 viewBox="0 0 24 24" style="enable-background:new 0 0 24 24;" xml:space="preserve">
<style type="text/css">
	.st0{fill-rule:evenodd;clip-rule:evenodd;fill:#013D16;}
</style>
<path class="st0" d="M16,7h8v17H0V0h16V7z M7,19H5v4h2V19z M11,19H9v4h2V19z M18,19h-2v4h2V19z M22,9h-6v8h4v5h2V9z M14,2H2v20h1v-5
	h10v5h1V2z M6,15H4v-2h2V15z M9,15H7v-2h2V15z M12,15h-2v-2h2V15z M20,13v2h-2v-2H20z M6,12H4v-2h2V12z M9,12H7v-2h2V12z M12,12h-2
	v-2h2V12z M18,10h2v2h-2V10z M6,9H4V7h2V9z M9,9H7V7h2V9z M12,9h-2V7h2V9z M6,6H4V4h2V6z M9,6H7V4h2V6z M12,6h-2V4h2V6z"/>
</svg>
