<?xml version="1.0" encoding="utf-8"?>
<!-- Generator: Adobe Illustrator 26.0.3, SVG Export Plug-In . SVG Version: 6.00 Build 0)  -->
<svg version="1.1" id="Calque_1" xmlns="http://www.w3.org/2000/svg" xmlns:xlink="http://www.w3.org/1999/xlink" x="0px" y="0px"
	 viewBox="0 0 24 24" style="enable-background:new 0 0 24 24;" xml:space="preserve">
<style type="text/css">
	.st0{fill:#013D16;}
</style>
<path class="st0" d="M21,7.3V5c0-1.1-0.9-2-2-2H5C3.9,3,3,3.9,3,5v14c0,1.1,0.9,2,2,2h14c1.1,0,2-0.9,2-2v-2.3c0.6-0.4,1-1,1-1.7V9
	C22,8.3,21.6,7.6,21,7.3z M20,9v6h-7V9H20z M5,19V5h14v2h-6c-1.1,0-2,0.9-2,2v6c0,1.1,0.9,2,2,2h6v2H5z"/>
<circle class="st0" cx="16" cy="12" r="1.5"/>
</svg>
