<svg xmlns="http://www.w3.org/2000/svg" width="127.216" height="100.372" viewBox="0 0 127.216 100.372">
  <g id="Composant_35_3" data-name="Composant 35 – 3" transform="translate(2.5 2.5)">
    <path id="Tracé_1466" data-name="Tracé 1466" d="M97.273,778.458c14.8,0,18.635,14.562,37.816,14.562s26.854-14.562,39.459-14.562c22.471,0,18.086,14.562,44.941,14.562" transform="translate(-97.273 -697.648)" fill="none" stroke="#161615" stroke-linecap="round" stroke-linejoin="round" stroke-width="5"/>
    <path id="Tracé_1467" data-name="Tracé 1467" d="M107.96,809.939l-6.411-26.056h25.774l9.2-17.84L128.55,758.8l-.614-9.478h85.649v10.035l-11.617,5.018v48.94" transform="translate(-93.503 -723.338)" fill="none" stroke="#161615" stroke-linecap="round" stroke-linejoin="round" stroke-width="5"/>
    <line id="Ligne_350" data-name="Ligne 350" x2="67.202" transform="translate(41.713 57.356)" fill="none" stroke="#161615" stroke-linecap="round" stroke-linejoin="round" stroke-width="5"/>
    <line id="Ligne_351" data-name="Ligne 351" x2="44.043" transform="translate(52.893 47.784)" fill="none" stroke="#161615" stroke-linecap="round" stroke-linejoin="round" stroke-width="5"/>
    <line id="Ligne_352" data-name="Ligne 352" x2="40.071" transform="translate(57.048 38.211)" fill="none" stroke="#161615" stroke-linecap="round" stroke-linejoin="round" stroke-width="5"/>
    <line id="Ligne_353" data-name="Ligne 353" x2="44.043" transform="translate(52.893 28.639)" fill="none" stroke="#161615" stroke-linecap="round" stroke-linejoin="round" stroke-width="5"/>
    <circle id="Ellipse_191" data-name="Ellipse 191" cx="2.718" cy="2.718" r="2.718" transform="translate(24.824 66.408)" fill="none" stroke="#000" stroke-width="5"/>
    <path id="Tracé_1468" data-name="Tracé 1468" d="M135.771,757.742l7.805-17.98h8.363l1.394,17.98" transform="translate(-55.467 -739.762)" fill="none" stroke="#161615" stroke-linecap="round" stroke-linejoin="round" stroke-width="5"/>
  </g>
</svg>
