<?xml version="1.0" encoding="utf-8"?>
<!-- Generator: Adobe Illustrator 25.3.1, SVG Export Plug-In . SVG Version: 6.00 Build 0)  -->
<svg version="1.1" id="Calque_1" xmlns="http://www.w3.org/2000/svg" xmlns:xlink="http://www.w3.org/1999/xlink" x="0px" y="0px"
	 viewBox="0 0 50 50" style="enable-background:new 0 0 50 50;" xml:space="preserve">
<style type="text/css">
	.st0{fill:none;}
</style>
<g>
	<path d="M45.83,16.43l-6.34-6.34h-1.94l-3.08,2.96c-1.56-0.87-3.25-1.53-5.03-1.95V7.31h2.22l1.21-1.45V2.03L31.53,0.5h-13.2
		l-1.25,1.48v4.1l1.26,1.23h2.11v3.83c-1.8,0.43-3.5,1.12-5.06,2.01l-3.08-3.08h-1.8l-6.34,6.34v1.94l3.26,3.39
		c-1.19,2.52-1.86,5.33-1.86,8.3c0,10.73,8.73,19.45,19.45,19.45s19.45-8.73,19.45-19.45c0-3.05-0.71-5.94-1.96-8.51l3.32-3.31
		V16.43z M19.23,5.16V2.77l0.1-0.12h11.22l0.16,0.18v2.24l-0.07,0.08H19.23z M27.27,7.31v3.41c-0.74-0.09-1.49-0.13-2.25-0.13
		c-0.82,0-1.62,0.05-2.42,0.15V7.31H27.27z M6.33,17.49v-0.18l5.07-5.07h0.01l2.12,2.13c-2,1.46-3.7,3.3-5.02,5.41L6.33,17.49z
		 M25.02,47.34c-9.54,0-17.29-7.76-17.29-17.29c0-9.54,7.76-17.29,17.29-17.29c9.54,0,17.29,7.76,17.29,17.29
		C42.32,39.58,34.56,47.34,25.02,47.34z M43.67,17.33l-2.26,2.25c-1.34-2.09-3.06-3.9-5.07-5.35l2.07-1.99h0.18l5.07,5.07V17.33z"/>
	<path class="st0" d="M14.67,30.05c0,5.71,4.64,10.35,10.35,10.35c5.71,0,10.35-4.64,10.35-10.35c0-0.53-0.04-1.04-0.12-1.55H24.97
		v-8.8C19.28,19.73,14.67,24.36,14.67,30.05z"/>
	<path d="M40.46,28.89l-4.07-3.96l-3.97,3.97l1.53,1.53l1.37-1.37c0.02,0.24,0.04,0.49,0.04,0.73c0,0.03,0,0.06,0,0.09l0.01,0
		c0,0.05,0,0.11,0,0.16c0,5.71-4.64,10.35-10.35,10.35c-5.71,0-10.35-4.64-10.35-10.35c0-5.69,4.62-10.32,10.3-10.35v-2.16
		c-6.87,0.03-12.46,5.63-12.46,12.51c0,6.9,5.61,12.51,12.51,12.51c6.9,0,12.51-5.61,12.51-12.51c0-0.08,0-0.17,0-0.25
		c0-0.24,0-0.5-0.02-0.77l1.45,1.41L40.46,28.89z"/>
</g>
</svg>
