<svg xmlns="http://www.w3.org/2000/svg" width="97.744" height="100.503" viewBox="0 0 97.744 100.503">
  <g id="Composant_37_1" data-name="Composant 37 – 1" transform="translate(2.528 2.631)">
    <path id="Tracé_1472" data-name="Tracé 1472" d="M389.329,633.417a21.925,21.925,0,0,0-20.067-20.855c-7.727-.552-18.688,5.294-22.389,10.614a8.634,8.634,0,0,1-6.245,3.659,26.79,26.79,0,0,0-12.215,4.65,20.172,20.172,0,0,0-7.6,8.963c-6.579,15.769,4.83,30.883,19.768,30.883a21.482,21.482,0,0,0,9.032-1.981,14.307,14.307,0,0,1,7.455-1.219c.687.068,1.383.1,2.089.1a21.645,21.645,0,0,0,19.872-13.073,17.014,17.014,0,0,1,3.753-5.47A21.573,21.573,0,0,0,389.329,633.417Z" transform="translate(-296.628 -575.958)" fill="none" stroke="#040405" stroke-linecap="round" stroke-linejoin="round" stroke-width="5" fill-rule="evenodd"/>
    <path id="Tracé_1473" data-name="Tracé 1473" d="M311.767,611.821A12.08,12.08,0,0,0,319.058,626c3.991,1.514,10.7.162,13.5-2.06a4.756,4.756,0,0,1,3.875-.943,14.767,14.767,0,0,0,7.183-.523,11.1,11.1,0,0,0,5.429-3.528,12.019,12.019,0,0,0-5.547-19.426,11.824,11.824,0,0,0-5.08-.384,7.876,7.876,0,0,1-4.128-.536q-.527-.217-1.086-.384a11.926,11.926,0,0,0-12.556,3.755,9.419,9.419,0,0,1-2.847,2.293A11.893,11.893,0,0,0,311.767,611.821Z" transform="translate(-311.389 -597.714)" fill="none" stroke="#040405" stroke-linecap="round" stroke-linejoin="round" stroke-width="5" fill-rule="evenodd"/>
  </g>
</svg>
