<?xml version="1.0" encoding="utf-8"?>
<!-- Generator: Adobe Illustrator 25.3.1, SVG Export Plug-In . SVG Version: 6.00 Build 0)  -->
<svg version="1.1" id="Calque_1" xmlns="http://www.w3.org/2000/svg" xmlns:xlink="http://www.w3.org/1999/xlink" x="0px" y="0px"
	 viewBox="0 0 50 50" style="enable-background:new 0 0 50 50;" xml:space="preserve">
<style type="text/css">
	.st0{fill:#2C55A7;}
	.st1{fill:#EFD423;}
	.st2{fill:#59E170;}
</style>
<g>
	<path class="st0" d="M0.6,32.2c0,0-0.9,2.7-0.9,6s0.9,5.5,0.9,5.5C0.6,43.9,0.8,44,1,44l5.1-0.4c0,0,0.1,0,0.1,0l17.6,3.8
		c0.1,0,0.1,0,0.2,0l5.1-1.6c0,0,0.1,0,0.1,0L46,35.3c0,0,0,0,0.1-0.1c0.3-0.3,2.2-2.4,1-4c-1-1.4-2.9-0.7-3.5-0.5
		c-0.1,0.1-0.3,0-0.4,0c-0.4-0.3-1.7-1.1-3.4-0.3c-0.1,0.1-0.3,0-0.4-0.1c-0.3-0.2-0.9-0.6-1.8,0.2c-0.9,0.7-1.5,1.3-1.9,1.7
		c-0.2,0.2-0.5,0.1-0.6-0.2c-0.1-0.2-0.2-0.3-0.6-0.3c-0.9,0-1.7,1.5-3.3,1.9c-0.1,0-0.1,0-0.2,0l-10.4-1.9c0,0,0,0-0.1,0l-6-2
		c-0.1,0-0.2,0-0.2,0l-8,2.7c-0.1,0-0.1,0-0.2,0L1,31.8C0.8,31.8,0.6,32,0.6,32.2z"/>
	<path d="M30.9,39.9c-0.5,0-1-0.1-1.5-0.2c-0.8-0.2-1.9-0.4-3-0.6c-2.3-0.5-4.8-1-6-1.1c-0.4,0-0.6-0.3-0.6-0.7
		c0-0.4,0.3-0.6,0.7-0.6c1.2,0.1,3.8,0.6,6.2,1.1c1.1,0.2,2.2,0.5,3,0.6c1.2,0.2,2.1,0.2,2.6-0.2c0.3-0.2,0.6-0.7,0.7-1.4
		c0.2-1.6-0.6-2.3-1.5-2.5c-0.3-0.1-0.5-0.1-0.8-0.2c-0.8-0.2-2.1-0.6-6-1.1c-2.9-0.4-4.6-1.1-6-1.7c-1.1-0.5-2-0.8-3.3-0.9
		c-2.7-0.3-8,2.5-8.1,2.5c-0.1,0.1-0.2,0.1-0.4,0.1l-5.8-0.5c-0.4,0-0.6-0.3-0.6-0.7c0-0.4,0.3-0.6,0.7-0.6l5.7,0.4
		c1-0.5,5.8-2.9,8.7-2.6c1.4,0.1,2.4,0.6,3.6,1c1.4,0.6,3,1.2,5.7,1.6c3.9,0.6,5.2,0.9,6.1,1.1c0.3,0.1,0.5,0.1,0.7,0.2
		c1.4,0.3,2.8,1.7,2.5,4c-0.2,1-0.5,1.8-1.2,2.2C32.4,39.8,31.8,39.9,30.9,39.9z"/>
	<path d="M24.4,47.9c-4.1,0-17.1-3.2-18.3-3.5H1.1c-0.4,0-0.6-0.3-0.6-0.6s0.3-0.6,0.6-0.6h5c0.1,0,0.1,0,0.2,0
		c0.1,0,14.9,3.7,18.4,3.4c3.3-0.2,17.6-9.2,20.4-11.4c1.1-0.8,1.7-1.8,1.7-2.6c0-0.4-0.1-0.7-0.3-0.8c-0.3-0.2-0.3-0.6-0.1-0.9
		c0.2-0.3,0.6-0.3,0.9-0.1c0.5,0.4,0.9,1.1,0.9,1.9c0,0.7-0.3,2.2-2.2,3.7c-2,1.5-17.2,11.4-21.1,11.7
		C24.6,47.9,24.5,47.9,24.4,47.9z"/>
	<path d="M36.3,35.6c-0.2,0-0.5-0.1-0.6-0.4c-0.2-0.3,0-0.7,0.3-0.9l5-2.5c0.3-0.2,0.7,0,0.9,0.3c0.2,0.3,0,0.7-0.3,0.9l-5,2.5
		C36.5,35.5,36.4,35.6,36.3,35.6z"/>
	<g>
		<path class="st1" d="M22.6,11.4c1.6,1.4,2.6,3.4,2.6,5.7c0,2.3-1,4.4-2.7,5.8c2.1-0.9,3.6-3,3.7-5.4c0-0.1,0-0.3,0-0.4
			c0-0.1,0-0.2,0-0.3C26.1,14.4,24.6,12.4,22.6,11.4z"/>
		<path class="st1" d="M17.8,10.9h-0.5c-3.3,0.1-6,2.9-6,6.3c0,3.3,2.5,5.9,5.7,6.2l1,0c3.2-0.2,5.8-2.9,5.8-6.3
			C23.9,13.7,21.2,11,17.8,10.9z"/>
		<path d="M27.5,16.7c-0.1-4-3.5-7.2-7.5-7.2h-2.1c-0.1,0-0.2,0-0.2,0s-0.2,0-0.2,0h0c0,0,0,0,0,0c-4,0.2-7.3,3.5-7.3,7.6
			c0,4,3.1,7.2,6.9,7.5c0,0,0,0,0,0l0,0c0.2,0,0.4,0,0.6,0c0.2,0,0.3,0,0.5,0l2,0c4,0,7.3-3.2,7.4-7.1c0-0.1,0-0.3,0-0.4
			C27.5,17,27.5,16.9,27.5,16.7z M18,23.4l-1,0c-3.2-0.3-5.7-3-5.7-6.2c0-3.4,2.7-6.1,6-6.3h0.5c3.3,0.1,6,2.9,6,6.3
			C23.9,20.4,21.3,23.1,18,23.4z M26.2,17.5c-0.1,2.4-1.6,4.5-3.7,5.4c1.6-1.4,2.7-3.5,2.7-5.8c0-2.3-1-4.3-2.6-5.7
			c2.1,1,3.5,3,3.6,5.4c0,0.1,0,0.2,0,0.3C26.2,17.3,26.2,17.4,26.2,17.5z"/>
	</g>
	<path class="st2" d="M32.9,13.9c-0.5-2.6,0.7-5.3,4.6-6.3s4.6-2.2,4.9-3.9c0.4-1.7,3.6-2.6,6.1-0.4s0.4,14-8.8,14.3
		C35.6,18,33.3,16.6,32.9,13.9z"/>
	<path d="M30.1,19.1c-0.2,0-0.3-0.1-0.5-0.2c-0.2-0.2-0.3-0.6,0-0.9c0,0,0.1-0.1,0.1-0.2c0.5-0.8,1.8-3.1,4.6-3.7
		c2.8-0.7,7.7-3.1,9.2-6.2c0.2-0.3,0.5-0.5,0.9-0.3c0.3,0.2,0.5,0.5,0.3,0.9c-1.7,3.5-6.9,6.1-10.1,6.9c-2.2,0.5-3.3,2.3-3.7,3.1
		c-0.1,0.2-0.2,0.3-0.3,0.4C30.4,19,30.3,19.1,30.1,19.1z M29.6,17.9C29.6,17.9,29.6,18,29.6,17.9C29.6,18,29.6,18,29.6,17.9z"/>
	<path d="M18.2,21.2C18.2,21.2,18.2,21.2,18.2,21.2c-0.4,0-0.7-0.4-0.6-0.7c0.1-0.9,0-1-0.6-1.5c-0.4-0.3-0.9-0.8-1.5-1.6
		c-0.4-0.6-0.6-1.3-0.4-2c0.4-1.5,2.3-2.3,2.5-2.4c0.3-0.1,0.7,0,0.9,0.3c0.1,0.3,0,0.7-0.3,0.9c-0.4,0.2-1.6,0.8-1.8,1.6
		c0,0.2-0.1,0.5,0.2,0.9c0.5,0.7,0.9,1,1.3,1.3c0.8,0.6,1.2,1.1,1,2.6C18.8,21,18.5,21.2,18.2,21.2z"/>
</g>
</svg>
