<?xml version="1.0" encoding="utf-8"?>
<!-- Generator: Adobe Illustrator 25.3.1, SVG Export Plug-In . SVG Version: 6.00 Build 0)  -->
<svg version="1.1" id="Calque_1" xmlns="http://www.w3.org/2000/svg" xmlns:xlink="http://www.w3.org/1999/xlink" x="0px" y="0px"
	 viewBox="0 0 90.7 78.2" style="enable-background:new 0 0 90.7 78.2;" xml:space="preserve">
<style type="text/css">
	.st0{fill:#6FAE53;}
	.st1{fill:none;stroke:#040505;stroke-width:2;stroke-linecap:round;stroke-linejoin:round;}
</style>
<g id="Groupe_120" transform="translate(-297.452 -668.649)">
	<path id="Tracé_841" class="st0" d="M316.3,728.2c-3.1,0.2-6.3-0.6-9-2.1c-4.6-2.7-6.1-11.7-4-15s5-4.4,9-5.3s5-3.2,8.2-3.8
		c1.3-0.3,9.7-1.4,11.4,7.3C333.2,716.3,334.8,727.3,316.3,728.2z"/>
	<path id="Tracé_842" class="st0" d="M339.7,725.3c-6.9-5.4-5.7-22.4,0-27.8s9.4-8,12.5-14.8s13.7-9,18.5-5.9s19.1,13.7,9,38.8
		C374.6,728.3,351.6,734.7,339.7,725.3z"/>
	<path id="Tracé_843" class="st1" d="M318.9,722.4l14.4,17.7l21.2-29.1"/>
</g>
</svg>
