<?xml version="1.0" encoding="utf-8"?>
<!-- Generator: Adobe Illustrator 25.3.1, SVG Export Plug-In . SVG Version: 6.00 Build 0)  -->
<svg version="1.1" id="Calque_1" xmlns="http://www.w3.org/2000/svg" xmlns:xlink="http://www.w3.org/1999/xlink" x="0px" y="0px"
	 viewBox="0 0 50 50" style="enable-background:new 0 0 50 50;" xml:space="preserve">
<style type="text/css">
	.st0{stroke:#FFFFFF;stroke-width:0.25;stroke-miterlimit:10;}
	.st1{stroke:#FFFFFF;stroke-width:0.25;}
</style>
<g>
	<path class="st0" d="M25.24,49.5c-0.8,0-1.55-0.36-2.05-0.99L8.31,29.85c-0.63-0.8-0.75-1.86-0.31-2.77
		c0.44-0.92,1.35-1.48,2.36-1.48h5.55V3.12c0-1.45,1.18-2.62,2.62-2.62h1.85c0.8,0,1.45,0.65,1.45,1.45S21.18,3.4,20.38,3.4h-1.56
		v22.47c0,1.45-1.18,2.62-2.62,2.62h-5.25l14.29,17.93l13.58-17.73h-4.89c-1.45,0-2.62-1.18-2.62-2.62v-4.19
		c0-0.8,0.65-1.45,1.45-1.45c0.8,0,1.45,0.65,1.45,1.45v3.91h5.18c1.01,0,1.91,0.56,2.35,1.46c0.45,0.9,0.34,1.96-0.27,2.76
		L27.33,48.47c-0.49,0.65-1.24,1.02-2.06,1.03C25.26,49.5,25.25,49.5,25.24,49.5z"/>
	<g>
		<path class="st1" d="M28.01,9.88c-2.48,0-4.11-1.26-4.11-3.85c0-2.57,1.61-3.98,4.11-3.98c2.48,0,4.09,1.41,4.09,3.98
			C32.09,8.59,30.48,9.88,28.01,9.88z M26.33,17.49c-0.13,0-0.2-0.13-0.11-0.22l11-14.78c0.11-0.13,0.28-0.22,0.46-0.22h2.15
			c0.13,0,0.19,0.13,0.11,0.22l-11,14.78c-0.11,0.13-0.28,0.22-0.46,0.22H26.33z M28.01,7.99c0.89,0,1.33-0.56,1.33-1.96
			c0-1.48-0.5-2.09-1.35-2.09s-1.33,0.61-1.33,2.09C26.66,7.38,27.11,7.99,28.01,7.99z M38.16,17.7c-2.48,0-4.09-1.41-4.09-3.98
			c0-2.57,1.61-3.85,4.09-3.85c2.48,0,4.11,1.26,4.11,3.85C42.27,16.29,40.66,17.7,38.16,17.7z M38.18,15.81
			c0.85,0,1.33-0.61,1.33-2.09c0-1.35-0.46-1.96-1.35-1.96c-0.89,0-1.33,0.57-1.33,1.96C36.83,15.2,37.33,15.81,38.18,15.81z"/>
	</g>
</g>
</svg>
