<?xml version="1.0" encoding="utf-8"?>
<!-- Generator: Adobe Illustrator 25.3.1, SVG Export Plug-In . SVG Version: 6.00 Build 0)  -->
<svg version="1.1" id="Calque_1" xmlns="http://www.w3.org/2000/svg" xmlns:xlink="http://www.w3.org/1999/xlink" x="0px" y="0px"
	 viewBox="0 0 50 50" style="enable-background:new 0 0 50 50;" xml:space="preserve">
<style type="text/css">
	.st0{fill:none;stroke:#000000;stroke-width:2;stroke-miterlimit:10;}
</style>
<ellipse class="st0" cx="25.16" cy="24.76" rx="22.84" ry="12.74"/>
<circle class="st0" cx="25.16" cy="24.76" r="10.22"/>
<path d="M24.88,24.59l0.91-4.68c0,0,0.01-0.06,0-0.08c-0.01-0.03-0.04-0.02-0.07-0.03c-0.18-0.02-0.37-0.03-0.56-0.03
	c-2.86,0-5.16,2.41-4.98,5.31c0.15,2.49,2.18,4.51,4.66,4.66c2.9,0.18,5.31-2.12,5.31-4.98c0-0.12-0.01-0.25-0.01-0.37
	c0-0.01,0-0.03-0.01-0.04c-0.01-0.01-0.06,0-0.06,0l-4.75,0.77c0,0-0.2,0.04-0.34-0.1C24.81,24.84,24.88,24.59,24.88,24.59z"/>
</svg>
