<?xml version="1.0" encoding="utf-8"?>
<!-- Generator: Adobe Illustrator 25.3.1, SVG Export Plug-In . SVG Version: 6.00 Build 0)  -->
<svg version="1.1" id="Calque_1" xmlns="http://www.w3.org/2000/svg" xmlns:xlink="http://www.w3.org/1999/xlink" x="0px" y="0px"
	 viewBox="0 0 24 24" style="enable-background:new 0 0 24 24;" xml:space="preserve">
<style type="text/css">
	.st0{fill:#013D16;}
</style>
<path class="st0" d="M24,2v22H0V2h3v1c0,1.1,0.9,2,2,2s2-0.9,2-2V2h10v1c0,1.1,0.9,2,2,2s2-0.9,2-2V2H24z M22,8H2v14h20V8z M20,1
	c0-0.6-0.4-1-1-1s-1,0.4-1,1v2c0,0.6,0.4,1,1,1s1-0.4,1-1V1z M6,3c0,0.6-0.4,1-1,1S4,3.6,4,3V1c0-0.6,0.4-1,1-1s1,0.4,1,1V3z
	 M12.7,16.5c0-0.8-0.4-1.4-1.1-1.7c0.5-0.3,0.8-0.8,0.8-1.5c0-1.3-1.3-2.1-2.6-2.1c-1.5,0-2.6,0.9-2.7,2.8h1.6c0-0.8,0.3-1.3,1-1.3
	c0.4,0,0.9,0.3,0.9,0.9c0,0.8-0.8,0.9-1.6,0.8v1.3c1.1,0,1.7,0.1,1.7,1c0,0.7-0.5,1-1.1,1c-0.8,0-1.2-0.6-1.2-1.5H7
	C7,18,8.1,19,9.8,19C11.4,19,12.7,18.1,12.7,16.5z M17,19v-7.7h-1.4c-0.2,1.2-1,1.5-2.2,1.5v1.3h1.9V19H17z"/>
</svg>
