<svg xmlns="http://www.w3.org/2000/svg" width="29.926" height="37.551" viewBox="0 0 29.926 37.551"><defs><style>.a{fill:#2a836e;}</style></defs><g transform="translate(-350.166 -543.776)"><path class="a" d="M372.191,581.327H357.356a4.756,4.756,0,0,1-4.7-5.48L355.863,555a5.034,5.034,0,0,1,4.975-4.267h8.277a4.567,4.567,0,0,1,4.512,3.948l2.912,21.675a4.387,4.387,0,0,1-4.348,4.972Zm-11.353-27.6a2.023,2.023,0,0,0-2.01,1.724L355.621,576.3a1.756,1.756,0,0,0,1.735,2.024h14.835a1.387,1.387,0,0,0,1.374-1.572l-2.912-21.676a1.557,1.557,0,0,0-1.538-1.347Z"/><path class="a" d="M366.941,562.278h-3.829a4.037,4.037,0,0,1-3.832-2.759l-2.03-6.067a1.5,1.5,0,1,1,2.845-.952l2.03,6.067a1.04,1.04,0,0,0,.988.711h3.829a1.046,1.046,0,0,0,1-.752l1.729-5.968a1.5,1.5,0,0,1,2.882.835l-1.729,5.968a4.041,4.041,0,0,1-3.882,2.917Z"/><path class="a" d="M7.954,1.5H0A1.5,1.5,0,0,1-1.5,0,1.5,1.5,0,0,1,0-1.5H7.954A1.5,1.5,0,0,1,9.454,0,1.5,1.5,0,0,1,7.954,1.5Z" transform="translate(360.279 572.516)"/><path class="a" d="M373.133,557.773h2.723a2.89,2.89,0,0,1,2.857,2.412l1.338,7.88a2.907,2.907,0,0,1-1.4,2.993l-1.676.971a2.9,2.9,0,0,1-4.325-2.121L371.3,559.871a1.852,1.852,0,0,1,1.836-2.1Zm2.637,3h-1.324l1.153,8.583,1.483-.859Z"/><path class="a" d="M354.156,557.773h2.568a1.5,1.5,0,0,1,1.483,1.728l-1.682,10.925a2.507,2.507,0,0,1-4.2,1.445l-.649-.612a4.778,4.778,0,0,1-1.422-4.413l1.351-6.971A2.6,2.6,0,0,1,354.156,557.773Zm.819,3h-.487l-1.288,6.644a1.8,1.8,0,0,0,.5,1.626Z"/><path class="a" d="M368.336,550.566a1.5,1.5,0,0,1-1.5-1.5,2.782,2.782,0,0,0-.508-1.478,1.974,1.974,0,0,0-1.719-.812,2.076,2.076,0,0,0-2.29,2.29,1.5,1.5,0,0,1-3,0,5.538,5.538,0,0,1,1.156-3.472,5.043,5.043,0,0,1,4.134-1.818,5.227,5.227,0,0,1,5.227,5.29A1.5,1.5,0,0,1,368.336,550.566Z"/></g></svg>