<svg xmlns="http://www.w3.org/2000/svg" xmlns:xlink="http://www.w3.org/1999/xlink" width="19.5" height="19.493" viewBox="0 0 19.5 19.493"><defs><clipPath id="a"><rect width="19.5" height="19.493" transform="translate(0 0)" fill="#065729"/></clipPath></defs><g transform="translate(0 0)" clip-path="url(#a)"><path d="M19.485,15.58a1.108,1.108,0,0,0-.248-.652q-1.552-1.829-3.13-3.64a2.7,2.7,0,0,0-2.03-.973,2.747,2.747,0,0,0-2.057.956l-.168.188-.39-.679.807-.812a1.937,1.937,0,0,0,.982.234,2.074,2.074,0,0,0,1.38-.6,1.2,1.2,0,0,0,.471-.831,1.228,1.228,0,0,0-.457-.845c-.415-.391-.816-.8-1.217-1.2L12.88,6.17a.893.893,0,0,0-1.388-.012,2.085,2.085,0,0,0-.751,1.7,1.977,1.977,0,0,0,.231.81l-.459.461-.58-1.008c-.157-.274-.314-.548-.477-.818a2.657,2.657,0,0,0-1.47-1.18c.005-.28.006-.56,0-.846q1.533-.591,3.063-1.189l1.1-.428.089-.036a.881.881,0,0,0-.005-1.694L7.408.042A.336.336,0,0,0,7.247,0H6.989a.315.315,0,0,0-.117.022.948.948,0,0,0-.639.985q.006,1.374,0,2.748V6.126A2.641,2.641,0,0,0,4.744,7.334l-4.6,7.728c-.027.046-.052.093-.1.19A.34.34,0,0,0,0,15.408v2.317a.339.339,0,0,0,.027.129c.031.075.058.151.086.229a2.643,2.643,0,0,0,.276.593,1.9,1.9,0,0,0,1.653.816H17.41a1.93,1.93,0,0,0,1.877-1.124,2.34,2.34,0,0,0,.2-.892c.02-.568.02-1.189,0-1.9M11.924,6.993l.066-.066a.269.269,0,0,1,.38,0l1.524,1.524a.269.269,0,0,1,0,.38,1.269,1.269,0,0,1-1.8,0l-.175-.175a1.175,1.175,0,0,1,0-1.663M7.993,2.162l1.586.616-1.586.616ZM12.81,13.023c.214-.247.428-.5.665-.72a.836.836,0,0,1,1.174.009c.282.286.542.592.8.9l.3.353c.318.366.634.735.95,1.1h-.268c-.933,0-1.849,0-2.727.034-.164-.294-.333-.586-.5-.879-.145-.252-.29-.5-.433-.757Zm-9.491.128q1.45-2.439,2.9-4.877a1.041,1.041,0,0,1,.887-.552h.008a1.038,1.038,0,0,1,.887.566q1.436,2.489,2.864,4.981l.8,1.388H2.422Zm14.419,4.241c0,.307-.039.346-.344.346H2.1c-.3,0-.343-.039-.344-.344v-.337c0-.21,0-.422,0-.648q2.718.006,5.435,0h4.038c2.154,0,4.316,0,6.512,0-.006.214,0,.427,0,.642Z" fill="#065729"/></g></svg>