<?xml version="1.0" encoding="utf-8"?>
<!-- Generator: Adobe Illustrator 26.0.3, SVG Export Plug-In . SVG Version: 6.00 Build 0)  -->
<svg version="1.1" id="Calque_1" xmlns="http://www.w3.org/2000/svg" xmlns:xlink="http://www.w3.org/1999/xlink" x="0px" y="0px"
	 viewBox="0 0 24 24" style="enable-background:new 0 0 24 24;" xml:space="preserve">
<style type="text/css">
	.st0{fill:#013D16;}
</style>
<g>
	<g>
		<path class="st0" d="M4,18v-0.6c0-0.3,0.2-0.7,0.4-0.8C6.1,15.5,8,15,10,15c0,0,0.1,0,0.1,0c0.1-0.7,0.3-1.4,0.6-2
			c-0.2,0-0.4,0-0.7,0c-2.4,0-4.7,0.7-6.6,1.8C2.5,15.3,2,16.3,2,17.3V20h9.3c-0.4-0.6-0.8-1.3-1-2H4z"/>
		<path class="st0" d="M10,12c2.2,0,4-1.8,4-4s-1.8-4-4-4S6,5.8,6,8S7.8,12,10,12z M10,6c1.1,0,2,0.9,2,2s-0.9,2-2,2S8,9.1,8,8
			S8.9,6,10,6z"/>
		<path class="st0" d="M20.8,16c0-0.2,0-0.4-0.1-0.6l1.1-1l-1-1.7l-1.5,0.5c-0.3-0.3-0.7-0.5-1.1-0.6L18,11h-2l-0.3,1.5
			c-0.4,0.1-0.8,0.4-1.1,0.6l-1.4-0.5l-1,1.7l1.1,1c0,0.2-0.1,0.4-0.1,0.6c0,0.2,0,0.4,0.1,0.6l-1.1,1l1,1.7l1.4-0.5
			c0.3,0.3,0.7,0.5,1.1,0.6L16,21h2l0.3-1.5c0.4-0.1,0.8-0.4,1.1-0.6l1.5,0.5l1-1.7l-1.1-1C20.7,16.4,20.8,16.2,20.8,16z M17,18
			c-1.1,0-2-0.9-2-2s0.9-2,2-2s2,0.9,2,2S18.1,18,17,18z"/>
	</g>
</g>
</svg>
