<svg xmlns="http://www.w3.org/2000/svg" width="104" height="83.353" viewBox="0 0 104 83.353"><defs><style>.a{fill:#6eae54;}</style></defs><g transform="translate(-467.995 -725.111)"><path d="M27.773,2H0A2,2,0,0,1-2,0,2,2,0,0,1,0-2H27.773a2,2,0,0,1,2,2A2,2,0,0,1,27.773,2Z" transform="translate(542.222 798.529)"/><path d="M23.806,2H0A2,2,0,0,1-2,0,2,2,0,0,1,0-2H23.806a2,2,0,0,1,2,2A2,2,0,0,1,23.806,2Z" transform="translate(469.995 798.529)"/><path class="a" d="M524.678,779.024H484.735a3.855,3.855,0,0,1-3.851-3.851V759.037a3.856,3.856,0,0,1,3.851-3.853h21.189a3.827,3.827,0,0,1,2.724,1.129l6.808,6.808h9.223a3.855,3.855,0,0,1,3.851,3.851v8.2A3.855,3.855,0,0,1,524.678,779.024Zm-39.794-4h39.645v-7.9h-9.136a3.827,3.827,0,0,1-2.724-1.129l-6.808-6.808H484.884Z" transform="translate(13.121 25.473)"/><circle class="a" cx="3.968" cy="3.968" r="3.968" transform="translate(499.289 797.982)"/><path class="a" d="M3.968-2A5.968,5.968,0,1,1-2,3.968,5.974,5.974,0,0,1,3.968-2Zm0,7.935A1.968,1.968,0,1,0,2,3.968,1.97,1.97,0,0,0,3.968,5.935Z" transform="translate(499.289 797.982)"/><path class="a" d="M3.968-2A5.968,5.968,0,1,1-2,3.968,5.974,5.974,0,0,1,3.968-2Zm0,7.935A1.968,1.968,0,1,0,2,3.968,1.97,1.97,0,0,0,3.968,5.935Z" transform="translate(528.582 798.529)"/><path class="a" d="M3.968,5.968a1.994,1.994,0,0,1-1.414-.586L-1.414,1.414a2,2,0,0,1,0-2.828,2,2,0,0,1,2.828,0L5.382,2.553A2,2,0,0,1,3.968,5.968Z" transform="translate(515.924 786.626)"/><path d="M15.871,2H0A2,2,0,0,1-2,0,2,2,0,0,1,0-2H15.871a2,2,0,0,1,2,2A2,2,0,0,1,15.871,2Z" transform="translate(524.68 762.272)"/><path d="M28.4,2H0A2,2,0,0,1-2,0,2,2,0,0,1,0-2H28.4a2,2,0,0,1,2,2A2,2,0,0,1,28.4,2Z" transform="translate(491.252 746.95)"/><path d="M3.968,2H0A2,2,0,0,1-2,0,2,2,0,0,1,0-2H3.968a2,2,0,0,1,2,2A2,2,0,0,1,3.968,2Z" transform="translate(511.749 762.82)"/><path d="M11.9,2H0A2,2,0,0,1-2,0,2,2,0,0,1,0-2H11.9a2,2,0,0,1,2,2A2,2,0,0,1,11.9,2Z" transform="translate(481.898 770.755)"/><path d="M516.6,791.76a2,2,0,0,1-2-2V744.148h-5.935a2,2,0,0,1,0-4H516.6a2,2,0,0,1,2,2V789.76A2,2,0,0,1,516.6,791.76Z" transform="translate(36.659 12.736)"/><path d="M15.871,2H0A2,2,0,0,1-2,0,2,2,0,0,1,0-2H15.871a2,2,0,0,1,2,2A2,2,0,0,1,15.871,2Z" transform="translate(542.222 727.111)"/></g></svg>