<?xml version="1.0" encoding="utf-8"?>
<!-- Generator: Adobe Illustrator 25.3.1, SVG Export Plug-In . SVG Version: 6.00 Build 0)  -->
<svg version="1.1" id="Calque_1" xmlns="http://www.w3.org/2000/svg" xmlns:xlink="http://www.w3.org/1999/xlink" x="0px" y="0px"
	 viewBox="0 0 50 50" style="enable-background:new 0 0 50 50;" xml:space="preserve">
<style type="text/css">
	.st0{fill:#2C55A7;}
	.st1{fill:#EFD423;}
</style>
<path class="st0" d="M8.1,28c0,0-2.2,1.9-3,3.3l1.9,2.9c0,0,1.3-0.3,1.5,0c0.2,0.3,1.3,2.7,1.3,2.7l2.3,0.5c0,0,0.9,2.4,1.1,2.4
	s2.4,0.5,2.4,0.5l-0.3,2.2l3,0.6c0,0,1,0.2,1.2,0.1c1.4-0.6,2.7-1.8,3.1-2L11.4,26.8L8.1,28z"/>
<path class="st1" d="M1.2,17.7c0,0,4.9,7.8,5.1,7.9c0.2,0.1,14.9,15.3,14.9,15.3l3.3,0.3l1-1.8l3,0.7l1.4-1.6l0.8-1.3l2.6-1.5
	l0.9-1.8l1.6,0l1.1-1.1c0,0,1.9-1.1,1.5-3.5c-0.4-2.4-0.4-2.4-0.4-2.4h-4.4L23,18.8c0,0,4.2-1.9-1-6.4c-4.9-4.2-8.4-1.5-8.4-1.5
	l-2.5,1.8l-4.7-2.6C6.4,10.1,1.8,14.3,1.2,17.7z"/>
<path class="st0" d="M37,27.6l-1.5,1.3c0,0-1,0.3-2-0.9S37,27.6,37,27.6z"/>
<path class="st0" d="M13.6,18.8l-1.1,2.6l1.1,1.9l3.1-0.5l5.9-4.4l10.9,8.7h3.9l6-2.9l6-5.6c0,0-1-4.6-6.4-8.6l-5.6,3.8l-5.5-3.4
	l-5.4-0.4L13.6,18.8z"/>
<path d="M23.4,42.2c-2.7,0-6.2-3.8-10.3-8.2c-1.3-1.4-2.7-2.9-4-4.2c-5.6-5.5-8.3-11.3-8.4-11.6c-0.2-0.4,0-0.8,0.4-1
	c0.4-0.2,0.8,0,1,0.4c0,0.1,2.7,5.8,8.1,11.1c1.3,1.3,2.7,2.8,4.1,4.2c3.6,3.8,8,8.6,9.7,7.5c0.5-0.3,0.5-0.6,0.5-0.7
	c0-0.5-0.3-1.5-2.7-3.5l-0.1-0.1c-0.3-0.3-0.4-0.8-0.1-1.1c0.3-0.3,0.8-0.4,1.1-0.1l0.1,0.1c1.4,1.2,3.3,3,3.2,4.8
	c0,0.5-0.3,1.3-1.3,1.9C24.4,42.1,23.9,42.2,23.4,42.2z"/>
<path d="M34.7,35c-0.7,0-1.4-0.3-2.1-0.8c-2.2-1.7-4.4-3.6-4.5-3.6c-0.3-0.3-0.4-0.8-0.1-1.1c0.3-0.3,0.8-0.4,1.1-0.1
	c0,0,2.3,1.9,4.4,3.6c0.5,0.4,0.9,0.5,1.3,0.5c0.7-0.1,1.1-0.8,1.1-0.8c0.2-0.4,0.7-0.5,1.1-0.3c0.4,0.2,0.5,0.7,0.3,1
	c-0.1,0.1-0.8,1.3-2.1,1.5C35,34.9,34.8,35,34.7,35z"/>
<path d="M30.8,37.9c-0.8,0-1.5-0.3-2.3-1c-1.2-1-3.7-3.7-3.8-3.8c-0.3-0.3-0.3-0.8,0-1.1c0.3-0.3,0.8-0.3,1.1,0c0,0,2.5,2.7,3.7,3.7
	c0.9,0.8,1.5,0.9,2.7,0c0.9-0.7,0.4-1.6,0.3-1.8c-0.2-0.4-0.1-0.8,0.3-1c0.4-0.2,0.8-0.1,1,0.3c0.5,0.8,0.9,2.5-0.6,3.8
	C32.3,37.6,31.5,37.9,30.8,37.9z"/>
<path d="M27.5,40.9c-1.1,0-2.2-0.6-3.1-1.7c-0.3-0.3-0.2-0.8,0.1-1.1c0.3-0.3,0.8-0.2,1.1,0.1c1,1.3,2.2,1.5,3.4,0.5
	c0.3-0.2,0.3-1.1,0.1-1.6c-0.1-0.4,0.2-0.8,0.6-0.9c0.4-0.1,0.8,0.2,0.9,0.6C30.7,37,31.2,39,30,40C29.2,40.6,28.3,40.9,27.5,40.9z"
	/>
<path d="M17.5,43.9c-0.8,0-1.5-0.3-2.3-0.9c-0.7-0.5-0.8-1.3-0.7-2c-0.8,0-1.6-0.4-2.3-1.1c-0.6-0.6-0.8-1.3-0.8-1.9
	c-0.8,0.1-1.6-0.2-2.4-0.8c-0.7-0.6-1-1.3-1-1.9c-1.2,0-2-0.9-2.6-1.6c-0.4-0.4-0.6-0.9-0.6-1.5c0.1-1.1,1-2,1.1-2
	c0.3-0.3,0.8-0.3,1.1,0.1C7.3,30.5,7.3,31,7,31.3c0,0-0.9,0.8-0.4,1.4C7.7,33.9,8,34,8.8,33.5c0.3-0.2,0.7-0.1,1,0.1
	c0.2,0.3,0.3,0.7,0.1,1C9.7,34.9,9.3,35.5,10,36c1,0.8,1.7,0.4,2,0.3c0.3-0.1,0.6-0.1,0.9,0.1c0.2,0.2,0.3,0.5,0.2,0.8
	c0,0-0.4,1,0.3,1.6c0.4,0.4,1.2,1,1.9,0.4c0.3-0.2,0.7-0.2,1,0c0.3,0.2,0.3,0.6,0.2,1c-0.2,0.4-0.5,1.3-0.2,1.6
	c0.8,0.6,1.4,0.9,2.7,0.1c0.4-0.2,0.8-0.1,1,0.3c0.2,0.4,0.1,0.8-0.3,1C18.8,43.7,18.2,43.9,17.5,43.9z"/>
<path d="M11.2,13.6c-0.1,0-0.3,0-0.4-0.1l-4.1-2.4c-0.4-0.2-0.5-0.7-0.3-1c0.2-0.4,0.7-0.5,1-0.3l3.7,2.1c1.3-0.8,5-3,7.9-1.4
	c0.4,0.2,0.5,0.7,0.3,1c-0.2,0.4-0.7,0.5-1,0.3c-2.6-1.5-6.7,1.5-6.7,1.6C11.5,13.6,11.4,13.6,11.2,13.6z"/>
<path d="M35.1,28.2c-1.1,0-2-0.3-2.6-0.7c-1.6-1.2-8.1-6.7-9.9-8.3c-1.3,0.9-4.7,3.4-5.9,4.3c-1.6,1.2-3.2,1-4.5-0.7
	c-0.9-1.1-0.5-2.7,1-4c1.3-1.1,8.7-6.4,11.3-8.3c2.7-1.9,5.8-1.5,7.7-0.6c1.1,0.5,3.7,2.4,4.8,3.1l5.1-3.3c0.4-0.2,0.8-0.1,1.1,0.2
	c0.2,0.4,0.1,0.8-0.2,1.1l-5.5,3.6c-0.3,0.2-0.6,0.2-0.9,0c0,0-3.8-2.7-5-3.3c-0.3-0.2-3.2-1.5-6.1,0.5c-2.8,2-10,7.2-11.2,8.2
	c-0.8,0.7-1.1,1.4-0.8,1.8c0.9,1.1,1.5,1.2,2.4,0.4c1.5-1.1,6.4-4.7,6.5-4.7c0.3-0.2,0.7-0.2,0.9,0c0.1,0.1,8.5,7.3,10.3,8.6
	c1.4,1.1,7.1,0.6,14.9-7.6c0.3-0.3,0.8-0.3,1.1,0s0.3,0.8,0,1.1C43.4,26.2,38.3,28.2,35.1,28.2z"/>
<path class="st0" d="M7.6,28.1c0.1-0.2,0.3-0.3,0.5-0.4c0.9-0.6,2.8-2,4.5-0.5c0.9,0.8,1.1,1.5,1,1.9c0,0.2,0.1,0.5,0.3,0.5
	c0.5,0,1.1,0.2,1.8,0.9c0.6,0.6,0.6,1.1,0.6,1.4c-0.1,0.2,0.1,0.4,0.4,0.4c0.4,0,0.8,0.1,1.2,0.6c0.6,0.6,0.8,1.2,0.7,1.7
	c0,0.3,0.1,0.5,0.4,0.5c0.6-0.1,1.6,0,2.2,0.8c1,1.1,0.4,2.1,0.2,2.2c0,0,0,0,0,0.1c-0.2,0.3-1.4,2.9-1.2,3.5
	c0.1,0.6-11.3-10.2-13.1-11.9c-0.1-0.1-0.2-0.3-0.1-0.5L7.6,28.1z"/>
</svg>
