<svg xmlns="http://www.w3.org/2000/svg" width="104" height="91.372" viewBox="0 0 104 91.372"><defs><style>.a{fill:#6eae54;}</style></defs><g transform="translate(-467.991 -664.963)"><path class="a" d="M501.042,743.348a3.479,3.479,0,0,1-3.25-4.683l8.481-22.794h-23.7l-11.131,11.414a2,2,0,1,1-2.864-2.793l11.3-11.59.019-.019a3.443,3.443,0,0,1,2.449-1.013h24.7a3.464,3.464,0,0,1,3.247,4.674l-8.075,21.7,31.961-25.622,0,0a3.471,3.471,0,0,1,2.156-.751H558.46c2.236,0,9.531-.456,9.531-6.323a5.268,5.268,0,0,0-3.6-5.313,15.505,15.505,0,0,0-5.89-1H536.016a3.473,3.473,0,0,1-2.155-.751l-31.667-25.205,7.948,21.281a3.465,3.465,0,0,1-3.249,4.675H482.2a3.446,3.446,0,0,1-2.451-1.013l-11.173-11.16a2,2,0,1,1,2.827-2.83l11.015,11h23.705l-8.352-22.363a3.466,3.466,0,0,1,5.4-3.928l.005,0L536.2,695.232h22.3a19.48,19.48,0,0,1,7.441,1.317,10.1,10.1,0,0,1,4.187,3.11,9.43,9.43,0,0,1,1.864,5.89,9.181,9.181,0,0,1-1.979,5.931,10.578,10.578,0,0,1-4.318,3.081,20.274,20.274,0,0,1-7.234,1.311H536.523L503.2,742.584l-.011.008A3.457,3.457,0,0,1,501.042,743.348Z" transform="translate(0 3.019)"/><path d="M24.963,2H0A2,2,0,0,1-2,0,2,2,0,0,1,0-2H24.963a2,2,0,0,1,2,2A2,2,0,0,1,24.963,2Z" transform="translate(540.866 683.605)"/><path d="M29.124,2H0A2,2,0,0,1-2,0,2,2,0,0,1,0-2H29.124a2,2,0,0,1,2,2A2,2,0,0,1,29.124,2Z" transform="translate(516.864 737.693)"/><path d="M4.161,2H0A2,2,0,0,1-2,0,2,2,0,0,1,0-2H4.161a2,2,0,0,1,2,2A2,2,0,0,1,4.161,2Z" transform="translate(478.329 737.693)"/><path d="M46.7,2H0A2,2,0,0,1-2,0,2,2,0,0,1,0-2H46.7a2,2,0,0,1,2,2A2,2,0,0,1,46.7,2Z" transform="translate(523.291 754.335)"/><path d="M0,2A2,2,0,0,1-2,0,2,2,0,0,1,0-2H24.963a2,2,0,0,1,2,2,2,2,0,0,1-2,2Z" transform="translate(482.49 666.963)"/><path d="M8.321,2H0A2,2,0,0,1-2,0,2,2,0,0,1,0-2H8.321a2,2,0,0,1,2,2A2,2,0,0,1,8.321,2Z" transform="translate(524.171 683.605)"/></g></svg>