<svg id="Calque_1" data-name="Calque 1" xmlns="http://www.w3.org/2000/svg" viewBox="0 0 264.768 257"><defs><style>.cls-1{fill:#2a846f;}.cls-2{fill:#fcc00d;}.cls-3{fill:#2e57a4;}.cls-4{fill:#010101;}.cls-5{fill:#73bb69;}</style></defs><path class="cls-1" d="M227.923,102.639c-5.245,2.623-30.422,15.211-45.633,13.638-7.342-.524-12.589-3.147-18.883-5.245a110.646,110.646,0,0,0-29.9-8.392c-20.456-3.146-27.275-4.72-32-5.769a33.2,33.2,0,0,1-3.672-1.049,15.756,15.756,0,0,1-3.2-1.074c-4.807,3.088-8.01,7.367-11.493,7.367-2.1,0-2.622-.525-3.147-1.574-.524-1.573-2.1-2.1-3.146-1.049a100.7,100.7,0,0,1-9.964,8.922c-4.721,4.195-7.868,2.1-9.442,1.048-.524-.524-1.573-1.048-2.1-.524a17.019,17.019,0,0,1-17.833-1.574c-.524,0-1.574-.524-2.1,0-2.692.9-10.368,3.7-15.815-.089a3.736,3.736,0,0,1-3.594-.439c-.088-.073-.164-.157-.25-.231a129.036,129.036,0,0,0,8.083,82.522,47.933,47.933,0,0,1,32.032-13.054c15.87-1.549,26.591,2.05,31.967,9.73,8.105-3.789,12.437-10.945,14.19-14.452a7.257,7.257,0,0,1,1.574-2.1c1.049-.524,1.573-1.049,2.623-1.049s1.574.525,2.622,1.049a3.309,3.309,0,0,1,.041,4.68l-.041.041a1.828,1.828,0,0,0-.524,1.048c-2.189,3.5-7.321,12.471-17.493,17.174a25.977,25.977,0,0,1,.708,3.283c2.624,13.638-3.671,27.8-24.128,33.045a79.744,79.744,0,0,0-11.587,3.792,128.531,128.531,0,0,0,209.93-126.688l-21.454-1.839Zm-55.6,115.92H159.211c-20.985,0-38.814-16.785-39.339-37.766,0-1.049,0-1.573-.525-2.1v-2.1c.525-20.456,17.834-37.24,38.815-37.24H174.42a39.462,39.462,0,0,1,36.194,39.338C210.614,200.2,193.305,217.51,172.324,218.559Z" transform="translate(-4.616 -7.5)"/><path class="cls-2" d="M131.94,178.87c0-.059,0-.117,0-.175h0C131.935,178.754,131.94,178.812,131.94,178.87Z" transform="translate(-4.616 -7.5)"/><path class="cls-2" d="M151.028,153.217a30.932,30.932,0,0,0-11.748,24.954c0,.082,0,.162.006.244A32.746,32.746,0,0,1,151.028,153.217Z" transform="translate(-4.616 -7.5)"/><path class="cls-2" d="M170.751,211.215c-.138,0-.273-.016-.41-.022.137.006.273.019.41.023h2.623l.043,0-.043,0Z" transform="translate(-4.616 -7.5)"/><path class="cls-2" d="M131.936,178.693a40.884,40.884,0,0,1,14.162-30.42A39.132,39.132,0,0,0,131.936,178.693Z" transform="translate(-4.616 -7.5)"/><path class="cls-1" d="M136.132,17.144c15.733,0,56.434,8.979,79.625,14.418a128.525,128.525,0,0,0-187.1,41.813C49.9,58.92,113.249,18.694,131.43,17.3,133.134,17.148,135.608,17.144,136.132,17.144Z" transform="translate(-4.616 -7.5)"/><path class="cls-2" d="M126.691,180.268V176.6h-.006v3.672a32.577,32.577,0,0,0,18.883,28.325l-.007-.007C135.076,203.339,127.215,192.852,126.691,180.268Z" transform="translate(-4.616 -7.5)"/><path class="cls-3" d="M18.765,95.927c.431-1.314.876-2.622,1.348-3.917A13.2,13.2,0,0,0,18.765,95.927Z" transform="translate(-4.616 -7.5)"/><path class="cls-3" d="M134.558,23.961c-17.309,1.048-92.316,48.256-107,59.8a24.474,24.474,0,0,0-7.443,8.254c-.472,1.3-.917,2.6-1.348,3.917a9.319,9.319,0,0,0-.126,1.467c0,2.1.524,3.672,1.574,4.2,1.574,1.048,1.574,3.147.524,4.72a2.718,2.718,0,0,1-1.127.964c5.447,3.794,13.123.987,15.815.089.524-.524,1.574,0,2.1,0a17.019,17.019,0,0,0,17.833,1.574c.525-.524,1.574,0,2.1.524,1.574,1.049,4.721,3.147,9.442-1.048a100.7,100.7,0,0,0,9.964-8.922c1.048-1.048,2.622-.524,3.146,1.049.525,1.049,1.049,1.574,3.147,1.574,3.483,0,6.686-4.279,11.493-7.367-6.1-2.767-11.258-9.61-9.917-19.907,1.049-5.245,2.623-9.441,6.3-11.539,3.149-3.674,6.294-4.2,11.014-4.2a40.44,40.44,0,0,1,7.868,1.049c4.2,1.048,9.966,2.1,15.736,3.146,12.064,2.623,25.177,5.246,31.471,5.77,2.1,0,3.147,1.574,3.147,3.672s-1.574,3.147-3.672,3.147c-6.295-.525-19.932-3.147-32.521-5.77-5.769-1.048-11.54-2.622-15.736-3.146-6.3-1.049-11.016-1.049-13.638,1.048-1.574,1.049-3.147,3.672-3.672,7.342-1.049,8.392,3.147,12.064,7.867,13.113,1.574.524,2.623.524,4.2,1.049,4.2,1.048,11.015,3.146,31.471,5.769a110.547,110.547,0,0,1,31.471,8.917,47.063,47.063,0,0,0,17.309,4.721C197.5,110.507,225.3,95.82,225.825,95.82c.524-.524,1.049-.524,2.1-.524l30.423,2.623a3.469,3.469,0,0,1,.9.125l4.549.39a128.537,128.537,0,0,0-36.481-57.52C211.536,37.144,150.554,22.589,134.558,23.961ZM75.287,88.479,49.062,101.59c-1.574,1.048-3.673,0-4.721-1.574s0-3.672,1.574-4.721L72.14,82.182c.524,0,1.049-.522,1.574-.522a3.262,3.262,0,0,1,3.147,2.1C77.909,85.332,76.861,87.431,75.287,88.479Z" transform="translate(-4.616 -7.5)"/><path class="cls-4" d="M224.082,38.078q-4.024-3.423-8.325-6.516c-23.191-5.439-63.892-14.418-79.625-14.418-.524,0-3,0-4.7.152C113.249,18.694,49.9,58.92,28.661,73.375,26,75.184,24,76.592,22.835,77.467,12.869,85.334,11.3,93.2,11.3,96.874a12.972,12.972,0,0,0,4.47,9.731c.086.074.162.158.25.231a3.736,3.736,0,0,0,3.594.439,2.718,2.718,0,0,0,1.127-.964c1.05-1.573,1.05-3.672-.524-4.72-1.05-.525-1.574-2.1-1.574-4.2a9.319,9.319,0,0,1,.126-1.467,13.2,13.2,0,0,1,1.348-3.917,24.474,24.474,0,0,1,7.443-8.254c14.686-11.539,89.693-58.747,107-59.795,16-1.372,76.978,13.183,92.76,16.953Q225.727,39.467,224.082,38.078Z" transform="translate(-4.616 -7.5)"/><path class="cls-4" d="M73.714,81.66c-.525,0-1.05.522-1.574.522L45.915,95.3c-1.574,1.049-2.623,3.147-1.574,4.721s3.147,2.622,4.721,1.574L75.287,88.479c1.574-1.048,2.622-3.147,1.574-4.721A3.262,3.262,0,0,0,73.714,81.66Z" transform="translate(-4.616 -7.5)"/><path class="cls-2" d="M131.94,178.87c0-.058,0-.116,0-.175h0a39.132,39.132,0,0,1,14.162-30.42A32.446,32.446,0,0,0,126.691,176.6v3.671c.524,12.584,8.385,23.071,18.87,28.318A39.3,39.3,0,0,1,131.94,178.87Z" transform="translate(-4.616 -7.5)"/><path class="cls-2" d="M174.947,145.653H169.7a34.548,34.548,0,0,0-18.673,7.564,32.746,32.746,0,0,0-11.742,25.2c.128,17.582,14.013,32.039,31.055,32.778.137.006.272.018.41.022h2.623l.043,0a33.311,33.311,0,0,0,31.428-33.043A32.966,32.966,0,0,0,174.947,145.653Zm9.965,41.958c-2.1,7.868-12.064,12.065-13.112,12.589a3.519,3.519,0,0,1-3.147-6.295c2.1-1.048,8.392-4.2,9.441-8.392,0-1.048.525-2.622-1.048-4.72a27.493,27.493,0,0,0-6.819-6.819c-4.2-3.147-6.3-5.77-5.245-13.638a3.827,3.827,0,0,1,3.671-3.147c2.1,0,3.672,2.1,3.147,3.672-.525,4.721,0,5.245,3.147,7.868a41.81,41.81,0,0,1,7.867,8.391C184.912,180.267,185.961,183.939,184.912,187.611Z" transform="translate(-4.616 -7.5)"/><path class="cls-4" d="M174.42,139.356H158.162c-20.981,0-38.29,16.784-38.815,37.24v2.1c.525.526.525,1.05.525,2.1.525,20.981,18.354,37.766,39.339,37.766h13.113c20.981-1.049,38.29-18.359,38.29-39.865A39.462,39.462,0,0,0,174.42,139.356Zm-28.852,69.237a32.577,32.577,0,0,1-18.883-28.325V176.6h.006A32.446,32.446,0,0,1,146.1,148.273a40.884,40.884,0,0,0-14.162,30.42v0c0,.058,0,.116,0,.175a39.3,39.3,0,0,0,13.633,29.723l-.012-.007Zm27.849,2.62-.043,0h-2.623c-.137,0-.273-.017-.41-.023-17.64-.728-31.581-14.8-31.059-32.5,0-.093,0-.186,0-.279s-.006-.162-.006-.244a30.932,30.932,0,0,1,11.748-24.954,32.664,32.664,0,0,1,18.674-7.565h5.246a32.589,32.589,0,0,1,29.9,32.518C204.845,195.989,190.707,210.665,173.417,211.213Z" transform="translate(-4.616 -7.5)"/><path class="cls-4" d="M131.94,178.87a39.3,39.3,0,0,0,13.621,29.716l.012.007A39.3,39.3,0,0,1,131.94,178.87Z" transform="translate(-4.616 -7.5)"/><polygon class="cls-4" points="127.319 171.195 127.32 171.193 127.319 171.194 127.319 171.195"/><path class="cls-4" d="M174.948,145.652H169.7a32.664,32.664,0,0,0-18.674,7.565,34.548,34.548,0,0,1,18.673-7.564h5.246a32.966,32.966,0,0,1,29.9,32.517A32.589,32.589,0,0,0,174.948,145.652Z" transform="translate(-4.616 -7.5)"/><path class="cls-4" d="M173.417,211.213c17.29-.548,31.428-15.224,31.428-33.043A33.311,33.311,0,0,1,173.417,211.213Z" transform="translate(-4.616 -7.5)"/><path class="cls-4" d="M139.286,178.415c0,.093,0,.186,0,.279-.522,17.7,13.419,31.771,31.059,32.5C153.3,210.454,139.414,196,139.286,178.415Z" transform="translate(-4.616 -7.5)"/><path class="cls-5" d="M91.548,195.479a25.977,25.977,0,0,0-.708-3.283,31.28,31.28,0,0,1-6.635,2.231c-11.918,2.981-31.092,11.834-42.1,23.757a36.636,36.636,0,0,0-6.155,8.764c-1.049,1.574-2.623,2.623-4.721,1.574-1.574-1.048-2.622-2.622-1.574-4.72a44.275,44.275,0,0,1,8.061-11.188c12.154-12.621,31.759-21.715,44.916-25.007a25.6,25.6,0,0,0,5.217-1.8c-5.376-7.68-16.1-11.279-31.967-9.73a47.933,47.933,0,0,0-32.032,13.054c-20.5,19.2-23.572,53.64-14.126,61.952,13.112,11.54,29.9,6.819,32-2.1,1.214-6.873,3.682-12.188,14.115-16.665a79.744,79.744,0,0,1,11.587-3.792C87.877,223.279,94.172,209.117,91.548,195.479Z" transform="translate(-4.616 -7.5)"/><path class="cls-4" d="M108.857,169.253c-1.048-.524-1.574-1.049-2.622-1.049s-1.574.525-2.623,1.049a7.257,7.257,0,0,0-1.574,2.1c-1.753,3.507-6.085,10.663-14.19,14.452a25.6,25.6,0,0,1-5.217,1.8c-13.157,3.292-32.762,12.386-44.916,25.007A44.275,44.275,0,0,0,29.654,223.8c-1.048,2.1,0,3.672,1.574,4.72,2.1,1.049,3.672,0,4.721-1.574a36.636,36.636,0,0,1,6.155-8.764c11.009-11.923,30.183-20.776,42.1-23.757A31.28,31.28,0,0,0,90.84,192.2c10.172-4.7,15.3-13.67,17.493-17.174a1.828,1.828,0,0,1,.524-1.048l.041-.041A3.309,3.309,0,0,0,108.857,169.253Z" transform="translate(-4.616 -7.5)"/><path class="cls-4" d="M174.947,168.729c-3.147-2.623-3.672-3.147-3.147-7.868.525-1.574-1.049-3.672-3.147-3.672a3.827,3.827,0,0,0-3.671,3.147c-1.05,7.868,1.049,10.491,5.245,13.638a27.493,27.493,0,0,1,6.819,6.819c1.573,2.1,1.048,3.672,1.048,4.72-1.049,4.2-7.343,7.344-9.441,8.392A3.519,3.519,0,0,0,171.8,200.2c1.048-.524,11.015-4.721,13.112-12.589,1.049-3.672,0-7.344-2.1-10.491A41.81,41.81,0,0,0,174.947,168.729Z" transform="translate(-4.616 -7.5)"/><path class="cls-4" d="M264.838,102.036c-.061-.222-.119-.446-.181-.668q-.411-1.474-.858-2.934l-4.549-.39a3.469,3.469,0,0,0-.9-.125L227.923,95.3c-1.049,0-1.574,0-2.1.524-.526,0-28.324,14.687-42.489,13.111a47.063,47.063,0,0,1-17.309-4.721,110.547,110.547,0,0,0-31.471-8.917c-20.456-2.623-27.275-4.721-31.471-5.769-1.574-.525-2.623-.525-4.2-1.049-4.72-1.049-8.916-4.721-7.867-13.113.525-3.67,2.1-6.293,3.672-7.342,2.622-2.1,7.343-2.1,13.638-1.048,4.2.524,9.967,2.1,15.736,3.146,12.589,2.623,26.226,5.245,32.521,5.77,2.1,0,3.672-1.049,3.672-3.147s-1.049-3.672-3.147-3.672c-6.294-.524-19.407-3.147-31.471-5.77-5.77-1.048-11.54-2.1-15.736-3.146a40.44,40.44,0,0,0-7.868-1.049c-4.72,0-7.865.524-11.014,4.2-3.672,2.1-5.246,6.294-6.3,11.539-1.341,10.3,3.814,17.14,9.917,19.907a15.756,15.756,0,0,0,3.2,1.074,33.2,33.2,0,0,0,3.672,1.049c4.721,1.049,11.54,2.623,32,5.769a110.646,110.646,0,0,1,29.9,8.392c6.294,2.1,11.541,4.721,18.883,5.245,15.211,1.573,40.388-11.015,45.633-13.638l16.386,1.15,21.454,1.839Q265.325,103.822,264.838,102.036Z" transform="translate(-4.616 -7.5)"/></svg>