<svg id="Calque_1" data-name="Calque 1" xmlns="http://www.w3.org/2000/svg" viewBox="0 0 257 257"><defs><style>.cls-1{fill:#2a846f;}.cls-2{fill:#2e57a4;}.cls-3{fill:#010101;}.cls-4{fill:#fcc00d;}</style></defs><path class="cls-1" d="M231.949,155.677a21.259,21.259,0,0,1-7.373,20.336,4.44,4.44,0,0,1,.668,4.922c-.046.092-.094.183-.146.271-.623.623-4.981,8.094-13.075,9.34a26.991,26.991,0,0,0-3.112.625,16.113,16.113,0,0,1-2.819-.271,17.707,17.707,0,0,1-6.522,12.723q-8.4,5.6-14.943,5.6l-.089,0c.129,4.3-.766,9.639-4.894,13.08a26.539,26.539,0,0,1-15.566,5.6,21.05,21.05,0,0,1-10.228-2.789,16.969,16.969,0,0,1-7.2,7.773c-1.871,2.488-4.985,3.111-8.1,3.111a25.245,25.245,0,0,1-10.208-2.474,83.566,83.566,0,0,1-11.14,7.3,4.686,4.686,0,0,1-1.692,1.4c-5.6,3.114-9.338,4.36-13.7,4.36-4.981,0-9.341-1.868-14.322-5.6-4.359-3.113-4.981-8.094-4.359-12.453-4.981,0-9.962-2.491-14.321-6.85a16.489,16.489,0,0,1-4.981-11.83c-4.982.623-9.963-1.245-14.949-4.981-4.36-3.736-6.226-8.094-6.226-11.83-7.473,0-12.454-5.6-16.19-9.963a12.673,12.673,0,0,1-3.731-9.341c.623-6.849,6.226-12.453,6.849-12.453.008-.008.017-.013.024-.02,2.769-3.26,5.917-6.443,8.5-8.918l1.767-3.539a280.371,280.371,0,0,1-29.646-38.728A128.509,128.509,0,1,0,264.5,136.5c0-2.738-.1-5.454-.264-8.149-12.65,8.819-24.055,14.3-33.949,17.35Z" transform="translate(-7.5 -8)"/><path class="cls-1" d="M111.153,38.618a4.473,4.473,0,0,1,.807.52,66.158,66.158,0,0,1,17.529,11.021c6.4-4.629,12.021-8.7,15.91-11.541,16.811-11.83,36.117-9.34,47.945-3.736,6.849,3.113,23.039,14.949,29.888,19.3l7.295-4.721a128.477,128.477,0,0,0-180.2-8.731l11.631,6.6C70.057,42.354,93.1,28.656,111.153,38.618Z" transform="translate(-7.5 -8)"/><path class="cls-2" d="M237.064,57.13l-10.719,7.017a4.671,4.671,0,0,1-5.6,0S197.08,47.335,189.608,43.6c-1.868-1.245-19.925-9.34-37.982,3.113-3.82,2.729-8.956,6.414-14.725,10.571C116.339,72.1,87.722,92.909,81.888,97.771c-4.981,4.358-6.849,8.717-4.981,11.208,5.6,6.849,9.34,7.472,14.949,2.491,9.34-6.849,39.85-29.264,40.473-29.264,1.868-1.246,4.358-1.246,5.6,0,.1.1,1.615,1.41,4.108,3.551,12.64,10.852,50.661,43.236,60.026,50,6.674,5.244,29.04,4.648,60.952-18.829A127.907,127.907,0,0,0,237.064,57.13Z" transform="translate(-7.5 -8)"/><path class="cls-3" d="M13.608,97.27q-.779,2.43-1.463,4.9-1.08,3.9-1.92,7.905a280.371,280.371,0,0,0,29.646,38.728l.3-.6a6.219,6.219,0,0,1,3.113-2.491c.336-.224.7-.467,1.075-.722.956-.642,2.046-1.366,3.24-2.094A276.094,276.094,0,0,1,13.608,97.27Z" transform="translate(-7.5 -8)"/><path class="cls-4" d="M231.949,155.677l-1.662-9.976a73.734,73.734,0,0,1-10.6,2.469,55.284,55.284,0,0,1-8.283.659,29.647,29.647,0,0,1-16.19-4.358c-9.962-7.472-50.435-41.718-61.644-51.68-8.094,5.6-29.264,21.168-36.737,26.775-9.962,7.472-19.925,6.226-28.019-4.36C63.2,108.356,65.7,98.394,75.038,90.3c6.15-5.2,34.216-25.5,54.451-40.14A66.158,66.158,0,0,0,111.96,39.138a4.444,4.444,0,0,1,1.207,5.436c-.046.091-.094.182-.146.27a4.445,4.445,0,0,1-5.956,2.014c-.091-.045-.182-.094-.27-.146-16.19-9.34-41.718,9.341-41.718,9.963-.625,1.246-1.25,1.246-2.492,1.246a3.747,3.747,0,0,1-2.491-.623L43.333,47.484A128.422,128.422,0,0,0,13.608,97.27,276.094,276.094,0,0,0,47.6,142.9c6.233-3.795,15.355-7.661,23.705-.3,5.6,4.981,6.849,9.34,6.226,11.83,0,1.245.623,3.114,1.868,3.114,3.113,0,6.849,1.245,11.208,5.6,3.736,3.736,3.736,6.849,3.736,8.717-.623,1.245.623,2.491,2.492,2.491a8.763,8.763,0,0,1,7.476,3.736c3.736,3.736,4.981,7.472,4.359,10.584,0,1.868.624,3.113,2.491,3.113,3.737-.623,9.963,0,13.7,4.982,6.226,6.849,2.491,13.075,1.245,13.7v.623a55.191,55.191,0,0,0-2.731,5.57q-.292.66-.593,1.36,1.932,1.479,3.765,2.717c6.616,4.463,12.151,6.38,15.745,4.056,3.113-1.868,3.113-3.736,3.113-4.358a9.252,9.252,0,0,0-.544-3.021,16.278,16.278,0,0,0-1.2-2.643c-2.026-3.649-6.289-8.814-15.067-16.13l-.623-.623c-1.868-1.868-2.491-4.981-.624-6.849s4.982-2.491,6.85-.623l.623.623c6.2,5.318,13.98,12.528,17.727,20.283,6.167,7.757,13.519,8.883,20.873,2.753,1.514-1.009,1.8-4.885,1.191-7.975a33.152,33.152,0,0,1-4.3-3.233c-7.467-6.227-23.038-23.039-23.661-23.662a4.844,4.844,0,0,1,6.747-6.951q.053.051.1.1s15.564,16.811,23.039,23.039c5.6,4.981,9.34,5.6,16.811,0a7.663,7.663,0,0,0,2.763-9.155c-.09-.064-.181-.12-.272-.185-13.7-10.586-27.4-22.416-28.021-22.416-1.868-1.868-2.491-4.981-.623-6.849s4.982-2.492,6.85-.624c0,0,13.251,10.947,25.9,21.2l1.5,1.213a12.283,12.283,0,0,0,8.094,3.113c4.359-.623,6.849-4.981,6.849-4.981a5.008,5.008,0,0,1,6.829-1.879l.02.011a4.422,4.422,0,0,1,1.346,1.033A21.259,21.259,0,0,0,231.949,155.677Z" transform="translate(-7.5 -8)"/><path class="cls-3" d="M224.576,176.013a4.422,4.422,0,0,0-1.346-1.033l-.02-.011a5.008,5.008,0,0,0-6.829,1.879s-2.49,4.358-6.849,4.981a12.283,12.283,0,0,1-8.094-3.113l-1.5-1.213c-12.647-10.256-25.9-21.2-25.9-21.2-1.868-1.868-4.981-1.245-6.85.624s-1.245,4.981.623,6.849c.624,0,14.322,11.83,28.021,22.416.091.065.182.121.272.185a7.663,7.663,0,0,1-2.763,9.155c-7.471,5.6-11.207,4.981-16.811,0-7.475-6.228-23.039-23.039-23.039-23.039q-.049-.051-.1-.1a4.844,4.844,0,0,0-6.747,6.951c.623.623,16.194,17.435,23.661,23.662a33.152,33.152,0,0,0,4.3,3.233c.609,3.09.323,6.966-1.191,7.975-7.354,6.13-14.706,5-20.873-2.753-3.747-7.755-11.523-14.965-17.727-20.283l-.623-.623c-1.868-1.868-4.981-1.245-6.85.623s-1.244,4.981.624,6.849l.623.623c8.778,7.316,13.041,12.481,15.067,16.13a16.278,16.278,0,0,1,1.2,2.643,9.252,9.252,0,0,1,.544,3.021c0,.622,0,2.49-3.113,4.358-3.594,2.324-9.129.407-15.745-4.056q-1.83-1.234-3.765-2.717c-.747,1.74-1.511,3.632-2.186,5.484-.591,1.624-1.113,3.214-1.488,4.636a56.431,56.431,0,0,0,9.237,5.384A25.245,25.245,0,0,0,138.55,236c3.113,0,6.227-.623,8.1-3.111a16.969,16.969,0,0,0,7.2-7.773,21.05,21.05,0,0,0,10.228,2.789,26.539,26.539,0,0,0,15.566-5.6c4.128-3.441,5.023-8.779,4.894-13.08l.089,0q6.538,0,14.943-5.6a17.707,17.707,0,0,0,6.522-12.723,16.113,16.113,0,0,0,2.819.271,26.991,26.991,0,0,1,3.112-.625c8.094-1.246,12.452-8.717,13.075-9.34.052-.088.1-.179.146-.271A4.44,4.44,0,0,0,224.576,176.013Z" transform="translate(-7.5 -8)"/><path class="cls-3" d="M117.378,236c-1.245-2.491-3.735-3.113-6.226-1.868-8.094,4.981-11.83,3.113-16.812-.623-1.868-1.868,0-7.471,1.245-9.963.623-2.49.623-4.981-1.245-6.226a5.656,5.656,0,0,0-6.226,0c-4.358,3.735-9.339,0-11.83-2.491-4.359-3.736-1.868-9.962-1.868-9.962a4.843,4.843,0,0,0-1.245-4.981,6.048,6.048,0,0,0-5.6-.623c-1.869.623-6.228,3.113-12.454-1.868-4.359-3.113-1.868-6.85-.623-8.718s.622-4.358-.623-6.226c-1.868-1.246-4.358-1.868-6.226-.623-4.981,3.113-6.849,2.491-13.7-4.981-3.113-3.736,2.491-8.717,2.491-8.717,1.868-1.867,1.868-4.981,0-6.226a4.358,4.358,0,0,0-.568-.681,4.441,4.441,0,0,0-6.258.038c-.007.007-.016.012-.024.02-.623,0-6.226,5.6-6.849,12.453a12.673,12.673,0,0,0,3.731,9.341c3.736,4.358,8.717,9.963,16.19,9.963,0,3.736,1.866,8.094,6.226,11.83,4.986,3.736,9.967,5.6,14.949,4.981a16.489,16.489,0,0,0,4.981,11.83c4.359,4.359,9.34,6.85,14.321,6.85-.622,4.359,0,9.34,4.359,12.453,4.981,3.736,9.341,5.6,14.322,5.6,4.358,0,8.094-1.246,13.7-4.36a4.686,4.686,0,0,0,1.692-1.4A4.486,4.486,0,0,0,117.378,236Z" transform="translate(-7.5 -8)"/><path class="cls-3" d="M111.96,39.138a4.473,4.473,0,0,0-.807-.52c-18.058-9.962-41.1,3.736-49.191,8.717l-11.631-6.6q-1.767,1.583-3.477,3.227-1.794,1.728-3.521,3.524L60.094,57.3a3.747,3.747,0,0,0,2.491.623c1.242,0,1.867,0,2.492-1.246,0-.622,25.528-19.3,41.718-9.963.088.052.179.1.27.146a4.445,4.445,0,0,0,5.956-2.014c.052-.088.1-.179.146-.27A4.444,4.444,0,0,0,111.96,39.138Z" transform="translate(-7.5 -8)"/><path class="cls-3" d="M263.822,123.232q-.325-3.177-.8-6.307C231.107,140.4,208.741,141,202.067,135.754c-9.365-6.761-47.386-39.145-60.026-50-2.493-2.141-4-3.449-4.108-3.551-1.246-1.246-3.736-1.246-5.6,0-.623,0-31.133,22.415-40.473,29.264-5.609,4.981-9.345,4.358-14.949-2.491-1.868-2.491,0-6.85,4.981-11.208C87.722,92.909,116.339,72.1,136.9,57.283c5.769-4.157,10.905-7.842,14.725-10.571,18.057-12.453,36.114-4.358,37.982-3.113,7.472,3.736,31.133,20.548,31.133,20.548a4.671,4.671,0,0,0,5.6,0l10.719-7.017c-.969-1.233-1.968-2.442-2.981-3.638q-1.737-2.05-3.556-4.028l-7.295,4.721c-6.849-4.354-23.039-16.19-29.888-19.3-11.828-5.6-31.134-8.094-47.945,3.736-3.889,2.842-9.512,6.912-15.91,11.541C109.254,64.8,81.188,85.1,75.038,90.3c-9.34,8.095-11.835,18.057-6.227,24.907,8.094,10.586,18.057,11.832,28.019,4.36,7.473-5.607,28.643-21.171,36.737-26.775,11.209,9.962,51.682,44.208,61.644,51.68a29.647,29.647,0,0,0,16.19,4.358,55.284,55.284,0,0,0,8.283-.659,73.734,73.734,0,0,0,10.6-2.469c9.894-3.048,21.3-8.531,33.949-17.35C264.128,126.636,264,124.928,263.822,123.232Z" transform="translate(-7.5 -8)"/><path class="cls-2" d="M120.593,223.508c.675-1.852,1.439-3.744,2.186-5.484q.3-.7.593-1.36a55.191,55.191,0,0,1,2.731-5.57v-.623c1.246-.623,4.981-6.849-1.245-13.7-3.736-4.982-9.962-5.6-13.7-4.982-1.867,0-2.491-1.245-2.491-3.113.622-3.112-.623-6.848-4.359-10.584a8.763,8.763,0,0,0-7.476-3.736c-1.869,0-3.115-1.246-2.492-2.491,0-1.868,0-4.981-3.736-8.717-4.359-4.359-8.095-5.6-11.208-5.6-1.245,0-1.868-1.869-1.868-3.114.623-2.49-.622-6.849-6.226-11.83-8.35-7.364-17.472-3.5-23.7.3-1.194.728-2.284,1.452-3.24,2.094-.379.255-.739.5-1.075.722a6.219,6.219,0,0,0-3.113,2.491l-.3.6L38.1,152.344c-2.579,2.475-5.727,5.658-8.5,8.918a4.441,4.441,0,0,1,6.258-.038,4.358,4.358,0,0,1,.568.681c1.868,1.245,1.868,4.359,0,6.226,0,0-5.6,4.981-2.491,8.717,6.849,7.472,8.717,8.094,13.7,4.981,1.868-1.245,4.358-.623,6.226.623,1.245,1.868,1.868,4.358.623,6.226s-3.736,5.6.623,8.718c6.226,4.981,10.585,2.491,12.454,1.868a6.048,6.048,0,0,1,5.6.623,4.843,4.843,0,0,1,1.245,4.981s-2.491,6.226,1.868,9.962c2.491,2.491,7.472,6.226,11.83,2.491a5.656,5.656,0,0,1,6.226,0c1.868,1.245,1.868,3.736,1.245,6.226-1.245,2.492-3.113,8.095-1.245,9.963,4.982,3.736,8.718,5.6,16.812.623,2.491-1.245,4.981-.623,6.226,1.868a4.486,4.486,0,0,1-.176,4.828,83.566,83.566,0,0,0,11.14-7.3,56.431,56.431,0,0,1-9.237-5.384C119.48,226.722,120,225.132,120.593,223.508Z" transform="translate(-7.5 -8)"/></svg>