<svg id="Calque_1" data-name="Calque 1" xmlns="http://www.w3.org/2000/svg" viewBox="0 0 263.087 296.405"><defs><style>.cls-1{fill:#f4d853;}.cls-2{fill:#fff;}.cls-3{fill:#2e57a4;}.cls-4{fill:#010101;}.cls-5,.cls-7{fill:none;}.cls-6{fill:#e97b6a;}.cls-7{stroke:#fff;stroke-linecap:round;stroke-linejoin:round;stroke-width:2px;}</style></defs><path class="cls-1" d="M287.054,300.11C219.61,353.7,211.335,318.23,171.108,428.242c-4.924,13.467-5.305,53.273-1.116,66.217,7.564-5.912,12.869-6.669,12.869-6.669s-2.383-6.011,11.32-11.827,22.045-10.27,23.832-26.953-8.341-24.427,2.979-51.593,40.366-23.837,40.366-23.837l7.261.627a75.476,75.476,0,0,1,95.554,116.585l12.43,19.8a1.005,1.005,0,0,1-.391,1.428l-3.675,1.895c1.2,1.988,4.376,7.269,8.484,14.052a61.533,61.533,0,0,1,15.489.942c3.485.722,5.679,2.217,6.522,4.444.062.165.093.332.138.5A132.732,132.732,0,0,0,430.2,453.37C430.2,379.732,344.706,254.3,287.054,300.11Z" transform="translate(-167.11 -290.299)"/><path class="cls-1" d="M305.267,476.345l9.44,1.4.039-.033a69.473,69.473,0,0,0-9.483-1.4Z" transform="translate(-167.11 -290.299)"/><path class="cls-1" d="M319.009,375.614a60.013,60.013,0,0,0-14.707.4c5.55,4.6,4.528,24.293,4.427,43.494.659-.212-1.7,3.625,2.469,32.943a96.282,96.282,0,0,0,7.148,22.644,7.584,7.584,0,0,1,4.278-1.237q1.87-2.072,4.075-4.143c2.933-2.748,6.936-1.507,8.935-.318a6.628,6.628,0,0,1,3.6-1.614,8.336,8.336,0,0,1,5.692,1.791c1.943-2.555,4.931-5.341,8.69-3.929,2.178.817,3.523,2,4.112,3.612.577,1.582.423,3.566-.492,6.177a59.685,59.685,0,0,0-38.223-99.82Z" transform="translate(-167.11 -290.299)"/><path class="cls-2" d="M237.789,427.786a.992.992,0,0,1,.439-1.1c.191-1.714.447-3.407.751-5.085a24.33,24.33,0,0,0-3.916-3.012,1.006,1.006,0,0,1,1.053-1.714,28.188,28.188,0,0,1,3.309,2.4c.339-1.586.737-3.15,1.174-4.7-.573-.023-1.179-.048-1.841-.077-12.62-.55-10.467,7.7-9.425,10.827.782,2.346,4.68,5.859,8.465,7.961.039-1.695.127-3.379.277-5.046A.981.981,0,0,1,237.789,427.786Z" transform="translate(-167.11 -290.299)"/><path class="cls-2" d="M241.9,459.705c-.641,4.447-3.189,8.828-3.559,10.307-.447,1.788.413,4.815.413,4.815,3.467,9.135.7,18.868,1.9,30.189.019.187.025.355.037.532,12.369,9.468,19.6,7.891,34.519-2.431.768-.531,1.465-1.085,2.128-1.648A75.916,75.916,0,0,1,241.9,459.705Z" transform="translate(-167.11 -290.299)"/><path class="cls-2" d="M275.486,432.85c4.086,1.172,6.157-1.143,6.928-2.343l-10.277-8.136c-1.5,2.794-1.925,5.2-1.216,7.017C271.551,431,273.087,432.165,275.486,432.85Z" transform="translate(-167.11 -290.299)"/><path class="cls-2" d="M304.8,476.276l.466.069,0-.029Z" transform="translate(-167.11 -290.299)"/><path class="cls-2" d="M293.621,408.244c1.119,0,2.027,1.4,2.027,3.128s-.908,3.128-2.027,3.128-2.027-1.4-2.027-3.128S292.5,408.244,293.621,408.244Zm-21.952,11.625a1,1,0,0,1,.8.2l11.854,9.385a1.006,1.006,0,0,1,.3,1.175,7.627,7.627,0,0,1-6.993,4.554,9.828,9.828,0,0,1-2.7-.4c-3.033-.867-5.014-2.436-5.885-4.664-1.028-2.63-.358-6.014,1.939-9.785A1.009,1.009,0,0,1,271.669,419.869Zm-4.114-14.306c1.119,0,2.026,1.4,2.026,3.128s-.907,3.128-2.026,3.128-2.027-1.4-2.027-3.128S266.435,405.563,267.555,405.563Z" transform="translate(-167.11 -290.299)"/><path class="cls-3" d="M314.707,477.748l-9.44-1.4-.466-.069q-.729-.061-1.466-.118c.086.3.174.593.254.9l.276,1.053a51.606,51.606,0,0,0,2.717,8.53A63.821,63.821,0,0,1,314.707,477.748Z" transform="translate(-167.11 -290.299)"/><path class="cls-3" d="M263.877,519.179a1.007,1.007,0,0,1,1.236-.516c1.864.646,3.825,1.4,5.844,2.216.306-2.883,1.406-9.6,5.255-14.406.971-1.213,2.022-2.387,3.039-3.522l.307-.344c-.744-.373-1.49-.742-2.22-1.138-.663.563-1.36,1.117-2.128,1.648-14.914,10.322-22.15,11.9-34.519,2.431.71,10.542-12.219,3.727-28.04,9-16.087,5.363-12.512-8.341-14.3-18.76s-15.491-8-15.491-8-5.3.757-12.869,6.669a133.69,133.69,0,0,0,57.422,72.747C248.958,549.926,263.693,519.563,263.877,519.179Z" transform="translate(-167.11 -290.299)"/><path class="cls-3" d="M285.148,487.729c.524.281,1.056.55,1.59.816.016-.531.015-1.073-.02-1.638a111.914,111.914,0,0,1-.254-11.24c-.694,0-1.348.011-1.971.018A30,30,0,0,1,285.148,487.729Z" transform="translate(-167.11 -290.299)"/><path class="cls-4" d="M305.263,476.316a69.473,69.473,0,0,1,9.483,1.4,23.513,23.513,0,0,1,3.6-2.62,96.282,96.282,0,0,1-7.148-22.644c-5.884-.739-10.135-2.8-12.777-6.059a10.267,10.267,0,0,1-1.315,1.278c-3.176,2.535-5.962,4.564-8.36,6.2a1,1,0,0,1,.984,1.705c-2.812,2.5-6.893,3.711-11.094,4.215v16.035s2.317-.092,5.857-.136c.623-.007,1.277-.014,1.971-.018.2-4.939,1.007-8.682,2.869-10.916a4.3,4.3,0,0,1,4.422-1.484c3.841.853,7.545,5.875,9.58,12.891q.738.055,1.466.118Z" transform="translate(-167.11 -290.299)"/><path class="cls-4" d="M302.915,394.5s.183,1.327.423,3.566a1,1,0,0,1,.506,1.285.967.967,0,0,1-.332.4,182.374,182.374,0,0,1,.9,21.553,26.165,26.165,0,0,1,4.315-1.8c.1-19.2,1.123-38.9-4.427-43.494a59.253,59.253,0,0,0-17.248,5.4C289.131,383.879,295.766,391.29,302.915,394.5Z" transform="translate(-167.11 -290.299)"/><path class="cls-4" d="M198.352,495.788c1.787,10.419-1.788,24.123,14.3,18.76,15.821-5.273,28.75,1.542,28.04-9-.012-.177-.018-.345-.037-.532-1.192-11.321,1.571-21.054-1.9-30.189,0,0-.86-3.027-.413-4.815.37-1.479,2.918-5.86,3.559-10.307a75.147,75.147,0,0,1-4.151-24.644c0-.594.031-1.181.045-1.773-3.785-2.1-7.683-5.615-8.465-7.961-1.042-3.128-3.195-11.377,9.425-10.827.662.029,1.268.054,1.841.077a75.755,75.755,0,0,1,28.02-40.37l-7.261-.627s-29.046-3.329-40.366,23.837-1.192,34.911-2.979,51.593-10.129,21.137-23.832,26.953-11.32,11.827-11.32,11.827S196.564,485.369,198.352,495.788Z" transform="translate(-167.11 -290.299)"/><path class="cls-4" d="M288.131,454.281c-.244.2-2.038,1.375-2.2,1.443-8.587,4.379-24.193,1.273-24.367,1.238a1.005,1.005,0,0,0-.4,1.97,66.328,66.328,0,0,0,12.063,1.16,45.676,45.676,0,0,0,5.417-.306c4.2-.5,8.282-1.715,11.094-4.215a1,1,0,0,0,.084-1.419.855.855,0,0,0-.952-.337,1.255,1.255,0,0,0-.4.22C288.381,454.11,288.218,454.209,288.131,454.281Z" transform="translate(-167.11 -290.299)"/><path class="cls-4" d="M234.733,417.2a1,1,0,0,0,.33,1.383,24.33,24.33,0,0,1,3.916,3.012c.14-.778.282-1.555.446-2.324a28.188,28.188,0,0,0-3.309-2.4A1.007,1.007,0,0,0,234.733,417.2Z" transform="translate(-167.11 -290.299)"/><path class="cls-4" d="M237.789,427.786a.981.981,0,0,0,.286.456c.047-.52.1-1.04.153-1.558A.992.992,0,0,0,237.789,427.786Z" transform="translate(-167.11 -290.299)"/><path class="cls-4" d="M386.23,540.77c-.069-.053-.286-.214-.856-.072-.479.118-.925.213-1.382.316q1.083-.119,2.249-.231S386.234,540.773,386.23,540.77Z" transform="translate(-167.11 -290.299)"/><path class="cls-4" d="M354.292,530.322a4.8,4.8,0,0,1,1.8.457,1,1,0,0,1,.449,1.349.992.992,0,0,1-1.087.52L369.384,560.5a3.664,3.664,0,0,1,1.13-2.78,7.149,7.149,0,0,1,1.533-1.146,9.748,9.748,0,0,1-5.4-3.387,5.318,5.318,0,0,1-.754-5.424c1.139-2.588,3.873-4.285,9.83-5.52-5.736.26-8.258-1.279-9.331-2.92-1.25-1.915-.889-4.5.963-6.92,2.055-2.68,7.561-4.045,13.665-4.443-4.108-6.783-7.288-12.064-8.484-14.052l-21.03,10.843Z" transform="translate(-167.11 -290.299)"/><path class="cls-2" d="M307.827,488.327l-.131.248a7.448,7.448,0,0,0,2.372,2.235,8.1,8.1,0,0,0,2.958.935c.682-4.97,3.3-10.28,7.684-15.658C316.929,477.493,311.186,483.787,307.827,488.327Z" transform="translate(-167.11 -290.299)"/><path class="cls-4" d="M320.71,476.087q.908-1.113,1.914-2.229a7.584,7.584,0,0,0-4.278,1.237,23.513,23.513,0,0,0-3.6,2.62l-.039.033a63.821,63.821,0,0,0-8.125,8.89,12.958,12.958,0,0,0,1.114,1.937l.131-.248C311.186,483.787,316.929,477.493,320.71,476.087Z" transform="translate(-167.11 -290.299)"/><path class="cls-2" d="M334.213,470.918c-1.293-.658-4.059-1.684-6.139.264-7.621,7.137-12.094,14.255-13.03,20.676a28.591,28.591,0,0,0,6.961-1.216c.57-.16,1.142-.359,1.714-.575.934-5.322,6.43-13.3,10.094-18.615C333.943,471.264,334.079,471.092,334.213,470.918Z" transform="translate(-167.11 -290.299)"/><path class="cls-4" d="M328.074,471.182c2.08-1.948,4.846-.922,6.139-.264a10.026,10.026,0,0,1,1.421-1.521c-2-1.189-6-2.43-8.935.318q-2.211,2.07-4.075,4.143-1.008,1.116-1.914,2.229c-4.385,5.378-7,10.688-7.684,15.658a12.812,12.812,0,0,0,2.018.113C315.98,485.437,320.453,478.319,328.074,471.182Z" transform="translate(-167.11 -290.299)"/><path class="cls-2" d="M339.441,469.783a5.783,5.783,0,0,0-3.972,2.81c-3.057,4.434-7.964,11.551-9.449,16.474,5.819-2.914,11.631-8.536,16.711-16.242l.16-.243c.1-.155.226-.347.365-.568s.323-.507.51-.792A6.333,6.333,0,0,0,339.441,469.783Z" transform="translate(-167.11 -290.299)"/><path class="cls-4" d="M339.23,467.783a6.628,6.628,0,0,0-3.6,1.614,10.026,10.026,0,0,0-1.421,1.521c-.134.174-.27.346-.4.534-3.664,5.313-9.16,13.293-10.094,18.615a23.953,23.953,0,0,0,2.3-1c1.485-4.923,6.392-12.04,9.449-16.474a5.783,5.783,0,0,1,3.972-2.81,6.333,6.333,0,0,1,4.325,1.439c.33-.5.715-1.067,1.156-1.648A8.336,8.336,0,0,0,339.23,467.783Z" transform="translate(-167.11 -290.299)"/><path class="cls-4" d="M269.048,430.12c.871,2.228,2.852,3.8,5.885,4.664a9.828,9.828,0,0,0,2.7.4,7.627,7.627,0,0,0,6.993-4.554,1.006,1.006,0,0,0-.3-1.175L272.47,420.07a1.007,1.007,0,0,0-1.483.265C268.69,424.106,268.02,427.49,269.048,430.12Zm3.089-7.749,10.277,8.136c-.771,1.2-2.842,3.515-6.928,2.343-2.4-.685-3.935-1.85-4.565-3.462C270.212,427.575,270.633,425.165,272.137,422.371Z" transform="translate(-167.11 -290.299)"/><path class="cls-4" d="M303.844,399.346a1,1,0,0,0-.506-1.285c-.015-.007-.025-.021-.04-.028-5.067-2.087-9.253-2.162-12.446-.228-4.816,2.918-5.448,9.288-5.476,9.648v17.874a1.006,1.006,0,0,0,2.011,0l0-17.781c.006-.056.575-5.645,4.523-8.028,2.613-1.578,6.19-1.452,10.627.375a1,1,0,0,0,.98-.142A.967.967,0,0,0,303.844,399.346Z" transform="translate(-167.11 -290.299)"/><path class="cls-4" d="M271.981,398.659a1.005,1.005,0,1,0,1.99-.285c-.33-2.31-2.453-3.591-4.121-4.253q-.749.793-1.468,1.613C269.645,396.127,271.746,397.021,271.981,398.659Z" transform="translate(-167.11 -290.299)"/><path class="cls-4" d="M267.555,411.819c1.119,0,2.026-1.4,2.026-3.128s-.907-3.128-2.026-3.128-2.027,1.4-2.027,3.128S266.435,411.819,267.555,411.819Z" transform="translate(-167.11 -290.299)"/><path class="cls-4" d="M293.621,414.5c1.119,0,2.027-1.4,2.027-3.128s-.908-3.128-2.027-3.128-2.027,1.4-2.027,3.128S292.5,414.5,293.621,414.5Z" transform="translate(-167.11 -290.299)"/><path class="cls-2" d="M374.318,510.731l-11.678-18.6a75.535,75.535,0,0,1-24.2,14.117l9.159,18.257Z" transform="translate(-167.11 -290.299)"/><path class="cls-4" d="M374.318,510.731,347.6,524.508l-9.159-18.257q-.934.332-1.88.637a.986.986,0,0,0,.06.217l9.638,19.214a1,1,0,0,0,.587.506,1.031,1.031,0,0,0,.311.049,1,1,0,0,0,.46-.112l3.894-2.008,21.03-10.843,3.675-1.895a1.005,1.005,0,0,0,.391-1.428l-12.43-19.8c-.5.458-1.019.9-1.533,1.342Z" transform="translate(-167.11 -290.299)"/><path class="cls-2" d="M251.538,435.061a61.733,61.733,0,1,1,103.317,45.583c-.235.439-.456.865-.718,1.331-1.89,3.36-6.224,8.737-11.711,15.545-1.826,2.266-3.775,4.687-5.781,7.216a73.511,73.511,0,1,0-55.714-3.684c2.638-3.045,4.918-6.177,5.609-10.351A61.811,61.811,0,0,1,251.538,435.061Z" transform="translate(-167.11 -290.299)"/><path class="cls-4" d="M240.6,414.577c-.437,1.548-.835,3.112-1.174,4.7-.164.769-.306,1.546-.446,2.324-.3,1.678-.56,3.371-.751,5.085-.057.518-.106,1.038-.153,1.558-.15,1.667-.238,3.351-.277,5.046-.014.592-.045,1.179-.045,1.773a75.147,75.147,0,0,0,4.151,24.644,75.916,75.916,0,0,0,35.434,41.764c.73.4,1.476.765,2.22,1.138q.7-.779,1.373-1.555a73.5,73.5,0,1,1,55.714,3.684q-1.1,1.38-2.21,2.8c.711-.208,1.42-.422,2.122-.651q.946-.307,1.88-.637a75.535,75.535,0,0,0,24.2-14.117c.514-.445,1.032-.884,1.533-1.342A75.481,75.481,0,1,0,240.6,414.577Z" transform="translate(-167.11 -290.299)"/><path class="cls-4" d="M375,435.061A61.733,61.733,0,1,0,286.54,490.7a16.256,16.256,0,0,0,.2-2.156c-.534-.266-1.066-.535-1.59-.816a59.637,59.637,0,0,1-16.766-91.995q.72-.82,1.468-1.613a60.019,60.019,0,0,1,17.2-12.7,59.253,59.253,0,0,1,17.248-5.4,59.691,59.691,0,0,1,52.93,99.42,37.981,37.981,0,0,1-2.377,5.21A61.585,61.585,0,0,0,375,435.061Z" transform="translate(-167.11 -290.299)"/><path class="cls-2" d="M352.383,480.989c3.1-5.5,4.193-9.012,3.451-11.044-.38-1.043-1.31-1.81-2.927-2.417-3.144-1.181-5.787,2.15-7.953,5.563-.15.236-.279.441-.39.607l-.154.233c-6.516,9.886-14.279,16.508-21.859,18.648-6.142,1.733-10.426,1.726-13.482-.023-4.119-2.358-5.456-7.469-7.149-13.938l-.276-1.051c-2.024-7.695-5.64-11.741-8.325-12.338a2.319,2.319,0,0,0-2.442.81c-2.819,3.383-2.7,11.968-2.152,20.742.5,8.046-3.808,12.858-7.977,17.512-1,1.115-2.03,2.267-2.966,3.437-3.783,4.729-4.686,11.775-4.88,13.954,12.594,5.306,27.214,13.223,37.363,19,7.062-15.2,20.623-32.046,30.6-44.42C346.289,489.523,350.576,484.2,352.383,480.989Z" transform="translate(-167.11 -290.299)"/><path class="cls-4" d="M336.645,504.736c2.006-2.529,3.955-4.95,5.781-7.216,5.487-6.808,9.821-12.185,11.711-15.545.262-.466.483-.892.718-1.331a37.981,37.981,0,0,0,2.377-5.21c.915-2.611,1.069-4.6.492-6.177-.589-1.614-1.934-2.8-4.112-3.612-3.759-1.412-6.747,1.374-8.69,3.929-.441.581-.826,1.143-1.156,1.648-.187.285-.361.557-.51.792s-.262.413-.365.568l-.16.243c-5.08,7.706-10.892,13.328-16.711,16.242a23.953,23.953,0,0,1-2.3,1c-.572.216-1.144.415-1.714.575a28.591,28.591,0,0,1-6.961,1.216,12.812,12.812,0,0,1-2.018-.113,8.1,8.1,0,0,1-2.958-.935,7.448,7.448,0,0,1-2.372-2.235,12.958,12.958,0,0,1-1.114-1.937,51.606,51.606,0,0,1-2.717-8.53l-.276-1.053c-.08-.3-.168-.6-.254-.9-2.035-7.016-5.739-12.038-9.58-12.891a4.3,4.3,0,0,0-4.422,1.484c-1.862,2.234-2.666,5.977-2.869,10.916a111.914,111.914,0,0,0,.254,11.24c.035.565.036,1.107.02,1.638a16.256,16.256,0,0,1-.2,2.156c-.691,4.174-2.971,7.306-5.609,10.351q-.675.779-1.373,1.555l-.307.344c-1.017,1.135-2.068,2.309-3.039,3.522-3.849,4.811-4.949,11.523-5.255,14.406q.963.39,1.945.8c.194-2.179,1.1-9.225,4.88-13.954.936-1.17,1.968-2.322,2.966-3.437,4.169-4.654,8.48-9.466,7.977-17.512-.548-8.774-.667-17.359,2.152-20.742a2.319,2.319,0,0,1,2.442-.81c2.685.6,6.3,4.643,8.325,12.338l.276,1.051c1.693,6.469,3.03,11.58,7.149,13.938,3.056,1.749,7.34,1.756,13.482.023,7.58-2.14,15.343-8.762,21.859-18.648l.154-.233c.111-.166.24-.371.39-.607,2.166-3.413,4.809-6.744,7.953-5.563,1.617.607,2.547,1.374,2.927,2.417.742,2.032-.355,5.541-3.451,11.044-1.807,3.214-6.094,8.534-11.523,15.27-9.972,12.374-23.533,29.22-30.6,44.42q.9.511,1.753,1c5.2-11.253,14.093-23.51,22.417-34.141Q335.549,506.116,336.645,504.736Z" transform="translate(-167.11 -290.299)"/><path class="cls-2" d="M401.15,534.056c-.585-1.539-2.284-2.61-5.048-3.181-9.524-1.972-24.216-1.07-27.149,2.755-1.311,1.71-1.639,3.427-.876,4.6.614.939,3.637,3.752,16.818.518a2.907,2.907,0,0,1,2.548.422,3.19,3.19,0,0,1,1.02,1.413c2.1-.182,4.392-.355,6.883-.521,1.009-.067,1.952-.074,2.866-.057q1.59-1.857,3.112-3.773A4.35,4.35,0,0,0,401.15,534.056Z" transform="translate(-167.11 -290.299)"/><path class="cls-4" d="M396.51,528.905a61.533,61.533,0,0,0-15.489-.942c-6.1.4-11.61,1.763-13.665,4.443-1.852,2.419-2.213,5-.963,6.92,1.073,1.641,3.6,3.18,9.331,2.92,2.261-.469,4.987-.872,8.268-1.232.457-.1.9-.2,1.382-.316.57-.142.787.019.856.072,0,0,.007.01.011.013.718-.069,1.456-.137,2.222-.2a3.19,3.19,0,0,0-1.02-1.413,2.907,2.907,0,0,0-2.548-.422c-13.181,3.234-16.2.421-16.818-.518-.763-1.169-.435-2.886.876-4.6,2.933-3.825,17.625-4.727,27.149-2.755,2.764.571,4.463,1.642,5.048,3.181a4.35,4.35,0,0,1,.174,2.172q.938-1.179,1.846-2.381c-.045-.166-.076-.333-.138-.5C402.189,531.122,400,529.627,396.51,528.905Z" transform="translate(-167.11 -290.299)"/><path class="cls-2" d="M367.734,548.575a3.315,3.315,0,0,0,.526,3.413c1.253,1.683,4.118,3.161,7.841,3.02a48.062,48.062,0,0,1,8.567-1.305,134.086,134.086,0,0,0,11.77-11.673c-.321.013-.625.013-.958.035C376.315,543.342,369.314,544.985,367.734,548.575Z" transform="translate(-167.11 -290.299)"/><path class="cls-4" d="M395.346,540.058c-2.491.166-4.778.339-6.883.521-.766.067-1.5.135-2.222.2q-1.164.114-2.249.231c-3.281.36-6.007.763-8.268,1.232-5.957,1.235-8.691,2.932-9.83,5.52a5.318,5.318,0,0,0,.754,5.424,9.748,9.748,0,0,0,5.4,3.387,16.893,16.893,0,0,1,4.054-1.569c-3.723.141-6.588-1.337-7.841-3.02a3.315,3.315,0,0,1-.526-3.413c1.58-3.59,8.581-5.233,27.746-6.51.333-.022.637-.022.958-.035q.9-1.006,1.774-2.029C397.3,539.984,396.355,539.991,395.346,540.058Z" transform="translate(-167.11 -290.299)"/><path class="cls-2" d="M371.384,560.574a5.9,5.9,0,0,0,1,2.685q4.978-3.428,9.623-7.281c-4.92.581-8.584,1.655-10.057,3.154A1.594,1.594,0,0,0,371.384,560.574Z" transform="translate(-167.11 -290.299)"/><path class="cls-4" d="M372.047,556.577a7.149,7.149,0,0,0-1.533,1.146,3.664,3.664,0,0,0-1.13,2.78,3.514,3.514,0,0,0,.011.369,7.883,7.883,0,0,0,1.326,3.514q.837-.556,1.662-1.127a5.9,5.9,0,0,1-1-2.685,1.594,1.594,0,0,1,.565-1.442c1.473-1.5,5.137-2.573,10.057-3.154q1.347-1.119,2.662-2.275a48.062,48.062,0,0,0-8.567,1.305A16.893,16.893,0,0,0,372.047,556.577Z" transform="translate(-167.11 -290.299)"/><path class="cls-2" d="M369.4,560.872a3.514,3.514,0,0,1-.011-.369l-13.929-27.855a.99.99,0,0,1-.262-.071c-.275-.13-2.833-1.215-4.943,2.3-2.141,3.567,2.592,10.032,6.077,13.269,3.4,3.159,3.864,7.315,4.784,15.6a18.732,18.732,0,0,0,.756,3.466c.229.735.483,1.461.773,2.163,1.232-.7,2.446-1.426,3.652-2.163q2.243-1.371,4.429-2.82A7.883,7.883,0,0,1,369.4,560.872Z" transform="translate(-167.11 -290.299)"/><path class="cls-4" d="M332.03,519.329a1,1,0,0,0-1.928.568c.1.345,8.321,28.625,5.982,47.309a35.257,35.257,0,0,1-1.132,5.621h2.087a38.969,38.969,0,0,0,1.076-5.621C340.426,548.2,332.449,520.749,332.03,519.329Z" transform="translate(-167.11 -290.299)"/><path class="cls-4" d="M361.867,567.206a18.732,18.732,0,0,1-.756-3.466c-.92-8.28-1.382-12.436-4.784-15.6-3.485-3.237-8.218-9.7-6.077-13.269,2.11-3.514,4.668-2.429,4.943-2.3a1.09,1.09,0,0,0,1.349-.449,1,1,0,0,0-.449-1.349,4.8,4.8,0,0,0-1.8-.457c-1.727-.112-4,.582-5.766,3.519-3.734,6.224,6.016,15.39,6.433,15.777,2.854,2.65,3.288,6.559,4.153,14.344a20.355,20.355,0,0,0,.645,3.244,26.945,26.945,0,0,0,1.111,3.153q.891-.488,1.772-.99C362.35,568.667,362.1,567.941,361.867,567.206Z" transform="translate(-167.11 -290.299)"/><path class="cls-5" d="M330.783,518.649a1,1,0,0,0-.681,1.248c.1.345,8.321,28.625,5.982,47.309a35.257,35.257,0,0,1-1.132,5.621h2.087a38.969,38.969,0,0,0,1.076-5.621c2.311-19.006-5.666-46.457-6.085-47.877A1,1,0,0,0,330.783,518.649Z" transform="translate(-167.11 -290.299)"/><path class="cls-3" d="M321.063,549.321c-4.96-3-35.485-21.222-55.769-28.463-2.542,5.116-16.209,31.41-35.988,47.477.913.537,1.843,1.049,2.77,1.566,1.816,1.012,3.649,2,5.516,2.926A132.779,132.779,0,0,0,296.864,586.7c.362,0,.721-.013,1.082-.015,9.514-9.582,19.29-29.065,22.153-34.947C320.469,550.7,320.871,549.853,321.063,549.321Z" transform="translate(-167.11 -290.299)"/><path class="cls-3" d="M360.868,570.359a26.945,26.945,0,0,1-1.111-3.153,20.355,20.355,0,0,1-.645-3.244c-.865-7.785-1.3-11.694-4.153-14.344-.417-.387-10.167-9.553-6.433-15.777,1.761-2.937,4.039-3.631,5.766-3.519l-2.785-5.568-3.894,2.008a1,1,0,0,1-.46.112,1.031,1.031,0,0,1-.311-.049,1,1,0,0,1-.587-.506l-9.638-19.214a.986.986,0,0,1-.06-.217c-.7.229-1.411.443-2.122.651-8.324,10.631-17.22,22.888-22.417,34.141,6.419,3.679,10.664,6.27,10.785,6.345a1,1,0,0,1,.435,1.156c-.012.037-.241.564-.681,1.489,0,0-11.1,23.858-22.236,35.983a132.692,132.692,0,0,0,55.814-13.826Q358.528,571.638,360.868,570.359Zm-22.753-3.153a38.969,38.969,0,0,1-1.076,5.621h-2.087a35.257,35.257,0,0,0,1.132-5.621c2.339-18.684-5.88-46.964-5.982-47.309a1,1,0,0,1,1.928-.568C332.449,520.749,340.426,548.2,338.115,567.206Z" transform="translate(-167.11 -290.299)"/><path class="cls-4" d="M322.8,548.025c-.121-.075-4.366-2.666-10.785-6.345q-.852-.489-1.753-1c-10.149-5.772-24.769-13.689-37.363-19q-.981-.414-1.945-.8c-2.019-.82-3.98-1.57-5.844-2.216a1.007,1.007,0,0,0-1.236.516c-.184.384-14.919,30.747-36.463,48.027.626.383,1.259.756,1.892,1.129,19.779-16.067,33.446-42.361,35.988-47.477,20.284,7.241,50.809,25.467,55.769,28.463-.192.532-.594,1.382-.964,2.42-2.859,5.875-12.615,25.315-22.117,34.909.862-.006,1.664-.016,2.368-.029,11.129-12.134,22.207-35.951,22.207-35.951.44-.925.669-1.452.681-1.489A1,1,0,0,0,322.8,548.025Z" transform="translate(-167.11 -290.299)"/><path class="cls-4" d="M311.2,452.451s-2.572-22.346-2.469-32.943l-4.29.514-.025,1.282s-1.27,21.167-5.993,25.088l1.275,6.059Z" transform="translate(-167.11 -290.299)"/><ellipse class="cls-6" cx="318.869" cy="431.135" rx="26.576" ry="18.308" transform="translate(-374.365 37.162) rotate(-42.366)"/><ellipse class="cls-6" cx="323.258" cy="435.947" rx="26.576" ry="18.308" transform="translate(-376.462 41.377) rotate(-42.366)"/><polygon class="cls-6" points="131.885 158.476 136.512 163.557 172.082 135.451 175.784 127.74 171.448 122.987 146.642 137.586 131.885 158.476"/><path class="cls-7" d="M307.888,450.485s7.808,3.532,21.31-7.269c6.36-5.088,7.9-8.177,7.9-12.081" transform="translate(-167.11 -290.299)"/><path class="cls-7" d="M321.125,419.666c.215,0,8.6,4.713,6.137,6.9-5.026,4.165-10.378-1.3-14.8,1.692-2.917,1.454-2.323,3.377.261,7.586" transform="translate(-167.11 -290.299)"/><line class="cls-7" x1="156.933" y1="128.717" x2="140.663" y2="142.645"/><line class="cls-7" x1="161.359" y1="131.711" x2="143.403" y2="147.07"/></svg>