<svg id="Calque_1" data-name="Calque 1" xmlns="http://www.w3.org/2000/svg" viewBox="0 0 355.007 378.185"><defs><style>.cls-1,.cls-10,.cls-11,.cls-13,.cls-14,.cls-15,.cls-18,.cls-19,.cls-4,.cls-9{fill:none;}.cls-1,.cls-10,.cls-11,.cls-13,.cls-14,.cls-4,.cls-9{stroke:#010101;}.cls-1,.cls-11,.cls-13,.cls-14,.cls-15,.cls-18,.cls-19,.cls-4{stroke-linecap:round;}.cls-1,.cls-11,.cls-13,.cls-14,.cls-15,.cls-18,.cls-4{stroke-linejoin:round;}.cls-1,.cls-19,.cls-9{stroke-width:1.5px;}.cls-2{fill:#e5e5e4;}.cls-3{fill:#efd426;}.cls-5{fill:#010101;}.cls-17,.cls-6{fill:#e85d56;}.cls-7{fill:#105e43;}.cls-8{fill:#518d47;}.cls-10,.cls-17,.cls-19,.cls-9{stroke-miterlimit:10;}.cls-11,.cls-15{stroke-width:2px;}.cls-12{fill:#fff;}.cls-13{stroke-width:0.75px;}.cls-14{stroke-width:0.5px;}.cls-15{stroke:#105e43;}.cls-16{fill:#2e57a4;}.cls-17{stroke:#e85d56;}.cls-18,.cls-19{stroke:#fff;}</style></defs><path class="cls-1" d="M163.217,366.282c-.767,4.983-3.45,5.75-6.133,5.366s-13.416-1.149-15.237-1.533-3.545-.383-3.162-6.133,6.325-88.926,6.325-88.926h44.271l8.433,59.029s-4.216,27.6-4.983,32.2-2.875,4.744-6.9,3.833l-13.085-3.137a3.582,3.582,0,0,1-2.688-4.131l5.137-28-5.175-29.035Z" transform="translate(-16.944 -23.407)"/><polyline class="cls-1" points="149.339 257.973 151.926 259.698 152.788 273.497"/><path class="cls-1" d="M149.9,279.943s-.045,6.075-3.162,10.349" transform="translate(-16.944 -23.407)"/><path class="cls-1" d="M185.544,279.943a29.519,29.519,0,0,0,2.875,10.349" transform="translate(-16.944 -23.407)"/><path class="cls-2" d="M245.139,162.182l.659-7.084a2.822,2.822,0,0,0-1.7-2.857h0a2.824,2.824,0,0,1-1.6-1.8l-1.268-4.31a2.823,2.823,0,0,0-2.632-2.026l-5.332-.144a2.827,2.827,0,0,0-1.552.415l-4.023,2.466a2.824,2.824,0,0,0-1.082,3.6l3.745,8a2.938,2.938,0,0,1,.128.326l1.824,5.622a2.823,2.823,0,0,0,3.288,1.887l7.332-1.6A2.822,2.822,0,0,0,245.139,162.182Z" transform="translate(-16.944 -23.407)"/><path class="cls-3" d="M228.544,210.606s7.288-33.971,4.445-44c0,0,3.363-.59,11.959-2.368,12.886,18.813,13.28,52.294,13.28,52.294" transform="translate(-16.944 -23.407)"/><path class="cls-4" d="M170.2,200.023l-2.421-3.562s-1.3-3.416,2.811-3.591" transform="translate(-16.944 -23.407)"/><path class="cls-4" d="M161.083,195.509s3.051-2.019,3.774,0" transform="translate(-16.944 -23.407)"/><ellipse class="cls-5" cx="163.848" cy="196.914" rx="0.507" ry="0.783" transform="translate(-90.434 77.112) rotate(-28.132)"/><path class="cls-5" d="M170.347,190.329s-7.569,2.165-10.412,2.395-3.768,3.412-1.936,6.493-.775,2.6-.775,2.6-2.564.175-2.161,1.65a21.76,21.76,0,0,0,3.4,7.1.272.272,0,0,1-.391.372c-5.333-4.4-5.769-7.807-6.61-10.54-.935-3.042-2.208-8.748,5.687-12.234C163.484,185.366,168.28,187.183,170.347,190.329Z" transform="translate(-16.944 -23.407)"/><path class="cls-2" d="M96.607,164.379l-.891-5.595a3.119,3.119,0,0,1,1.622-3.247l.643-.341a3.121,3.121,0,0,0,1.534-1.877l1.211-4.117a3.117,3.117,0,0,1,2.908-2.238l5.029-.136a3.117,3.117,0,0,1,1.714.458l3.723,2.282a3.119,3.119,0,0,1,1.2,3.982l-3.625,7.744a3.282,3.282,0,0,0-.142.36l-1.684,5.194a3.121,3.121,0,0,1-3.8,2.044l-7.188-2A3.118,3.118,0,0,1,96.607,164.379Z" transform="translate(-16.944 -23.407)"/><path class="cls-5" d="M112.81,214.136s-7.287-33.971-4.444-44c0,0-3.363-.59-11.959-2.368-12.886,18.813-13.28,52.294-13.28,52.294" transform="translate(-16.944 -23.407)"/><path class="cls-2" d="M210.771,170.057l-1.354-6.888-4.459-9.678-9.095,2.429-3.264,4.62,1.191,3.055-2.564,4.432s-.721,4.316.165,4.828,7.859,3.6,7.859,3.6l8.449-2.305Z" transform="translate(-16.944 -23.407)"/><path class="cls-6" d="M180.206,214.67c17.752,2.562,24.233-8.219,24.416-16.239.365-16.086-4.21-18.328-5.372-21.973,0,0,7.454-2.7,11.521-6.4,0,0,14.522,20.046,10.455,42.125-3.729,20.238-16.983,29.589-26.534,32.908a4.588,4.588,0,0,0-3.053,3.517l-1.917,26.282a30.293,30.293,0,0,1-19.237,4.126c-10.568-1.366-26.022-4.052-26.022-4.052l-2.67-28.1-.192-28.042a54.339,54.339,0,0,1,11.74-3.809c3.169-1.039,4.635-.195,5.67-3.205a.53.53,0,0,1,.632-.334c3.856.932,10.887.037,12.809-1.22a24.057,24.057,0,0,0,1.515,3.168A55.655,55.655,0,0,1,180.206,214.67Z" transform="translate(-16.944 -23.407)"/><path class="cls-7" d="M92.79,141.656a84.327,84.327,0,0,0,14.362,25.279c-.963-7.518-2.729-16.1-5.919-18.682C99.114,146.537,95.972,144.1,92.79,141.656Z" transform="translate(-16.944 -23.407)"/><path class="cls-8" d="M147.248,173.612c0-2.182,17.536-18.532,6.33-29.261s-2.326-.975-15.545-12.679-12.285-12.86-12.264-18.622-5.123-.886,1.838-7.713a207.061,207.061,0,0,0,14.632-16.581s-1.818-33.162-12.547-29.26-17.6,10.729-19.041,11.7c-1.427.966-12.724,2.016-12.955,2.038a83.87,83.87,0,0,0-4.906,68.418c3.182,2.442,6.324,4.881,8.443,6.6,3.19,2.581,4.956,11.164,5.919,18.682a84.735,84.735,0,0,0,26.592,21.251C139.857,184.711,147.248,179.337,147.248,173.612Z" transform="translate(-16.944 -23.407)"/><path class="cls-8" d="M214.328,49.44c-3.535,2.019-9.088,0-9.088,0-6.563,4.039-16.66,5.844-9.592,9.737s10.6.865,17.164,3.894,11.107,8.077,6.059,9.087-6.563-1.515-10.1,0-8.581,9.592-8.581,13.126,7.572,14.641,13.631,14.641,12.62-.5,14.64,2.523,6.058,11.612,4.544,14.641-5.049,5.554-1.01,12.116,12.621,7.573,14.641,2.02,8.582-16.155,7.067-22.213-.976-12.543.225-12.117a3.845,3.845,0,0,1,1.218.864A84.47,84.47,0,0,0,213.017,39.17c-1.934.2-3.5.7-4.244,1.688C205.745,44.9,217.861,47.42,214.328,49.44Z" transform="translate(-16.944 -23.407)"/><path class="cls-7" d="M255.148,97.759a3.845,3.845,0,0,0-1.218-.864c-1.2-.426-1.739,6.058-.225,12.117s-5.049,16.66-7.067,22.213-10.6,4.544-14.641-2.02-.506-9.087,1.01-12.116-2.525-11.611-4.544-14.641-8.582-2.523-14.64-2.523-13.631-11.108-13.631-14.641,5.048-11.612,8.581-13.126,5.05,1.01,10.1,0,.5-6.059-6.059-9.087-10.1,0-17.164-3.894,3.029-5.7,9.592-9.737c0,0,5.553,2.019,9.088,0s-8.583-4.543-5.555-8.582c.742-.99,2.31-1.49,4.244-1.688A84.228,84.228,0,0,0,193.2,31.279c-1.6-.386-1.593,2.006-1.593,2.006l3.534,5.885a56.766,56.766,0,0,1-8.077,6.231c-3.534,2.019-3.03,6.058-7.573,12.621s-8.078,5.049-12.622-1.515-8.738-2.236-9.552-8.582c-.969-7.572-10.641,0-14.175-1.01s-3.029-3.028-7.068-2.933-5.553.409-12.116,3.943a13.988,13.988,0,0,1-7.623,1.84A84.825,84.825,0,0,0,97.7,73.238c.231-.022,11.528-1.072,12.955-2.038,1.442-.975,8.312-7.8,19.041-11.7s12.547,29.26,12.547,29.26a207.061,207.061,0,0,1-14.632,16.581c-6.961,6.827-1.817,1.951-1.838,7.713s-.954,6.918,12.264,18.622,4.338,1.95,15.545,12.679-6.33,27.079-6.33,29.261c0,5.725-7.391,11.1-13.5,14.574a84.231,84.231,0,0,0,121.4-90.427Z" transform="translate(-16.944 -23.407)"/><path class="cls-8" d="M193.239,31.281a.109.109,0,0,1-.018,0C193.327,31.306,193.35,31.311,193.239,31.281Z" transform="translate(-16.944 -23.407)"/><path class="cls-8" d="M123.96,47.925c6.563-3.534,8.078-3.847,12.116-3.943s3.534,1.924,7.068,2.933,13.206-6.562,14.175,1.01c.814,6.346,5.009,2.02,9.552,8.582s8.078,8.078,12.622,1.515,4.039-10.6,7.573-12.621a56.766,56.766,0,0,0,8.077-6.231l-3.534-5.885s0-2.392,1.593-2.006a84.222,84.222,0,0,0-76.865,18.486A13.988,13.988,0,0,0,123.96,47.925Z" transform="translate(-16.944 -23.407)"/><path class="cls-8" d="M207.259,173.632c-2.535-5.8,4.039-12.116,4.039-17.67s2.524-9.592,9.592-12.621,13.126.5,15.146,3.534,5.048,8.435-1.01,11.033-7.068.578-7.573,4.112.5,5.554-.5,7.573S210.793,181.709,207.259,173.632Z" transform="translate(-16.944 -23.407)"/><path class="cls-8" d="M145.542,127.249c-1.051.558,4.971,5.88,5.048,3.558a28.06,28.06,0,0,1,.884-7.155c.416-1.526-2.591-1.025-4.417.5C145.969,125.068,145.934,127.041,145.542,127.249Z" transform="translate(-16.944 -23.407)"/><path class="cls-2" d="M120.2,55.212c-2.156-.168-7.232.96-7.155-2.594-.079-3.55,5-2.432,7.155-2.594C123.564,49.975,123.566,55.261,120.2,55.212Z" transform="translate(-16.944 -23.407)"/><path class="cls-2" d="M158.38,55.508H130.716c-3.357.049-3.371-5.238,0-5.188H158.38C161.738,50.271,161.751,55.558,158.38,55.508Z" transform="translate(-16.944 -23.407)"/><path class="cls-2" d="M245.36,74.477h-24.9c-7.565.11-7.578-11.785,0-11.673h24.9C252.925,62.693,252.938,74.588,245.36,74.477Z" transform="translate(-16.944 -23.407)"/><path class="cls-2" d="M207.18,74.18h-9.566c-2.837.042-2.841-4.419,0-4.377h9.566C210.016,69.762,210.021,74.222,207.18,74.18Z" transform="translate(-16.944 -23.407)"/><rect class="cls-2" x="152.541" width="41.997" height="4.377" rx="2.189"/><path class="cls-2" d="M237.821,60.372H211.557a2.189,2.189,0,1,1,0-4.378h26.264C240.653,55.953,240.666,60.414,237.821,60.372Z" transform="translate(-16.944 -23.407)"/><path class="cls-2" d="M140.533,47.564H97.654c-6.3.092-6.319-9.82,0-9.727h42.878C146.831,37.744,146.852,47.657,140.533,47.564Z" transform="translate(-16.944 -23.407)"/><line class="cls-9" x1="155.535" y1="348.326" x2="155.802" y2="343.571"/><line class="cls-10" x1="168.948" y1="350.367" x2="168.887" y2="346.708"/><line class="cls-9" x1="141.289" y1="352.412" x2="141.289" y2="348.322"/><line class="cls-9" x1="126.722" y1="352.412" x2="126.722" y2="346.955"/><path class="cls-4" d="M157.56,203.508s3.485-.69,1.747,1.89" transform="translate(-16.944 -23.407)"/><ellipse class="cls-5" cx="169.711" cy="195.314" rx="0.507" ry="0.783" transform="translate(-88.987 79.687) rotate(-28.132)"/><path class="cls-1" d="M171.667,203.464a3.49,3.49,0,0,1-3.614.44" transform="translate(-16.944 -23.407)"/><path class="cls-11" d="M167.344,210.628s8.48-1.012,6.84-9.615" transform="translate(-16.944 -23.407)"/><line class="cls-10" x1="155.038" y1="185.086" x2="155.55" y2="187.646"/><path class="cls-1" d="M213.814,275.94l-8.9,38.669a37.415,37.415,0,0,0-.455,14.481l7.688,46.6s1.333,4.444,5.777,4,14.657-2.712,18.667-3.556c2.815-.592,2.185-4.709,2.185-4.709l-8.455-46.975a11.944,11.944,0,0,1,.033-4.4l7.63-39.038" transform="translate(-16.944 -23.407)"/><path class="cls-1" d="M241.814,283.805l-2.757,39.2a13.646,13.646,0,0,0,.009,2.042l3.748,47.424s.741,3.666-6.222,3.666" transform="translate(-16.944 -23.407)"/><polygon class="cls-1" points="220.981 361.62 220.981 372.064 190.87 372.064 202.648 362.175 220.981 361.62"/><line class="cls-9" x1="219.138" y1="352.844" x2="220.981" y2="361.203"/><line class="cls-9" x1="202.648" y1="362.175" x2="201.351" y2="356.318"/><path class="cls-10" d="M240.936,368.377" transform="translate(-16.944 -23.407)"/><line class="cls-9" x1="223.992" y1="351.97" x2="225.425" y2="360.583"/><polyline class="cls-1" points="221.573 370.953 225.425 370.953 225.425 360.583 220.981 360.583"/><path class="cls-1" d="M220.444,278.805s-2.667,5.037-6.519,6.222" transform="translate(-16.944 -23.407)"/><path class="cls-3" d="M252.789,280.291a2.587,2.587,0,0,1-2.171,2.324,38.811,38.811,0,0,1-12.857-.453c-7.838-1.4-19.145-5.571-30.622-10.292a1.147,1.147,0,0,1-.633-1.475l23.747-61.2,28.247,8.518Z" transform="translate(-16.944 -23.407)"/><polygon class="cls-12" points="230.159 169.153 239.246 162.161 246.067 163.425 251.058 178.013 248.243 186.457 232.185 196.976 220.267 187.273 226.618 183.135 224.54 178.161 230.159 169.153"/><path class="cls-13" d="M262.851,199.715s-3.827-1-2.6,1.259" transform="translate(-16.944 -23.407)"/><path class="cls-13" d="M250.712,207.186s-8.654-4.666-3.41-12.989" transform="translate(-16.944 -23.407)"/><line class="cls-14" x1="224.544" y1="184.037" x2="230.159" y2="180.496"/><path class="cls-5" d="M269.146,192.285a5.15,5.15,0,0,1,4.687,3.308c.778,2.111-.854,4.9-2.305,5.075" transform="translate(-16.944 -23.407)"/><polygon class="cls-3" points="208.711 184.037 221.822 184.037 228.67 186.133 235.662 193.588 236.33 214.532 200.415 196.976 208.711 184.037"/><path class="cls-13" d="M253.275,189.347s1.492-2.074,4.084,1.111" transform="translate(-16.944 -23.407)"/><ellipse class="cls-5" cx="253.275" cy="191.384" rx="0.974" ry="0.605" transform="translate(-76.631 221.187) rotate(-46.725)"/><path class="cls-2" d="M202.251,159.207l2.381-3.255a1.934,1.934,0,0,0-1.191-3.04h0a1.935,1.935,0,0,1-1.563-1.9v-6.545a1.935,1.935,0,0,0-1.07-1.73l-5.391-2.7a1.94,1.94,0,0,0-1.354-.141l-7.7,2.008a1.936,1.936,0,0,0-1.4,2.307l2.168,9.394a1.957,1.957,0,0,1,.036.665l-.888,7.4a1.935,1.935,0,0,0,1.332,2.073l5.073,1.619a1.933,1.933,0,0,0,.752.085l6.668-.57a1.935,1.935,0,0,0,1.769-1.927v-2.6A1.933,1.933,0,0,1,202.251,159.207Z" transform="translate(-16.944 -23.407)"/><path class="cls-13" d="M248.163,193.94l1.326.722s-1.279.969-1.945.611" transform="translate(-16.944 -23.407)"/><path class="cls-1" d="M128.207,278.8l8.9,38.669a37.44,37.44,0,0,1,.454,14.482l-7.687,46.6s-1.334,4.444-5.778,4-14.657-2.712-18.667-3.556c-2.814-.592-2.185-4.709-2.185-4.709l8.455-46.974a11.943,11.943,0,0,0-.033-4.4l-7.63-39.039" transform="translate(-16.944 -23.407)"/><path class="cls-1" d="M100.207,286.668l2.757,39.2a13.646,13.646,0,0,1-.009,2.042l-3.748,47.424S98.466,379,105.429,379" transform="translate(-16.944 -23.407)"/><polygon class="cls-1" points="87.152 364.483 87.152 374.927 117.263 374.927 105.485 365.038 87.152 364.483"/><line class="cls-9" x1="88.995" y1="355.707" x2="87.152" y2="364.066"/><line class="cls-10" x1="105.485" y1="365.038" x2="106.781" y2="359.181"/><path class="cls-10" d="M101.085,371.241" transform="translate(-16.944 -23.407)"/><line class="cls-9" x1="84.141" y1="354.834" x2="82.707" y2="363.446"/><polyline class="cls-1" points="86.559 373.816 82.707 373.816 82.707 363.446 87.152 363.446"/><path class="cls-1" d="M121.577,281.668s2.667,5.037,6.519,6.222" transform="translate(-16.944 -23.407)"/><path class="cls-5" d="M89.232,283.154a2.587,2.587,0,0,0,2.172,2.324,38.811,38.811,0,0,0,12.857-.453c7.837-1.4,19.144-5.571,30.621-10.292a1.147,1.147,0,0,0,.633-1.475l-23.747-61.2-28.247,8.519Z" transform="translate(-16.944 -23.407)"/><polygon class="cls-12" points="77.974 172.016 68.887 165.024 62.066 166.288 57.074 180.876 59.889 189.321 75.947 199.839 87.866 190.136 81.514 185.999 79.889 181.852 77.974 172.016"/><path class="cls-13" d="M79.171,202.578s3.827-1,2.6,1.26" transform="translate(-16.944 -23.407)"/><line class="cls-14" x1="83.588" y1="186.9" x2="77.974" y2="183.359"/><polygon class="cls-5" points="99.421 186.9 86.31 186.9 79.462 188.996 72.47 196.451 71.802 217.395 107.718 199.839 99.421 186.9"/><path class="cls-13" d="M88.746,192.21s-1.491-2.074-4.084,1.111" transform="translate(-16.944 -23.407)"/><ellipse class="cls-5" cx="88.746" cy="194.247" rx="0.605" ry="0.974" transform="translate(-125.968 90.248) rotate(-43.275)"/><path class="cls-13" d="M93.858,196.8l-1.325.722s1.278.969,1.944.611" transform="translate(-16.944 -23.407)"/><path class="cls-2" d="M139.771,162.071l-2.381-3.256a1.934,1.934,0,0,1,1.19-3.04h0a1.935,1.935,0,0,0,1.564-1.9v-6.544a1.936,1.936,0,0,1,1.069-1.731l5.216-2.607a1.931,1.931,0,0,1,1.666-.031l6.254,2.849a1.936,1.936,0,0,1,1.127,1.9l-.661,9.027c0,.041,0,.083,0,.124l-.06,6.876a1.933,1.933,0,0,1-1.645,1.9l-10.738,1.619a1.935,1.935,0,0,1-2.223-1.913v-2.131A1.935,1.935,0,0,0,139.771,162.071Z" transform="translate(-16.944 -23.407)"/><path class="cls-2" d="M168.609,187.135l-4.515-3.488a1.425,1.425,0,0,1-.528-1.388l.47-2.507a1.42,1.42,0,0,1,.821-1.037h0a1.423,1.423,0,0,0,.565-2.147l-3.459-4.67a1.421,1.421,0,0,1-.028-1.654l4.106-5.954a1.424,1.424,0,0,1,1.207-.614l8.218.211a1.423,1.423,0,0,1,1.313.972l2.245,6.734,2.769,9.158a1.421,1.421,0,0,1-.4,1.462l-4.82,4.408a1.423,1.423,0,0,1-.858.369l-6.134.438A1.419,1.419,0,0,1,168.609,187.135Z" transform="translate(-16.944 -23.407)"/><path class="cls-15" d="M31.179,399.991c0-1.805-5.414-16.242-13.235-18.047" transform="translate(-16.944 -23.407)"/><path class="cls-15" d="M34.788,397.384s-.4-6.617,1-10.427" transform="translate(-16.944 -23.407)"/><path class="cls-15" d="M40,400.192s-1.4-7.821-.6-13.034" transform="translate(-16.944 -23.407)"/><path class="cls-15" d="M44.013,400.593s-8.354-9.453-8.222-19.852" transform="translate(-16.944 -23.407)"/><path class="cls-7" d="M288.315,394.667c.592-8.889-17.185-9.482-8.889-21.926,6.314-9.472-10.667-16-5.926-27.26,9.672-22.97,36.741-4.148,62.222-1.777s37.334,6.518,36.148,19.555-14.814,32.593-14.814,32.593Z" transform="translate(-16.944 -23.407)"/><path class="cls-16" d="M95.778,196.926c-1.522-7.419-9.48-10.185-12.31-9.3-3.455,1.075-7.434,4.405-7.434,4.405l-1.85,1.625s-6.321,5.248-3.007,12.826,6.854,7.028,9.893,10.633,3.1,3.964,1.612,7.876,1.85,6.67,1.85,6.67-.251-3.125,2.211-1.462,4.549,5.051,6.588.744,6.037-5.579,3.507-7.537,1.611-4.341-.917-5.413c0,0-1.057-2.377-1.333-2.815s-6.095-.454-7.24-1.394-3.389-10.437-4.221-9.569a4.613,4.613,0,0,1-4.039.926c-.837-.4-2.055-2.039-.951-3.3a17.31,17.31,0,0,1,2.845-2.5c1.106-.982.152-2.745,0-5.648a13.529,13.529,0,0,0-.509-3.756,15.324,15.324,0,0,0,6.034-.655s9.745,6.421,9.894,12.691a9.34,9.34,0,0,1-1.371,4.918l3.429,2.516" transform="translate(-16.944 -23.407)"/><path class="cls-17" d="M172.48,371.733l-.639,10.2,20.985,2.205a1.276,1.276,0,0,0,1.089-2.12l-8.022-8.239Z" transform="translate(-16.944 -23.407)"/><path class="cls-17" d="M158.234,375.82v9.319H136.063a1.47,1.47,0,0,1-1-2.549l8.6-6.77Z" transform="translate(-16.944 -23.407)"/><path class="cls-18" d="M93.8,214.5c5.531-4.659,13.046-3.77,13.046-3.77a16.4,16.4,0,0,0,6.923-.421" transform="translate(-16.944 -23.407)"/><path class="cls-3" d="M221.4,237.94c-17.738-9.948-31.513-16.957-35.645-33.123-4.56-17.84-1.537-43.737,1.531-42.289,5.037,2.377,14.592,2.2,14.592,2.2-.936,11.628,1.2,23.265,4.551,29.47,10.931,15.343,28.75,13.668,28.75,13.668" transform="translate(-16.944 -23.407)"/><path class="cls-5" d="M235.894,199.032s-3.172,5.116-2.227,8.727c4.222-.555,10.722,1.13,10.722,1.13l4.333-2.852s-3.03-3.822-3.1-6.928c.149-6.271,9.894-12.691,9.894-12.691a15.325,15.325,0,0,0,6.034.655,13.525,13.525,0,0,0-.509,3.755c-.151,2.9-1.106,4.667,0,5.648a5.683,5.683,0,0,1,3.128,1.672c1.1,1.257-.4,3.729-1.234,4.125a4.616,4.616,0,0,1-4.039-.926c-.831-.869-3.076,8.629-4.221,9.569s-6.964.956-7.24,1.394-1.333,2.815-1.333,2.815c-2.528,1.072,1.612,3.454-.917,5.413s1.469,3.229,3.508,7.536,4.125.919,6.587-.744,2.211,1.463,2.211,1.463,3.334-2.758,1.851-6.67-1.427-4.27,1.611-7.876,6.58-3.055,9.894-10.633-3.008-12.826-3.008-12.826l-1.849-1.625s-3.893-3.666-7.435-4.405c-2.676-.558-7.717,4.4-12.962,8.728s-8.147,3.273-9.7,5.546" transform="translate(-16.944 -23.407)"/><path class="cls-18" d="M248.224,211.636c-5.531-4.659-13.046-3.771-13.046-3.771a16.378,16.378,0,0,1-6.923-.421" transform="translate(-16.944 -23.407)"/><path class="cls-13" d="M91.309,210.05s8.654-4.666,3.411-12.99" transform="translate(-16.944 -23.407)"/><path class="cls-6" d="M141.793,246.864s13.242,12.746,28.93-9.914,13.944-44.012,11.33-55.341c0,0-8.031,4.986-13.015,5.858,0,0-3.23,26.174-17.192,29.329,0,0-9,1.162-10.6,2.2C140.182,219.684,129.809,224.422,141.793,246.864Z" transform="translate(-16.944 -23.407)"/><path class="cls-5" d="M120.622,240.8c17.738-9.948,31.514-16.957,35.645-33.123,4.56-17.84,1.537-43.737-1.531-42.289-5.037,2.377-14.592,2.2-14.592,2.2.936,11.628-1.2,23.266-4.551,29.47-10.931,15.343-28.749,13.669-28.749,13.669" transform="translate(-16.944 -23.407)"/><path class="cls-19" d="M180.379,217.769s-9.855,40.676-35.115,31.054" transform="translate(-16.944 -23.407)"/></svg>