<svg id="Calque_1" data-name="Calque 1" xmlns="http://www.w3.org/2000/svg" viewBox="0 0 245.59 304.742"><defs><style>.cls-1{fill:#f4d853;}.cls-2{fill:#fff;}.cls-3{fill:#2e57a4;}.cls-4{fill:#010101;}.cls-5{fill:#efd426;}.cls-6{fill:#73bb69;}.cls-7{fill:none;}</style></defs><path class="cls-1" d="M161.867,43.239c17.9,48.694,90.018,58.436,90.018,132.074a133.194,133.194,0,0,1-6.462,41.09c-7.563-5.912-12.868-6.67-12.868-6.67s2.383-6.01-11.32-11.827-22.045-10.27-23.832-26.952,8.341-24.428-2.979-51.594-40.366-23.836-40.366-23.836l-7.261.627A75.475,75.475,0,0,0,51.243,212.736l-12.43,19.8a1,1,0,0,0,.391,1.429l3.675,1.895c-1.2,1.987-4.377,7.269-8.485,14.051a61.539,61.539,0,0,0-15.489.942c-3.484.722-5.678,2.217-6.521,4.444-.062.165-.093.332-.139.5-16.958-22.366,8.476-123.085,1.208-152.431C-15.233-12.465,138.773-19.576,161.867,43.239Z" transform="translate(-6.295 -3.904)"/><path class="cls-1" d="M110.149,198.289l-9.441,1.4-.039-.034a69.5,69.5,0,0,1,9.483-1.4Z" transform="translate(-6.295 -3.904)"/><path class="cls-1" d="M102.145,97.283a60,60,0,0,1,8.968.674c-5.549,4.6-4.527,24.293-4.426,43.494-.66-.212-1.336-.414-2.05-.593-12.869-3.217-15.283-7.239-16.489-12.869s-12.066-8.848-20.511-1.207S66.4,173.611,97,174.676a45.549,45.549,0,0,0,7.222-.281,96.2,96.2,0,0,1-7.149,22.643,7.589,7.589,0,0,0-4.277-1.237q-1.87-2.07-4.075-4.142c-2.934-2.749-6.937-1.507-8.936-.319a6.629,6.629,0,0,0-3.6-1.614,8.338,8.338,0,0,0-5.692,1.791c-1.942-2.554-4.93-5.341-8.69-3.929-2.177.817-3.523,2-4.111,3.612-.577,1.583-.423,3.566.492,6.177A59.684,59.684,0,0,1,102.145,97.283Z" transform="translate(-6.295 -3.904)"/><path class="cls-2" d="M177.627,149.73a.992.992,0,0,0-.44-1.1c-.19-1.714-.447-3.407-.75-5.085a24.33,24.33,0,0,1,3.916-3.012,1.006,1.006,0,0,0-1.053-1.714,28.111,28.111,0,0,0-3.309,2.4c-.339-1.587-.738-3.151-1.175-4.7.573-.023,1.179-.048,1.842-.077,12.62-.55,10.467,7.7,9.424,10.827-.781,2.346-4.68,5.859-8.464,7.962-.039-1.7-.128-3.38-.278-5.047A.984.984,0,0,0,177.627,149.73Z" transform="translate(-6.295 -3.904)"/><path class="cls-2" d="M173.512,181.649c.641,4.446,3.189,8.827,3.559,10.307.447,1.787-.413,4.814-.413,4.814-3.467,9.135-.7,18.869-1.9,30.189-.019.187-.025.356-.037.533-12.369,9.467-19.6,7.89-34.519-2.432-.768-.531-1.465-1.085-2.128-1.648A75.918,75.918,0,0,0,173.512,181.649Z" transform="translate(-6.295 -3.904)"/><path class="cls-2" d="M139.93,154.793c-4.086,1.172-6.157-1.143-6.928-2.343l10.277-8.136c1.5,2.794,1.925,5.205,1.216,7.017C143.864,152.943,142.329,154.108,139.93,154.793Z" transform="translate(-6.295 -3.904)"/><path class="cls-2" d="M127.653,176.132c.128.221.232.4.328.559-.225-.148-.464-.31-.7-.467-.086-.072-.179-.138-.262-.212a1,1,0,0,0-.353-.2c-2.4-1.632-5.183-3.661-8.359-6.2A10.137,10.137,0,0,1,117,168.335a13.1,13.1,0,0,0,1.237-1.806C123.632,169.181,126.362,173.893,127.653,176.132Z" transform="translate(-6.295 -3.904)"/><path class="cls-2" d="M110.615,198.219l-.466.07,0-.03Z" transform="translate(-6.295 -3.904)"/><path class="cls-2" d="M130.268,209.672a59.636,59.636,0,0,0,16.765-91.995c-1.262.393-3.364,1.287-3.6,2.925a1.005,1.005,0,1,1-1.99-.285c.33-2.31,2.453-3.591,4.121-4.253a60.038,60.038,0,0,0-17.2-12.7c-2.077,2.463-8.712,9.874-15.861,13.079,0,0-.183,1.327-.424,3.566.016-.007.025-.021.041-.027,5.067-2.088,9.253-2.162,12.446-.229,4.816,2.918,5.447,9.288,5.476,9.648V147.27a1.006,1.006,0,0,1-2.011,0l0-17.781c0-.056-.574-5.645-4.522-8.028-2.614-1.578-6.19-1.452-10.627.375a.994.994,0,0,1-.98-.142,182.374,182.374,0,0,0-.9,21.553c7.821,4.172,10.223,11.348,8.918,18.525a16.094,16.094,0,0,1-.829,2.947c5.987,2.949,9.025,8.192,10.3,10.408.2.341.418.725.5.831a1,1,0,0,1-.016,1.406.978.978,0,0,1-.478.249l.087.054c8.586,4.379,24.193,1.273,24.367,1.238a1.005,1.005,0,0,1,.4,1.97,66.341,66.341,0,0,1-12.063,1.16,45.886,45.886,0,0,1-5.417-.305v16.035s-2.317-.093-5.857-.137A29.977,29.977,0,0,0,130.268,209.672Zm-6.447-76.357c0,1.728-.907,3.128-2.026,3.128s-2.027-1.4-2.027-3.128.907-3.128,2.027-3.128S123.821,131.588,123.821,133.315Zm20.607,8.963c2.3,3.772,2.968,7.155,1.94,9.785-.871,2.228-2.852,3.8-5.886,4.664a9.821,9.821,0,0,1-2.7.4,7.625,7.625,0,0,1-6.993-4.554,1.006,1.006,0,0,1,.3-1.175l11.854-9.385a1.006,1.006,0,0,1,1.482.265Zm5.46-11.644c0,1.728-.908,3.128-2.027,3.128s-2.027-1.4-2.027-3.128.908-3.128,2.027-3.128S149.888,128.907,149.888,130.634Z" transform="translate(-6.295 -3.904)"/><path class="cls-3" d="M100.708,199.692l9.441-1.4.466-.07c.486-.041.974-.081,1.466-.117-.086.3-.174.592-.255.9l-.275,1.053a51.7,51.7,0,0,1-2.717,8.53A63.79,63.79,0,0,0,100.708,199.692Z" transform="translate(-6.295 -3.904)"/><path class="cls-3" d="M151.539,241.122a1.008,1.008,0,0,0-1.236-.516c-1.864.646-3.826,1.4-5.844,2.216-.306-2.882-1.406-9.594-5.256-14.406-.97-1.213-2.022-2.387-3.038-3.522l-.307-.344c.744-.372,1.49-.742,2.22-1.138.663.563,1.36,1.117,2.128,1.648,14.914,10.322,22.15,11.9,34.519,2.432-.71,10.541,12.219,3.726,28.04,9,16.087,5.362,12.512-8.342,14.3-18.761s15.491-8,15.491-8,5.305.758,12.868,6.67A133.685,133.685,0,0,1,188,289.149C166.458,271.869,151.723,241.506,151.539,241.122Z" transform="translate(-6.295 -3.904)"/><path class="cls-3" d="M130.268,209.672c-.525.281-1.057.55-1.59.816-.016-.531-.016-1.073.02-1.638a111.868,111.868,0,0,0,.253-11.239c.695,0,1.348.01,1.972.017A29.977,29.977,0,0,0,130.268,209.672Z" transform="translate(-6.295 -3.904)"/><path class="cls-4" d="M110.152,198.259a69.5,69.5,0,0,0-9.483,1.4,23.513,23.513,0,0,0-3.6-2.62,96.2,96.2,0,0,0,7.149-22.643c5.883-.74,10.135-2.8,12.777-6.06a10.137,10.137,0,0,0,1.315,1.278c3.176,2.535,5.962,4.564,8.359,6.2a1.005,1.005,0,0,0-.984,1.705c2.813,2.5,6.893,3.711,11.1,4.216v16.035s-2.317-.093-5.857-.137c-.624-.007-1.277-.014-1.972-.017-.2-4.94-1.007-8.683-2.868-10.917a4.3,4.3,0,0,0-4.423-1.484c-3.841.853-7.545,5.876-9.579,12.892-.492.036-.98.076-1.466.117Z" transform="translate(-6.295 -3.904)"/><path class="cls-5" d="M129.4,177.613l.087.054-.1-.051Z" transform="translate(-6.295 -3.904)"/><path class="cls-5" d="M127.284,176.224c.233.157.472.319.7.467.023.039.047.078.069.113Q127.651,176.53,127.284,176.224Z" transform="translate(-6.295 -3.904)"/><path class="cls-4" d="M112.5,116.438s-.183,1.327-.424,3.566a1,1,0,0,0-.506,1.285.969.969,0,0,0,.333.405,182.374,182.374,0,0,0-.9,21.553,26.2,26.2,0,0,0-4.315-1.8c-.1-19.2-1.123-38.9,4.426-43.494a59.25,59.25,0,0,1,17.249,5.4C126.285,105.822,119.65,113.233,112.5,116.438Z" transform="translate(-6.295 -3.904)"/><path class="cls-4" d="M217.064,217.731c-1.787,10.419,1.788,24.123-14.3,18.761-15.821-5.274-28.75,1.541-28.04-9,.012-.177.018-.346.037-.533,1.192-11.32-1.571-21.054,1.9-30.189,0,0,.86-3.027.413-4.814-.37-1.48-2.918-5.861-3.559-10.307A75.158,75.158,0,0,0,177.663,157c0-.594-.031-1.181-.045-1.772,3.784-2.1,7.683-5.616,8.464-7.962,1.043-3.128,3.2-11.377-9.424-10.827-.663.029-1.269.054-1.842.077A75.749,75.749,0,0,0,146.8,96.151l7.261-.627s29.045-3.33,40.366,23.836,1.191,34.911,2.979,51.594,10.128,21.136,23.832,26.952,11.32,11.827,11.32,11.827S218.852,207.312,217.064,217.731Z" transform="translate(-6.295 -3.904)"/><path class="cls-4" d="M127.284,176.224q.367.306.766.58a3.132,3.132,0,0,0,.409.56,1,1,0,0,0,.711.294,1.033,1.033,0,0,0,.219-.042l.1.051c8.586,4.379,24.193,1.273,24.367,1.238a1.005,1.005,0,0,1,.4,1.97,66.341,66.341,0,0,1-12.063,1.16,45.886,45.886,0,0,1-5.417-.305c-4.2-.5-8.282-1.716-11.095-4.216a1.005,1.005,0,0,1,1.337-1.5C127.105,176.086,127.2,176.152,127.284,176.224Z" transform="translate(-6.295 -3.904)"/><path class="cls-4" d="M180.683,139.147a1,1,0,0,1-.33,1.383,24.33,24.33,0,0,0-3.916,3.012c-.14-.778-.282-1.554-.446-2.323a28.111,28.111,0,0,1,3.309-2.4A1.007,1.007,0,0,1,180.683,139.147Z" transform="translate(-6.295 -3.904)"/><path class="cls-4" d="M177.627,149.73a.984.984,0,0,1-.287.455c-.047-.52-.095-1.04-.153-1.558A.992.992,0,0,1,177.627,149.73Z" transform="translate(-6.295 -3.904)"/><path class="cls-4" d="M29.186,262.713c.069-.053.286-.214.855-.072.48.118.925.214,1.382.317-.721-.079-1.472-.156-2.248-.231C29.179,262.723,29.182,262.716,29.186,262.713Z" transform="translate(-6.295 -3.904)"/><path class="cls-4" d="M61.124,252.265a4.8,4.8,0,0,0-1.8.457,1,1,0,0,0-.45,1.349.994.994,0,0,0,1.088.52L46.032,282.446a3.665,3.665,0,0,0-1.13-2.779,7.126,7.126,0,0,0-1.534-1.147,9.747,9.747,0,0,0,5.4-3.387,5.316,5.316,0,0,0,.753-5.424c-1.138-2.588-3.873-4.285-9.829-5.52,5.735.26,8.258-1.279,9.33-2.92,1.25-1.915.89-4.5-.963-6.919-2.054-2.68-7.56-4.045-13.665-4.444,4.108-6.782,7.289-12.064,8.485-14.051L63.908,246.7Z" transform="translate(-6.295 -3.904)"/><path class="cls-2" d="M107.589,210.27l.131.248a7.465,7.465,0,0,1-2.373,2.236,8.108,8.108,0,0,1-2.958.934c-.681-4.97-3.3-10.28-7.683-15.657C98.487,199.437,104.229,205.73,107.589,210.27Z" transform="translate(-6.295 -3.904)"/><path class="cls-4" d="M94.706,198.031q-.908-1.114-1.914-2.23a7.589,7.589,0,0,1,4.277,1.237,23.513,23.513,0,0,1,3.6,2.62l.039.034a63.79,63.79,0,0,1,8.126,8.889,12.859,12.859,0,0,1-1.114,1.937l-.131-.248C104.229,205.73,98.487,199.437,94.706,198.031Z" transform="translate(-6.295 -3.904)"/><path class="cls-2" d="M81.2,192.861c1.293-.658,4.059-1.684,6.139.264,7.621,7.137,12.094,14.255,13.029,20.676a28.584,28.584,0,0,1-6.96-1.215c-.57-.161-1.142-.36-1.715-.576-.933-5.322-6.43-13.3-10.094-18.615C81.472,193.207,81.337,193.035,81.2,192.861Z" transform="translate(-6.295 -3.904)"/><path class="cls-4" d="M87.342,193.125c-2.08-1.948-4.846-.922-6.139-.264a9.981,9.981,0,0,0-1.422-1.521c2-1.188,6-2.43,8.936.319q2.21,2.069,4.075,4.142,1.008,1.116,1.914,2.23c4.385,5.377,7,10.687,7.683,15.657a12.687,12.687,0,0,1-2.018.113C99.436,207.38,94.963,200.262,87.342,193.125Z" transform="translate(-6.295 -3.904)"/><path class="cls-2" d="M75.974,191.726a5.788,5.788,0,0,1,3.973,2.81C83,198.97,87.911,206.087,89.4,211.01c-5.819-2.914-11.631-8.536-16.711-16.242l-.16-.242c-.1-.156-.226-.348-.365-.569s-.324-.507-.51-.792A6.33,6.33,0,0,1,75.974,191.726Z" transform="translate(-6.295 -3.904)"/><path class="cls-4" d="M76.185,189.726a6.629,6.629,0,0,1,3.6,1.614,9.981,9.981,0,0,1,1.422,1.521c.134.174.269.346.4.534,3.664,5.313,9.161,13.293,10.094,18.615a23.689,23.689,0,0,1-2.3-1c-1.485-4.923-6.392-12.04-9.449-16.474a5.788,5.788,0,0,0-3.973-2.81,6.33,6.33,0,0,0-4.324,1.439c-.33-.5-.715-1.067-1.157-1.648A8.338,8.338,0,0,1,76.185,189.726Z" transform="translate(-6.295 -3.904)"/><path class="cls-4" d="M144.428,142.278a1.006,1.006,0,0,0-1.482-.265L131.092,151.4a1.006,1.006,0,0,0-.3,1.175,7.625,7.625,0,0,0,6.993,4.554,9.821,9.821,0,0,0,2.7-.4c3.034-.867,5.015-2.436,5.886-4.664C147.4,149.433,146.725,146.05,144.428,142.278Zm.067,9.053c-.631,1.612-2.166,2.777-4.565,3.462-4.086,1.172-6.157-1.143-6.928-2.343l10.277-8.136C144.782,147.108,145.2,149.519,144.5,151.331Z" transform="translate(-6.295 -3.904)"/><path class="cls-4" d="M111.571,121.289a1,1,0,0,1,.506-1.285c.016-.007.025-.021.041-.027,5.067-2.088,9.253-2.162,12.446-.229,4.816,2.918,5.447,9.288,5.476,9.648V147.27a1.006,1.006,0,0,1-2.011,0l0-17.781c0-.056-.574-5.645-4.522-8.028-2.614-1.578-6.19-1.452-10.627.375a.994.994,0,0,1-.98-.142A.969.969,0,0,1,111.571,121.289Z" transform="translate(-6.295 -3.904)"/><path class="cls-4" d="M143.435,120.6a1.005,1.005,0,1,1-1.99-.285c.33-2.31,2.453-3.591,4.121-4.253q.749.794,1.467,1.613C145.771,118.07,143.669,118.964,143.435,120.6Z" transform="translate(-6.295 -3.904)"/><path class="cls-4" d="M147.861,133.762c-1.119,0-2.027-1.4-2.027-3.128s.908-3.128,2.027-3.128,2.027,1.4,2.027,3.128S148.98,133.762,147.861,133.762Z" transform="translate(-6.295 -3.904)"/><path class="cls-4" d="M121.8,136.443c-1.12,0-2.027-1.4-2.027-3.128s.907-3.128,2.027-3.128,2.026,1.4,2.026,3.128S122.914,136.443,121.8,136.443Z" transform="translate(-6.295 -3.904)"/><path class="cls-2" d="M41.1,232.674l11.677-18.6a75.539,75.539,0,0,0,24.2,14.117L67.82,246.452Z" transform="translate(-6.295 -3.904)"/><path class="cls-4" d="M41.1,232.674,67.82,246.452l9.159-18.258q.933.332,1.879.637a.932.932,0,0,1-.059.217l-9.638,19.214a1.006,1.006,0,0,1-.587.506,1.031,1.031,0,0,1-.311.049,1,1,0,0,1-.461-.112L63.908,246.7,42.879,235.855,39.2,233.96a1,1,0,0,1-.391-1.429l12.43-19.8c.5.458,1.019.9,1.532,1.341Z" transform="translate(-6.295 -3.904)"/><path class="cls-2" d="M163.878,157A61.733,61.733,0,1,0,60.561,202.587c.235.439.456.865.718,1.331,1.89,3.36,6.224,8.737,11.71,15.546,1.826,2.265,3.776,4.686,5.782,7.215A73.511,73.511,0,1,1,134.485,223c-2.638-3.045-4.919-6.176-5.609-10.351A61.81,61.81,0,0,0,163.878,157Z" transform="translate(-6.295 -3.904)"/><path class="cls-4" d="M174.816,136.52c.437,1.548.836,3.112,1.175,4.7.164.769.306,1.545.446,2.323.3,1.678.56,3.371.75,5.085.058.518.106,1.038.153,1.558.15,1.667.239,3.351.278,5.047.014.591.045,1.178.045,1.772a75.158,75.158,0,0,1-4.151,24.645,75.918,75.918,0,0,1-35.434,41.763c-.73.4-1.476.766-2.22,1.138-.464-.518-.924-1.036-1.373-1.555a73.5,73.5,0,1,0-55.714,3.684q1.1,1.381,2.21,2.8c-.712-.208-1.42-.422-2.123-.651q-.945-.306-1.879-.637a75.539,75.539,0,0,1-24.2-14.117c-.513-.445-1.031-.883-1.532-1.341A75.48,75.48,0,1,1,174.816,136.52Z" transform="translate(-6.295 -3.904)"/><path class="cls-4" d="M40.413,157a61.733,61.733,0,1,1,88.463,55.64,16.089,16.089,0,0,1-.2-2.156c.533-.266,1.065-.535,1.59-.816a59.636,59.636,0,0,0,16.765-91.995q-.718-.821-1.467-1.613a60.038,60.038,0,0,0-17.2-12.7,59.25,59.25,0,0,0-17.249-5.4,59.69,59.69,0,0,0-52.929,99.42,37.86,37.86,0,0,0,2.377,5.21A61.581,61.581,0,0,1,40.413,157Z" transform="translate(-6.295 -3.904)"/><path class="cls-2" d="M63.032,202.932c-3.095-5.5-4.192-9.012-3.451-11.044.38-1.042,1.311-1.81,2.928-2.417,3.144-1.181,5.787,2.15,7.953,5.563.149.236.279.441.39.607l.154.234c6.516,9.885,14.279,16.507,21.859,18.647,6.141,1.733,10.425,1.726,13.482-.023,4.119-2.358,5.456-7.469,7.149-13.938l.276-1.051c2.024-7.694,5.64-11.741,8.325-12.338a2.321,2.321,0,0,1,2.442.81c2.818,3.383,2.7,11.968,2.152,20.742-.5,8.046,3.807,12.858,7.976,17.512,1,1.115,2.031,2.267,2.966,3.437,3.784,4.729,4.686,11.775,4.881,13.954-12.594,5.306-27.214,13.223-37.364,19-7.061-15.2-20.623-32.046-30.594-44.42C69.127,211.466,64.84,206.146,63.032,202.932Z" transform="translate(-6.295 -3.904)"/><path class="cls-4" d="M78.771,226.679c-2.006-2.529-3.956-4.95-5.782-7.215-5.486-6.809-9.82-12.186-11.71-15.546-.262-.466-.483-.892-.718-1.331a37.86,37.86,0,0,1-2.377-5.21c-.915-2.611-1.069-4.594-.492-6.177.588-1.614,1.934-2.795,4.111-3.612,3.76-1.412,6.748,1.375,8.69,3.929.442.581.827,1.143,1.157,1.648.186.285.361.557.51.792s.262.413.365.569l.16.242c5.08,7.706,10.892,13.328,16.711,16.242a23.689,23.689,0,0,0,2.3,1c.573.216,1.145.415,1.715.576a28.584,28.584,0,0,0,6.96,1.215,12.687,12.687,0,0,0,2.018-.113,8.108,8.108,0,0,0,2.958-.934,7.465,7.465,0,0,0,2.373-2.236,12.859,12.859,0,0,0,1.114-1.937,51.7,51.7,0,0,0,2.717-8.53l.275-1.053c.081-.3.169-.6.255-.9,2.034-7.016,5.738-12.039,9.579-12.892a4.3,4.3,0,0,1,4.423,1.484c1.861,2.234,2.665,5.977,2.868,10.917a111.868,111.868,0,0,1-.253,11.239c-.036.565-.036,1.107-.02,1.638a16.089,16.089,0,0,0,.2,2.156c.69,4.175,2.971,7.306,5.609,10.351.449.519.909,1.037,1.373,1.555l.307.344c1.016,1.135,2.068,2.309,3.038,3.522,3.85,4.812,4.95,11.524,5.256,14.406q-.964.392-1.945.805c-.2-2.179-1.1-9.225-4.881-13.954-.935-1.17-1.968-2.322-2.966-3.437-4.169-4.654-8.479-9.466-7.976-17.512.548-8.774.666-17.359-2.152-20.742a2.321,2.321,0,0,0-2.442-.81c-2.685.6-6.3,4.644-8.325,12.338l-.276,1.051c-1.693,6.469-3.03,11.58-7.149,13.938-3.057,1.749-7.341,1.756-13.482.023-7.58-2.14-15.343-8.762-21.859-18.647l-.154-.234c-.111-.166-.241-.371-.39-.607-2.166-3.413-4.809-6.744-7.953-5.563-1.617.607-2.548,1.375-2.928,2.417-.741,2.032.356,5.541,3.451,11.044,1.808,3.214,6.095,8.534,11.524,15.27,9.971,12.374,23.533,29.22,30.594,44.42q-.9.513-1.752,1c-5.2-11.253-14.093-23.51-22.417-34.141Q79.867,228.058,78.771,226.679Z" transform="translate(-6.295 -3.904)"/><path class="cls-2" d="M14.266,256c.585-1.538,2.284-2.61,5.048-3.181,9.524-1.972,24.216-1.07,27.149,2.755,1.311,1.71,1.639,3.428.876,4.6-.614.939-3.637,3.753-16.818.518a2.906,2.906,0,0,0-2.548.422,3.18,3.18,0,0,0-1.02,1.414c-2.106-.183-4.392-.356-6.883-.522-1.009-.067-1.952-.074-2.866-.056q-1.59-1.858-3.113-3.774A4.362,4.362,0,0,1,14.266,256Z" transform="translate(-6.295 -3.904)"/><path class="cls-4" d="M18.905,250.848a61.539,61.539,0,0,1,15.489-.942c6.105.4,11.611,1.764,13.665,4.444,1.853,2.418,2.213,5,.963,6.919-1.072,1.641-3.595,3.18-9.33,2.92-2.261-.469-4.987-.872-8.269-1.231-.457-.1-.9-.2-1.382-.317-.569-.142-.786.019-.855.072,0,0-.007.01-.011.014-.718-.07-1.456-.138-2.222-.2a3.18,3.18,0,0,1,1.02-1.414,2.906,2.906,0,0,1,2.548-.422c13.181,3.235,16.2.421,16.818-.518.763-1.168.435-2.886-.876-4.6-2.933-3.825-17.625-4.727-27.149-2.755-2.764.571-4.463,1.643-5.048,3.181a4.362,4.362,0,0,0-.175,2.172q-.936-1.179-1.846-2.381c.046-.166.077-.333.139-.5C13.227,253.065,15.421,251.57,18.905,250.848Z" transform="translate(-6.295 -3.904)"/><path class="cls-2" d="M47.681,270.518a3.317,3.317,0,0,1-.525,3.414c-1.254,1.682-4.119,3.16-7.842,3.019a47.963,47.963,0,0,0-8.567-1.3,134.364,134.364,0,0,1-11.769-11.674c.321.013.625.013.958.035C39.1,265.285,46.1,266.928,47.681,270.518Z" transform="translate(-6.295 -3.904)"/><path class="cls-4" d="M20.07,262c2.491.166,4.777.339,6.883.522.766.066,1.5.134,2.222.2.776.075,1.527.152,2.248.231,3.282.359,6.008.762,8.269,1.231,5.956,1.235,8.691,2.932,9.829,5.52a5.316,5.316,0,0,1-.753,5.424,9.747,9.747,0,0,1-5.4,3.387,16.9,16.9,0,0,0-4.054-1.569c3.723.141,6.588-1.337,7.842-3.019a3.317,3.317,0,0,0,.525-3.414c-1.579-3.59-8.58-5.233-27.745-6.51-.333-.022-.637-.022-.958-.035q-.9-1.005-1.774-2.028C18.118,261.927,19.061,261.934,20.07,262Z" transform="translate(-6.295 -3.904)"/><path class="cls-2" d="M44.032,282.517a5.9,5.9,0,0,1-1,2.685q-4.979-3.428-9.623-7.281c4.92.582,8.584,1.655,10.057,3.155A1.592,1.592,0,0,1,44.032,282.517Z" transform="translate(-6.295 -3.904)"/><path class="cls-4" d="M43.368,278.52a7.126,7.126,0,0,1,1.534,1.147,3.665,3.665,0,0,1,1.13,2.779,3.506,3.506,0,0,1-.011.369,7.881,7.881,0,0,1-1.327,3.515q-.836-.558-1.661-1.128a5.9,5.9,0,0,0,1-2.685,1.592,1.592,0,0,0-.565-1.441c-1.473-1.5-5.137-2.573-10.057-3.155q-1.347-1.119-2.663-2.274a47.963,47.963,0,0,1,8.567,1.3A16.9,16.9,0,0,1,43.368,278.52Z" transform="translate(-6.295 -3.904)"/><path class="cls-6" d="M119.92,161.772a16.094,16.094,0,0,1-.829,2.947,19.831,19.831,0,0,0-4.164-1.512c-9.716-2.331-26.448-10.674-31.5-21.176a1.006,1.006,0,0,0-1.813.872c5.4,11.212,22.457,19.766,32.846,22.26a18.093,18.093,0,0,1,3.775,1.366A13.1,13.1,0,0,1,117,168.335c-2.642,3.263-6.894,5.32-12.777,6.06a45.549,45.549,0,0,1-7.222.281c-30.595-1.065-37.8-40.252-29.359-47.894s19.3-4.424,20.511,1.207,3.62,9.652,16.489,12.869c.714.179,1.39.381,2.05.593a26.2,26.2,0,0,1,4.315,1.8C118.823,147.419,121.225,154.6,119.92,161.772Z" transform="translate(-6.295 -3.904)"/><path class="cls-3" d="M129.17,177.658a1,1,0,0,1-.711-.294,3.132,3.132,0,0,1-.409-.56c-.022-.035-.046-.074-.069-.113-.1-.16-.2-.338-.328-.559-1.291-2.239-4.021-6.951-9.421-9.6a18.093,18.093,0,0,0-3.775-1.366c-10.389-2.494-27.448-11.048-32.846-22.26a1.006,1.006,0,0,1,1.813-.872c5.055,10.5,21.787,18.845,31.5,21.176a19.831,19.831,0,0,1,4.164,1.512c5.987,2.949,9.025,8.192,10.3,10.408.2.341.418.725.5.831a1,1,0,0,1-.016,1.406.978.978,0,0,1-.478.249l-.014,0A1.033,1.033,0,0,1,129.17,177.658Z" transform="translate(-6.295 -3.904)"/><path class="cls-2" d="M46.021,282.815a3.506,3.506,0,0,0,.011-.369l13.929-27.855a.973.973,0,0,0,.261-.071c.275-.13,2.834-1.215,4.944,2.3,2.14,3.567-2.592,10.033-6.078,13.27-3.4,3.158-3.863,7.314-4.783,15.594a18.653,18.653,0,0,1-.757,3.466c-.228.735-.482,1.461-.772,2.163-1.232-.7-2.446-1.426-3.653-2.163-1.494-.914-2.974-1.849-4.429-2.819A7.881,7.881,0,0,0,46.021,282.815Z" transform="translate(-6.295 -3.904)"/><path class="cls-4" d="M83.385,241.272a1.005,1.005,0,0,1,1.929.568c-.1.345-8.321,28.626-5.982,47.309a35.124,35.124,0,0,0,1.132,5.621H78.377a38.969,38.969,0,0,1-1.076-5.621C74.99,270.143,82.966,242.692,83.385,241.272Z" transform="translate(-6.295 -3.904)"/><path class="cls-4" d="M53.548,289.149a18.653,18.653,0,0,0,.757-3.466c.92-8.28,1.381-12.436,4.783-15.594,3.486-3.237,8.218-9.7,6.078-13.27-2.11-3.514-4.669-2.429-4.944-2.3a.973.973,0,0,1-.261.071.994.994,0,0,1-1.088-.52,1,1,0,0,1,.45-1.349,4.8,4.8,0,0,1,1.8-.457c1.727-.112,4,.582,5.766,3.519,3.734,6.224-6.017,15.391-6.433,15.777-2.854,2.65-3.288,6.559-4.153,14.344a20.225,20.225,0,0,1-.646,3.244,26.763,26.763,0,0,1-1.111,3.153q-.889-.488-1.771-.99C53.066,290.61,53.32,289.884,53.548,289.149Z" transform="translate(-6.295 -3.904)"/><path class="cls-7" d="M84.633,240.592a1,1,0,0,1,.681,1.248c-.1.345-8.321,28.626-5.982,47.309a35.124,35.124,0,0,0,1.132,5.621H78.377a38.969,38.969,0,0,1-1.076-5.621c-2.311-19.006,5.665-46.457,6.084-47.877A1,1,0,0,1,84.633,240.592Z" transform="translate(-6.295 -3.904)"/><path class="cls-3" d="M94.353,271.264c4.96-3,35.485-21.222,55.769-28.463,2.542,5.116,16.208,31.41,35.988,47.477-.913.538-1.843,1.049-2.77,1.566-1.817,1.012-3.649,2-5.516,2.926a132.77,132.77,0,0,1-59.272,13.877c-.362,0-.721-.013-1.083-.016-9.513-9.581-19.289-29.064-22.153-34.947C94.947,272.647,94.545,271.8,94.353,271.264Z" transform="translate(-6.295 -3.904)"/><path class="cls-3" d="M59.281,294.77A132.688,132.688,0,0,0,115.094,308.6c-11.138-12.125-22.235-35.983-22.235-35.983-.441-.924-.67-1.451-.681-1.488a1,1,0,0,1,.435-1.157c.121-.074,4.366-2.666,10.785-6.345-5.2-11.253-14.093-23.51-22.417-34.141-.712-.208-1.42-.422-2.123-.651a.932.932,0,0,1-.059.217l-9.638,19.214a1.006,1.006,0,0,1-.587.506,1.031,1.031,0,0,1-.311.049,1,1,0,0,1-.461-.112L63.908,246.7l-2.784,5.568c1.727-.112,4,.582,5.766,3.519,3.734,6.224-6.017,15.391-6.433,15.777-2.854,2.65-3.288,6.559-4.153,14.344a20.225,20.225,0,0,1-.646,3.244,26.763,26.763,0,0,1-1.111,3.153Q56.886,293.584,59.281,294.77Zm24.1-53.5a1.005,1.005,0,0,1,1.929.568c-.1.345-8.321,28.626-5.982,47.309a35.124,35.124,0,0,0,1.132,5.621H78.377a38.969,38.969,0,0,1-1.076-5.621C74.99,270.143,82.966,242.692,83.385,241.272Z" transform="translate(-6.295 -3.904)"/><path class="cls-4" d="M92.613,269.968c.121-.074,4.366-2.666,10.785-6.345q.852-.489,1.752-1c10.15-5.772,24.77-13.689,37.364-19q.981-.414,1.945-.805c2.018-.82,3.98-1.57,5.844-2.216a1.008,1.008,0,0,1,1.236.516c.184.384,14.919,30.747,36.463,48.027-.626.383-1.259.756-1.892,1.129-19.78-16.067-33.446-42.361-35.988-47.477-20.284,7.241-50.809,25.467-55.769,28.463.192.533.594,1.383.963,2.42,2.86,5.875,12.615,25.315,22.117,34.909-.861,0-1.663-.016-2.367-.029-11.129-12.134-22.207-35.951-22.207-35.951-.441-.924-.67-1.451-.681-1.488A1,1,0,0,1,92.613,269.968Z" transform="translate(-6.295 -3.904)"/></svg>