<svg id="Calque_1" data-name="Calque 1" xmlns="http://www.w3.org/2000/svg" viewBox="0 0 428.399 324.296"><defs><style>.cls-1{fill:#fcbf0b;}.cls-2{fill:#e85c55;}.cls-3{fill:#0a3d34;}.cls-4,.cls-5,.cls-9{fill:none;stroke-linecap:round;stroke-linejoin:round;}.cls-4,.cls-9{stroke:#fff;}.cls-4{stroke-width:3px;}.cls-5{stroke:#010101;}.cls-5,.cls-9{stroke-width:2px;}.cls-6{fill:#73bb69;}.cls-7{fill:#fff;}.cls-8{fill:#010101;}</style></defs><path class="cls-1" d="M278.085,226l-12.921,89.009a18.549,18.549,0,0,0,18.356,21.213H388.307L413.2,281.113H342.085L350.973,226" transform="translate(-10.824 -13.817)"/><path class="cls-2" d="M175.005,311.4l-22.252,19.1a3.252,3.252,0,0,0,2.119,5.72h64.546v-24Z" transform="translate(-10.824 -13.817)"/><path class="cls-1" d="M350.973,226l-3.333,22.222L239.2,278l-5.331,31.742L165.2,303.335l6.085-47.979a19.589,19.589,0,0,1,14.377-15.648l76.649-19.928" transform="translate(-10.824 -13.817)"/><path class="cls-2" d="M413.2,281.113l25.687,47.361a2.753,2.753,0,0,1-2.927,4.018l-22.76-4.268-12.08-20.364Z" transform="translate(-10.824 -13.817)"/><polygon class="cls-3" points="164.147 290.43 164.181 297.586 208.594 298.407 208.594 293.518 164.147 290.43"/><path class="cls-4" d="M324.307,235.78s0,15.111,6.222,21.333" transform="translate(-10.824 -13.817)"/><polyline class="cls-4" points="262.816 221.962 265.473 224.499 260.272 260.331"/><path class="cls-4" d="M342.481,278.654s-3.952,14.9-9.285,22.015" transform="translate(-10.824 -13.817)"/><line class="cls-4" x1="228.372" y1="264.185" x2="221.927" y2="264.836"/><polygon class="cls-3" points="402.372 314.407 381.096 314.407 390.292 294.043 402.372 314.407"/><line class="cls-5" x1="48.773" y1="322.407" x2="53.483" y2="257.518"/><path class="cls-5" d="M68.455,266.6s5.579.7,5.037-4.445c-.593-5.63-5.037-3.555-5.037-3.555" transform="translate(-10.824 -13.817)"/><path class="cls-5" d="M63.418,261.261s-19.556-22.222-21.926-24.592,4.444-8.3,10.963,1.185,5.956,15.7,9.5,19.555" transform="translate(-10.824 -13.817)"/><path class="cls-5" d="M73.529,255.632S85.047,242.6,88.9,239.039s7.111,2.074,2.963,5.63-13.926,8-15.7,10.074" transform="translate(-10.824 -13.817)"/><path class="cls-5" d="M72.307,269.854l6.518,14.815s-3.185,2.074-5.3-4.149a54.161,54.161,0,0,1-2.537-9.777" transform="translate(-10.824 -13.817)"/><line class="cls-5" x1="59.038" y1="261.518" x2="61.482" y2="323.296"/><line class="cls-5" x1="92.688" y1="321.659" x2="95.372" y2="284.687"/><path class="cls-5" d="M108.56,295.8s3.178.4,2.869-2.533c-.337-3.207-2.869-2.025-2.869-2.025" transform="translate(-10.824 -13.817)"/><path class="cls-5" d="M105.69,292.765S94.548,280.1,93.2,278.753s2.532-4.727,6.246.675,3.394,8.948,5.411,11.142" transform="translate(-10.824 -13.817)"/><path class="cls-5" d="M111.451,289.557s6.562-7.428,8.757-9.454,4.052,1.182,1.688,3.208-7.934,4.558-8.947,5.74" transform="translate(-10.824 -13.817)"/><path class="cls-5" d="M110.754,297.661l3.714,8.441s-1.815,1.181-3.017-2.364a30.868,30.868,0,0,1-1.446-5.571" transform="translate(-10.824 -13.817)"/><line class="cls-5" x1="98.537" y1="286.966" x2="99.93" y2="322.165"/><path class="cls-6" d="M131.714,304.248s-7.111-10.987-3.556-16.913,5.334-17.185,3.556-18.963-2.963-9.043,5.926-10.151,15.407,6,15.407,10.151-3.461,12.516-1.434,16.628,5.084,7.579,3.852,12.661S136.2,315.923,131.714,304.248Z" transform="translate(-10.824 -13.817)"/><path class="cls-5" d="M141.456,276.466c-1.446,2.573-4.556,20.34-.507,25.51s8.543,29.211,4.987,35.137" transform="translate(-10.824 -13.817)"/><path class="cls-6" d="M129.344,316.99s-8.3-9.094-1.186-18.485,11.26-4.355,16-8.948,1.186-10.225,11.26-15.408,10.685,1.036,14.231-5.926,22.809,4.3,13.474,18.52-8.446,9.3-14.52,11.762-6.667,15.137-9.63,19.878S137.047,328.275,129.344,316.99Z" transform="translate(-10.824 -13.817)"/><path class="cls-5" d="M129.344,336.224s18.37-43.459,39.259-53.037" transform="translate(-10.824 -13.817)"/><path class="cls-6" d="M17.26,300.066s-7.112-10.987-3.556-16.913,5.333-17.185,3.556-18.963-2.963-9.042,5.926-10.151,15.407,6,15.407,10.151-3.462,12.516-1.435,16.629,5.085,7.578,3.852,12.66S21.749,311.741,17.26,300.066Z" transform="translate(-10.824 -13.817)"/><path class="cls-5" d="M27,272.284c-1.445,2.573-4.555,20.341-.507,25.51s8.543,29.211,4.988,35.137" transform="translate(-10.824 -13.817)"/><path class="cls-6" d="M14.889,312.809s-8.3-9.094-1.185-18.486,11.259-4.355,16-8.948,1.185-10.224,11.259-15.408S51.648,271,55.2,264.041s22.809,4.3,13.474,18.52-8.446,9.3-14.521,11.762-6.666,15.138-9.629,19.878S22.593,324.093,14.889,312.809Z" transform="translate(-10.824 -13.817)"/><path class="cls-5" d="M14.889,332.042s18.371-43.459,39.259-53.037" transform="translate(-10.824 -13.817)"/><path class="cls-7" d="M318.575,82.566,306.826,30l-39.984-4.888-12.12,22.138,3.363,19.64L264.8,80.224l6.436,4.3,9.105.439,2.652,4.154s7.714,17.482,8.96,16.3S325.492,90.3,325.492,90.3Z" transform="translate(-10.824 -13.817)"/><path d="M262.307,219.78l13.99-66.7s-14.9-39.141-11.329-39.525l15.37-15.449s28.4-12.666,41.124-14.773c1.21-.2,31.292-3.211,41.289,8.889,18.428,22.306,30.842,64.054,27.037,76.444-5.868,19.112-35.259,31.556-35.259,31.556L350.973,226Z" transform="translate(-10.824 -13.817)"/><path d="M259.932,123.677l-9.017,37.929a15.029,15.029,0,0,1-10.274,10.917c-14.186,4.287-41.233,12-51.6,15.3a5.61,5.61,0,0,0-3.651,7.022l11.8,24.932,69.194-19.461,18.063-73.428-19.484-13.334Z" transform="translate(-10.824 -13.817)"/><path class="cls-5" d="M254.288,40.867s.985,43.45,21.519,44.357c0,0,8.665.112,15.371-3.034" transform="translate(-10.824 -13.817)"/><path class="cls-5" d="M260.11,46.152s9.516-4.839,11.986,4.4a86.238,86.238,0,0,1,1.863,11.734" transform="translate(-10.824 -13.817)"/><path class="cls-5" d="M278.836,44.3s1.419-5.829,13.114-5.274" transform="translate(-10.824 -13.817)"/><path class="cls-8" d="M286.821,54.12c-1.112.128-2.173-1.16-2.37-2.877s.545-3.211,1.657-3.338,2.173,1.16,2.37,2.877S287.932,53.993,286.821,54.12Z" transform="translate(-10.824 -13.817)"/><path class="cls-8" d="M268.855,53.985c.2,1.716-.545,3.211-1.657,3.338s-2.173-1.16-2.369-2.876.545-3.211,1.657-3.339,2.173,1.161,2.369,2.877" transform="translate(-10.824 -13.817)"/><path class="cls-5" d="M281.418,85.224c1.067,1.847,2.37,4.682.946,11.738" transform="translate(-10.824 -13.817)"/><path class="cls-5" d="M273.959,71.78l9.693-6.029s4.013,3.473-1.345,5.584C277.029,73.415,273.959,71.78,273.959,71.78Z" transform="translate(-10.824 -13.817)"/><path class="cls-8" d="M271.27,30.445s-1.944,6.9-17.481,17.45c0,0-5.63-26.561,17.481-32.117,23.905-5.746,31.556,1.778,35.556,14.223,5.683,17.68,9.028,41.015,8.889,42.388-1.547-.22-6.222-28.658-8.889-31.523s-1.316,4.87-1.778,6.023c-.555,1.389-5.778,5.286-8.444-6.023s-4.579-9.088-4.579-9.088S283.979,37.912,271.27,30.445Z" transform="translate(-10.824 -13.817)"/><line class="cls-5" x1="298.038" y1="27.831" x2="307.751" y2="70.871"/><path class="cls-9" d="M362.573,148.669" transform="translate(-10.824 -13.817)"/><path class="cls-2" d="M165.2,197.261,97.534,224.2a3.227,3.227,0,0,1-1.618.2L83.6,222.784a3.234,3.234,0,0,0-3.512,4.173c1.7,5.4,6.911,15.724,12.062,19.5a3.241,3.241,0,0,0,5.042-1.788l3.634-13.683a3.239,3.239,0,0,1,2.105-2.24l38.252-15.186a3.237,3.237,0,0,1,3.925,1.636l9.013,18.226a14.462,14.462,0,0,0,12.137,8.049c7.742.435,19.3-1.559,30.045-13.691,16.1-18.183-6.731-32.722-12.608-36.032a3.219,3.219,0,0,0-2.679-.216Z" transform="translate(-10.824 -13.817)"/><path class="cls-7" d="M313.353,173.5l-10.75-2.24a3.435,3.435,0,0,0-4.021,2.481l-.215.808a3.436,3.436,0,0,1-4.036,2.478h0a3.439,3.439,0,0,0-3.643,1.561l-4.631,7.53a3.437,3.437,0,0,0-.117,3.394l8.244,15.751a3.438,3.438,0,0,0,3.413,1.823l19.119-2.067a3.459,3.459,0,0,0,.927-.234l13.151-5.358a3.437,3.437,0,0,0,2.119-3.557l-2.06-18.763a3.435,3.435,0,0,0-3.3-3.059l-13.625-.478A3.534,3.534,0,0,1,313.353,173.5Z" transform="translate(-10.824 -13.817)"/><path class="cls-7" d="M177.2,203.335c2.222-2.222,12.444-10.666,12.444-10.666s9.333,6.222,10.667,6.666,4.444,14.222,4.444,14.222l-10.667,7.112-5.333-3.556-3.236-5.333L182.381,210l-3.408-3.333Z" transform="translate(-10.824 -13.817)"/><path d="M318.81,83.862l-1.466-8.072C296.01,92.669,282.2,89.706,282.2,89.706a17.581,17.581,0,0,1-1.866,8.4" transform="translate(-10.824 -13.817)"/><path d="M282.2,94.446s-20.786,10.223-22.448,30.25l20.582-16.916Z" transform="translate(-10.824 -13.817)"/><path class="cls-2" d="M181.007,199.928s3.6,19.259,14.263,20.741-18.074,3.555-18.074,3.555L168.6,202Z" transform="translate(-10.824 -13.817)"/><path class="cls-4" d="M346.084,120.224s17.334,32.445,3.556,40" transform="translate(-10.824 -13.817)"/></svg>