<svg id="Calque_1" data-name="Calque 1" xmlns="http://www.w3.org/2000/svg" viewBox="0 0 329.441 737.788"><defs><style>.cls-1,.cls-3,.cls-4,.cls-5{fill:none;}.cls-1,.cls-3{stroke:#000;}.cls-1,.cls-3,.cls-4{stroke-linecap:round;stroke-linejoin:round;}.cls-1,.cls-4{stroke-width:3px;}.cls-2{fill:#fff;}.cls-3,.cls-5{stroke-width:2px;}.cls-4{stroke:#fff;}.cls-5{stroke:#e85c55;stroke-miterlimit:10;}.cls-6{fill:#4f8c46;}</style></defs><g id="Groupe_123" data-name="Groupe 123"><path id="Tracé_909" data-name="Tracé 909" d="M245.16,511.023s39.527,17.347,134.986,0l-.337-10.466s-93.331,14.371-134.09-.224Z" transform="translate(-121.77 -54.72)"/><path id="Tracé_910" data-name="Tracé 910" class="cls-1" d="M245.157,511.023c-3.167,81.032-5.426,204.04-8.145,230.3a4.021,4.021,0,0,0,2.952,4.238c7.7,2.174,29.169,6.709,63.465,2.307a6.672,6.672,0,0,1,3.548.5c7.038,3.115,36.665,14.1,76.877-.646a8.062,8.062,0,0,0,5.281-7.88l-8.992-228.819Z" transform="translate(-121.77 -54.72)"/><path id="Tracé_911" data-name="Tracé 911" class="cls-2" d="M357.945,511.892a59.611,59.611,0,0,0-7.213,10.519c7.8,17.021,12.765,22.827,23.775,27.077,4.326-.777,21.2-11.323,21.2-11.323Z" transform="translate(-121.77 -54.72)"/><path id="Tracé_912" data-name="Tracé 912" d="M319.522,765.818l61.68.351v26.339L297.57,792.2c-4.236-.016-6.439-4.318-3.577-6.985Z" transform="translate(-121.77 -54.72)"/><path id="Tracé_913" data-name="Tracé 913" class="cls-1" d="M299.5,538.164l7.242,3.073V727.129" transform="translate(-121.77 -54.72)"/><path id="Tracé_914" data-name="Tracé 914" class="cls-1" d="M250.886,523.058s1.046,12.275-3.072,21" transform="translate(-121.77 -54.72)"/><path id="Tracé_915" data-name="Tracé 915" d="M389.142,374.84c-3.491,47.114-9.335,125.716-9.335,125.716-93.689,15.5-134.089-.224-134.089-.224l2.1-54.066c-17.169,31.75-46.786,32.774-69.693,8.363-20.265-21.6,5.41-95.421,44.922-126.722,27.868-22.077,53.562-25.477,53.562-25.477s5.92,15.748,19.972,17.283,43.388,4.3,54.923-17.283c0,0,69.8,9.648,90.641,69.326,33.8,96.787-37.126,160.159-46.434,166.407-15.564-4.594-34.222-16.49-37.762-26.272,9.656-22.48,15.845-80.475,14.31-103.519" transform="translate(-121.77 -54.72)"/><path id="Tracé_916" data-name="Tracé 916" d="M260.731,298.759s6.727-12.412,8.262-33.152,1.244-42.364,8.139-47.1c9.125-6.26,25.457-7.1,25.457-7.1l7.5-.647s24.965-2.862,34.695,20.488,1.024,30.007,2.561,44.346,8.706,18.167,20.484,23.166,8.866,12.275,8.866,12.275-10.914-4.19-12.45,4.766,1.536,20.733-12.291,16.125-25.093,1.536-24.068-8.194-1.351-18.1,1.629-25.947a10.479,10.479,0,0,0,.355-4.138c-.384-1.536-3.508-6.712-3.163-11.23s-4.547-18.811-.87-18.811,10.767-5.329,11.779-8.366c.9-2.688,2.726-8.5-8.1-9.306-5.692-.427-7.262,0-7.262,0s-1.537-11.306-8.193-17.2-25.478-11.943-25.478-11.943-6.785,8.614-14.21,11.943c0,0-6.432,35.108,7.1,48.7,7.011,6.41,13.763,7.373,13.763,7.373l-1.694,12.9s-13.827-1.664-33.841,6.948c-1.048-2.563,1.027-5.9,1.027-5.9" transform="translate(-121.77 -54.72)"/><path id="Tracé_917" data-name="Tracé 917" class="cls-3" d="M332.238,248.707s-10.313,6.331-2.724,8.414" transform="translate(-121.77 -54.72)"/><path id="Tracé_918" data-name="Tracé 918" class="cls-3" d="M288.581,255.236v-15.36s-1.152-12.674-14.21-7.3" transform="translate(-121.77 -54.72)"/><path id="Tracé_919" data-name="Tracé 919" class="cls-3" d="M303.221,229.259s-4.224.768-4.608,3.457" transform="translate(-121.77 -54.72)"/><ellipse id="Ellipse_117" data-name="Ellipse 117" cx="177.405" cy="185.124" rx="1.742" ry="2.689"/><ellipse id="Ellipse_118" data-name="Ellipse 118" cx="157.105" cy="187.812" rx="1.742" ry="2.689"/><path id="Tracé_920" data-name="Tracé 920" class="cls-3" d="M286.276,267.171s11.156-1.291,11.906-3.84" transform="translate(-121.77 -54.72)"/><path id="Tracé_921" data-name="Tracé 921" class="cls-3" d="M310.09,283.273s-28.614,9.247-35.908-19.942" transform="translate(-121.77 -54.72)"/><line id="Ligne_100" data-name="Ligne 100" class="cls-3" x1="173.433" y1="229.581" x2="171.774" y2="242.986"/><path id="Tracé_922" data-name="Tracé 922" class="cls-4" d="M203.248,395.186c14.51-14.008,30.477-41.426,30.477-41.426" transform="translate(-121.77 -54.72)"/><path id="Tracé_923" data-name="Tracé 923" class="cls-2" d="M276.326,341.434l-7.95,26.3c-7.927,2.07-21.113.223-35.682-15.025l22.744-42.6L275.709,282.2l8.181,7.389-3.521,10.447,13.9,10.131-7.5,28.424-7.706,2.013" transform="translate(-121.77 -54.72)"/><path id="Tracé_924" data-name="Tracé 924" class="cls-1" d="M379.9,749.1v16.717H320.307v-13.14" transform="translate(-121.77 -54.72)"/><path id="Tracé_925" data-name="Tracé 925" d="M241.44,764.793l61.681.352v26.339l-83.632-.308c-4.236-.016-6.438-4.317-3.577-6.985Z" transform="translate(-121.77 -54.72)"/><path id="Tracé_926" data-name="Tracé 926" class="cls-1" d="M301.821,748.076v16.718H242.227V746.162" transform="translate(-121.77 -54.72)"/><circle id="Ellipse_119" data-name="Ellipse 119" class="cls-5" cx="157.386" cy="188.522" r="8.271"/><circle id="Ellipse_120" data-name="Ellipse 120" class="cls-5" cx="179.147" cy="185.124" r="8.271"/><path id="Tracé_927" data-name="Tracé 927" class="cls-5" d="M287.393,242.532s1.713-3.681,5.512-.665" transform="translate(-121.77 -54.72)"/><path id="Tracé_928" data-name="Tracé 928" class="cls-4" d="M362.781,376.75S383,415.158,365,472.843" transform="translate(-121.77 -54.72)"/><path id="Tracé_929" data-name="Tracé 929" class="cls-1" d="M350.732,522.41s4.349,22.564,23.775,27.557" transform="translate(-121.77 -54.72)"/><path id="Tracé_930" data-name="Tracé 930" d="M316.166,211.035s11.4-8.242,19.972-1.591c5.3,4.113,6.256,10.475,3.584,14.06" transform="translate(-121.77 -54.72)"/><path id="Tracé_931" data-name="Tracé 931" class="cls-6" d="M279.1,139.023a45.233,45.233,0,0,0-1.665-12.182,9.861,9.861,0,0,1-.008-5.31,45.377,45.377,0,0,0-52.612-56.706,14.276,14.276,0,0,1-10.9-2.209,45.389,45.389,0,0,0-68.6,23.044,25.014,25.014,0,0,1-10.887,13.466,26,26,0,0,0-12.451,25.637,33.5,33.5,0,0,1,.152,8.541A45.336,45.336,0,0,0,140.2,175.529h0a45.356,45.356,0,0,0,50.041,34.062,21.247,21.247,0,0,1,7.4.185,25.932,25.932,0,0,0,5.609.608q1.3,0,2.561-.125a10.74,10.74,0,0,1,9.335,3.54,25.911,25.911,0,0,0,19.827,9.2H235a7.278,7.278,0,0,1,3.761,1.05,10.336,10.336,0,0,0,15.669-8.869c0-.245-.019-.487-.036-.728a26.017,26.017,0,0,0,15.492-26.915,54.406,54.406,0,0,1,4.991-29.364A45.133,45.133,0,0,0,279.1,139.023Z" transform="translate(-121.77 -54.72)"/><g id="Groupe_122" data-name="Groupe 122"><path id="Tracé_932" data-name="Tracé 932" class="cls-2" d="M198.886,150.055a1.5,1.5,0,0,1-1.475-1.475c.794-21.56,19.291-23.376,19.291-33.816,0-6.808-4.539-10.553-11.007-10.666-7.6-.113-11.12,3.972-11.688,11.8a1.5,1.5,0,0,1-1.475,1.475H179.256a1.339,1.339,0,0,1-1.368-1.31,1.517,1.517,0,0,1,.006-.165c1.135-15.2,11.12-23.262,28.709-23.262,15.433,0,27.121,8.057,27.121,22.467,0,17.362-18.156,16.907-19.178,33.475a1.5,1.5,0,0,1-1.475,1.475Zm-.113,23.035a1.5,1.5,0,0,1-1.475-1.475v-13.39a1.5,1.5,0,0,1,1.475-1.475h14.3a1.5,1.5,0,0,1,1.475,1.475v13.39a1.5,1.5,0,0,1-1.475,1.475Z" transform="translate(-121.77 -54.72)"/></g></g></svg>