<svg id="Calque_1" data-name="Calque 1" xmlns="http://www.w3.org/2000/svg" viewBox="0 0 444.434 494"><defs><style>.cls-1{fill:#2e57a4;}.cls-2{fill:#e97b6a;}.cls-3{fill:#efd426;}.cls-4{fill:#fff;}.cls-5{fill:#f7b69b;}.cls-6{fill:#020203;}.cls-7{fill:#33a8e0;}</style></defs><path class="cls-1" d="M337.3,577.2c.6-31.1,3-57.8,3-57.8s-40,15.1-57.8-30.2L276,503.6a6.9,6.9,0,0,1,.4,1c.1.2.2.3.3.5a1.7,1.7,0,0,1,0,1,2.722,2.722,0,0,1-.7,2l-.1.1s-1.6,2.4-4.2,6a25.5,25.5,0,0,0-1.4,2.4l-25.8,46.6c-3.3,10.7-11.6,44.9-13.5,56.6a18.457,18.457,0,0,1-.4,2.3,1.6,1.6,0,0,1-1.5,1.3h-.2a1.553,1.553,0,0,1-1.3-1.7c.1-1,.3-2,.5-3l4.1-5.8-1.1-9c6.8-29.3,18.7-55.6,28.2-73.6a104.355,104.355,0,0,1-10.7,11.1c-15.7,13.2-21.7,29.8-36,16s-22.5-23.3-16.7-35.7a81.072,81.072,0,0,0,3.9-11.8c-13.8.9-30.1-1.2-48.8-8.8q-3.3-1.35-6.3-2.7v23.7s-37.3,12.5-51-15.3l-3.1-10.6-2.9-1c-5.4-3-6.7-12.2-.4-31.8,7.1-22-8.3-34.5-8.3-34.5v-.1c-9.7-.1-21.6-.1-31.8,0-.2,4-.3,8-.3,12.1,0,125.2,101.5,226.8,226.8,226.8a225.821,225.821,0,0,0,57.9-7.5c3.1-.8,6.1-1.7,9.1-2.6,1-.3,2.1-.7,3.1-1C337.8,637.4,336.8,605.4,337.3,577.2Z" transform="translate(-46.9 -173.7)"/><path class="cls-2" d="M102.5,291.6Z" transform="translate(-46.9 -173.7)"/><path class="cls-3" d="M275.8,173.7c-68.1,0-131.7,70.3-173.2,117.9h0c-.8.9-1.6,1.9-2.4,2.8L99,295.9a21.965,21.965,0,0,0-1.4,1.8l-2.1,2.7a5.5,5.5,0,0,1-.7.9c-1,1.2-1.9,2.4-2.8,3.7h0A225.716,225.716,0,0,0,47.3,428.6c10.1-.1,22.1-.1,31.8,0-.3-1.1-2.3-10.1,20.2-9.1,26.2,1.1,37.9-40.3,37.9-40.3,13-52.1,54.5-43.3,75.1-53.9s24.4-4.2,50.5,4.1c29.7,9.5,11.3,29.6,14.2,29.6,3,0,14.8,5,15.4,13.2.9,11.6-11,22-11,22h0a22.542,22.542,0,0,1,.6,3.6,22.483,22.483,0,0,1-10.3,41.3c-.1.1-.1.2-.2.3l1-.3s-10,49.1-1.3,57.9a23.29,23.29,0,0,1,5,6.6l6.5-14.4s24.4-53.8,36-68,20-22.2,47.6-12.4,43.1,27.6,46.7,31.1c2.7,2.7,7.1,9.2,5.1,14.1.1,0,.1.1.2.1a1.454,1.454,0,0,1,.1,2.1,14.649,14.649,0,0,1-11.3,5.3H407c-4.6,0-9.3-2.1-13.6-4.9a44.646,44.646,0,0,1-.5,12.2c5.4,2.8,7.1,6.2,7.6,8.5.7,3.3-.5,6.7-3.4,9.9-2.2,2.5-4.4,3.4-6.6,3.4-3.3,0-6.8-2-11.3-4.4a3.508,3.508,0,0,1-.8-.5c-6.4,2.5-11.8,3.8-16.2,3.8a14.729,14.729,0,0,1-7.2-1.6c-.1-.1-.2-.1-.3-.2-3.8,3.2-14.8,13.9-14.1,31.5,0,0-2.4,26.7-3,57.8-.5,28.3.5,60.2,6.3,79.1,7.5-2.5,14.9-5.3,22.1-8.5a228.31,228.31,0,0,0,75.4-54.4,6.034,6.034,0,0,1,.8-.8c.8-.9,1.6-1.7,2.3-2.6a8.635,8.635,0,0,1,1.3-1.4l1.5-1.8c1.2-1.5,2.5-3,3.7-4.5l.2-.2c30.8-38.7-5.7-126.2,17.7-174.2C548.3,244.2,401,173.7,275.8,173.7Zm183.9,330c-8.8,8.1-20.5,9.7-26.1,3.6l-3.5-3.9h0l-.2-.2h0c-5.3-6.1-2.6-17.4,6.1-25.4,8.8-8.1,20.5-9.7,26.1-3.6v.1h0l3.5,3.9C471.2,484.1,468.5,495.6,459.7,503.7Z" transform="translate(-46.9 -173.7)"/><path class="cls-4" d="M175.7,458.5a20.9,20.9,0,0,1-2.5-.1c13.9,4.6,26.3,8,32,10.2l4.3-4.6c-5.2-1-11.9-3-17.5-6.9a1.528,1.528,0,0,1-.4-2c-.8-.5-1.5-.9-2.3-1.4a17.686,17.686,0,0,1-4.4,2.9A22.983,22.983,0,0,1,175.7,458.5Z" transform="translate(-46.9 -173.7)"/><path class="cls-4" d="M197.2,481.6a1.606,1.606,0,0,1-1.1.5,1.284,1.284,0,0,1-1-.4,1.612,1.612,0,0,1-.4-.7l-4.4,4.2-23.4-21.8q-4.65,13.35-14.1,18.3c-2,1-4-1.8-5.9-1.4-.7.7-4.1,1.7-4.9,2.3l2.7,15.3c2,.9,4.1,1.9,6.3,2.7,18.7,7.6,35,9.7,48.8,8.8,3.9-14.6,7.3-34.9,7.9-39.1Z" transform="translate(-46.9 -173.7)"/><path class="cls-5" d="M160.6,469.9l-3.6,4.8A30.056,30.056,0,0,0,160.6,469.9Z" transform="translate(-46.9 -173.7)"/><path class="cls-4" d="M195,479.4l10.2-11c-5.7-2.2-18.2-5.6-32-10.2a22.1,22.1,0,0,1-4.6-1.1,56.092,56.092,0,0,1-1.8,6.2l23.4,21.8,4.4-4.2A1.913,1.913,0,0,1,195,479.4Z" transform="translate(-46.9 -173.7)"/><path class="cls-6" d="M273.6,505.3c.3-.4.4-.6.5-.7a1.344,1.344,0,0,1,1.4-.6,197.819,197.819,0,0,0-23.9-16.4A93.535,93.535,0,0,1,273.6,505.3Z" transform="translate(-46.9 -173.7)"/><path class="cls-6" d="M222.6,463.5c-1.1,0-2.2,0-3.3-.1v.1a1.538,1.538,0,0,1-1.5,1.5h0c-.2,0-2-.1-4.7-.4l-4.9,5.3c4,1.7,20.8,4.7,43.4,17.8a186.912,186.912,0,0,1,23.9,16.4.367.367,0,0,1,.3.1l.3-.6a28.042,28.042,0,0,0-5-6.6c-8.7-8.8,1.3-57.9,1.3-57.9l-1,.3A61,61,0,0,1,222.6,463.5Z" transform="translate(-46.9 -173.7)"/><path class="cls-6" d="M251.5,487.6v.4s-18.4,19.5-51.9,21.5a81.072,81.072,0,0,1-3.9,11.8c-5.8,12.4,2.4,21.8,16.7,35.7s20.4-2.8,36-16a95.364,95.364,0,0,0,10.7-11.1c7-13.3,12.8-22.2,14.4-24.7A91.629,91.629,0,0,0,251.5,487.6Z" transform="translate(-46.9 -173.7)"/><path class="cls-6" d="M251.6,488.1v-.4c-22.6-13-39.4-16.1-43.4-17.8l-.6.6c-.7,4.3-4.1,24.5-7.9,39.1C233.2,507.5,251.6,488.1,251.6,488.1Z" transform="translate(-46.9 -173.7)"/><path class="cls-4" d="M220.5,376.9a13.158,13.158,0,0,1,1.9,7.1,22.6,22.6,0,0,1,12.9,20.4,10.869,10.869,0,0,1-.1,1.8,12.314,12.314,0,0,1,7.5-1.7,10.93,10.93,0,0,1,6.3,3.2,22.563,22.563,0,0,1,20.7-13.6,22.129,22.129,0,0,1,12.2,3.6l-.6-3.6c-11.6.3-43.4-22-43.4-22C234.2,374.4,228,375.9,220.5,376.9Z" transform="translate(-46.9 -173.7)"/><path class="cls-4" d="M188.9,404.2a18.479,18.479,0,0,1,1.4,1.4v-1.2a22.805,22.805,0,0,1,1.1-7,26.368,26.368,0,0,0-6,4.1A17.3,17.3,0,0,1,188.9,404.2Z" transform="translate(-46.9 -173.7)"/><path class="cls-5" d="M215.3,461.8l4.6-4.8-5,4.7A.756.756,0,0,0,215.3,461.8Z" transform="translate(-46.9 -173.7)"/><path class="cls-4" d="M269.7,439.1a22.534,22.534,0,0,1-22.5-22.5,20.471,20.471,0,0,1,.7-5.6,8.091,8.091,0,0,0-5.5-3.5c-3.9-.5-7.5,2.6-7.6,2.6a.367.367,0,0,1-.3.1,22.559,22.559,0,0,1-21.8,16.7h-1a10.419,10.419,0,0,1,2.1,10,9.607,9.607,0,0,1-7.4,6.5,6.15,6.15,0,0,1-1.4.1c-4.3,0-9.9-2.7-10.6-3a1.167,1.167,0,0,1-.6-.6,5.241,5.241,0,0,0-1,1.1,22.884,22.884,0,0,1,.1,4.5,19.341,19.341,0,0,1-.4,2.7,11.326,11.326,0,0,1-3.3,5.5c.8.5,1.5,1,2.3,1.4a.1.1,0,0,1,.1-.1,1.572,1.572,0,0,1,2.1-.4c7.2,5,16.6,6.6,21.2,7.1l5-4.7-4.6,4.8a22.456,22.456,0,0,0,2.5.2,1.52,1.52,0,0,1,1.5,1.4c1.1.1,2.2.1,3.3.1a60.185,60.185,0,0,0,48.7-24.2c.1-.1.1-.2.2-.3A10.869,10.869,0,0,1,269.7,439.1ZM243.1,409h0a1.538,1.538,0,0,1,1.5,1.5c0,5.4,1,13.7,3.3,15.2a3.958,3.958,0,0,1,2,2.8c.3,2-1.3,3.7-3,5.5a10.835,10.835,0,0,0-2.4,3.1,1.561,1.561,0,0,1-1.3.8,1.854,1.854,0,0,1-.7-.2,1.63,1.63,0,0,1-.7-2,17.417,17.417,0,0,1,2.9-3.8c.9-1,2.3-2.4,2.2-3q0-.15-.6-.6c-4.5-2.8-4.7-15.2-4.7-17.7A1.561,1.561,0,0,1,243.1,409Zm12.5,37.8c-3.6,2.7-9.4,3.2-13.5,3.2h-1.9c-1.5-.1-2.5-.2-2.6-.2a1.513,1.513,0,0,1,.4-3c.1,0,11,1.2,15.8-2.4a1.426,1.426,0,0,1,2,.2l.1.1A1.461,1.461,0,0,1,255.6,446.8Z" transform="translate(-46.9 -173.7)"/><path class="cls-7" d="M205.1,394.6l-4.5.3a25.7,25.7,0,0,0-9.2,2.5,23.3,23.3,0,0,0-1.1,7v1.2a23.83,23.83,0,0,1,5.8,12.5,27.705,27.705,0,0,1,14.8,7.8,7.006,7.006,0,0,1,.8,1h1a22.648,22.648,0,0,0,21.8-16.7,1.5,1.5,0,0,1-1.8-.3,1.542,1.542,0,0,1,.1-2.1,17.112,17.112,0,0,1,2.4-1.6c0-.6.1-1.2.1-1.8A22.712,22.712,0,0,0,222.4,384v.4C222.4,393.6,214.4,394,205.1,394.6Z" transform="translate(-46.9 -173.7)"/><path class="cls-7" d="M271.5,439.1a22.483,22.483,0,0,0,10.3-41.3,55.821,55.821,0,0,1-10.3,41.3Z" transform="translate(-46.9 -173.7)"/><path class="cls-7" d="M249,407.7a14.622,14.622,0,0,1,1.6,1.9,1.552,1.552,0,0,1-.3,2.1,1.613,1.613,0,0,1-.9.3,1.425,1.425,0,0,1-1.2-.6,1.38,1.38,0,0,1-.3-.4,20.972,20.972,0,0,0-.7,5.6,22.534,22.534,0,0,0,22.5,22.5,12.1,12.1,0,0,0,1.9-.1,56.07,56.07,0,0,0,10.3-41.4,22.129,22.129,0,0,0-12.2-3.6A22.705,22.705,0,0,0,249,407.7Z" transform="translate(-46.9 -173.7)"/><path class="cls-6" d="M247.9,425.6c-2.3-1.4-3.3-9.7-3.3-15.2a1.538,1.538,0,0,0-1.5-1.5h0a1.538,1.538,0,0,0-1.5,1.5c0,2.5.2,14.9,4.7,17.7q.6.45.6.6c.1.6-1.3,2.1-2.2,3a14.771,14.771,0,0,0-2.9,3.8,1.521,1.521,0,0,0,2.7,1.4,20.057,20.057,0,0,1,2.4-3.1c1.7-1.8,3.3-3.5,3-5.5A3.9,3.9,0,0,0,247.9,425.6Z" transform="translate(-46.9 -173.7)"/><path class="cls-6" d="M255.9,444.7h0a1.482,1.482,0,0,0-2.1-.3c-4.8,3.6-15.7,2.4-15.8,2.4a1.513,1.513,0,0,0-.4,3c.1,0,1.1.1,2.6.2h1.9c4.1,0,9.9-.5,13.5-3.2A1.461,1.461,0,0,0,255.9,444.7Z" transform="translate(-46.9 -173.7)"/><path class="cls-6" d="M234.8,410.1s3.6-3.1,7.6-2.6c2.1.2,3.9,1.4,5.5,3.5.3-1.1.7-2.2,1.1-3.3a9.87,9.87,0,0,0-6.3-3.2,13.257,13.257,0,0,0-7.5,1.7,17.633,17.633,0,0,1-.7,4C234.6,410.2,234.7,410.1,234.8,410.1Z" transform="translate(-46.9 -173.7)"/><path class="cls-6" d="M232.7,409.9a1.529,1.529,0,0,0,1.8.3,27.937,27.937,0,0,0,.7-4c-1.4.8-2.3,1.6-2.4,1.6A1.45,1.45,0,0,0,232.7,409.9Z" transform="translate(-46.9 -173.7)"/><path class="cls-6" d="M248.1,411.4a1.563,1.563,0,0,0,1.2.6,1.613,1.613,0,0,0,.9-.3,1.461,1.461,0,0,0,.3-2.1,14.622,14.622,0,0,0-1.6-1.9,18.261,18.261,0,0,0-1.1,3.3C248,411.1,248.1,411.2,248.1,411.4Z" transform="translate(-46.9 -173.7)"/><path class="cls-6" d="M219.3,463.4a1.453,1.453,0,0,0-1.5-1.4,20.945,20.945,0,0,1-2.5-.2h-.4c-4.7-.5-14-2.1-21.2-7.1a1.48,1.48,0,0,0-2.1.4.1.1,0,0,1-.1.1,1.551,1.551,0,0,0,.4,2,47.874,47.874,0,0,0,17.5,6.9l-4.3,4.6-10.2,11a1.4,1.4,0,0,0-.3,1.5,2.506,2.506,0,0,0,.4.7,1.433,1.433,0,0,0,1,.4,1.606,1.606,0,0,0,1.1-.5l10.4-11.2.6-.6,4.9-5.3a33.4,33.4,0,0,0,4.7.4h0a1.473,1.473,0,0,0,1.5-1.5A.31.31,0,0,0,219.3,463.4Z" transform="translate(-46.9 -173.7)"/><path class="cls-6" d="M89.8,428.7c-1.5-.1-3.1-.1-4.5-.2C86.9,428.6,88.4,428.7,89.8,428.7Z" transform="translate(-46.9 -173.7)"/><path class="cls-6" d="M292.2,372.1c-.6-8.2-12.4-13.2-15.4-13.2s15.5-20.1-14.2-29.6c-26.1-8.3-29.9-14.8-50.5-4.1S150,327,137,379.1c0,0-11.7,41.4-37.9,40.3-22.5-1-20.5,8.1-20.2,9.1,2.3,0,4.5.1,6.5.1,1.5,0,3,.1,4.5.2.7,0,1.4.1,2,.1a2.769,2.769,0,0,1,.9.1c9.4.7,19.7,2.5,28.7,6.5q2.25-3.3,4.2-6c12.9-17.7,25.4-34.8,40.1-45.9.9-.7,1.8-1.3,2.7-2,1-.7,2-1.3,3-2a8.544,8.544,0,0,0-2.4.9c9.8-19.1,30.2-32.2,53.7-32.2,28.9,0,53,19.7,58.6,45.8h0C281.2,394.1,293.1,383.7,292.2,372.1Z" transform="translate(-46.9 -173.7)"/><path class="cls-6" d="M87.1,463.1c-6.4,19.6-5,28.8.4,31.8,5-9.6,10.6-20,16.2-30-10.5-16-11.2-30.7-11-36a2.769,2.769,0,0,1-.9-.1c-.7,0-1.3-.1-2-.1-1.4-.1-2.9-.1-4.5-.2-2-.1-4.2-.1-6.5-.1v.1S94.3,441.1,87.1,463.1Z" transform="translate(-46.9 -173.7)"/><path class="cls-6" d="M91.8,428.8c-.6,0-1.3-.1-2-.1A12.75,12.75,0,0,0,91.8,428.8Z" transform="translate(-46.9 -173.7)"/><path class="cls-6" d="M92.6,428.9c-.2,5.3.5,20.1,11,36,6.2-11.1,12.3-21.5,17.6-29.6C112.3,431.4,102,429.6,92.6,428.9Z" transform="translate(-46.9 -173.7)"/><path class="cls-6" d="M222.6,348.3c-23.6,0-44,13.1-53.7,32.2q1.05-.45,2.4-.9a56.219,56.219,0,0,1,24.6-8.6c11.5-1.1,18.8.1,22.8,3.8a9.1,9.1,0,0,1,1.8,2.1c7.5-1,13.7-2.6,17.3-4.8,0,0,31.9,22.3,43.4,22C275.6,367.9,251.5,348.3,222.6,348.3Z" transform="translate(-46.9 -173.7)"/><path class="cls-4" d="M208.7,427.9a17.969,17.969,0,0,0-2-1.9,25.291,25.291,0,0,0-8.4-4.4c-.7-.2-1.3-.4-1.8-.5.1,1.1.1,2.2.1,3.3a1.445,1.445,0,0,1-.2.7,24,24,0,0,1,.4,13.1c2.4,1,6.7,2.6,9.1,2.2a6.7,6.7,0,0,0,5-4.5C211.9,433.3,211.1,430.5,208.7,427.9Z" transform="translate(-46.9 -173.7)"/><path class="cls-4" d="M164.7,388a17.96,17.96,0,0,0,.2,2.2c.3-1.1.7-2.1,1-3.2A6.342,6.342,0,0,1,164.7,388Z" transform="translate(-46.9 -173.7)"/><path class="cls-2" d="M89.9,495.8c0,.2.1.5.1.7l.3-.6C90.2,495.9,90.1,495.8,89.9,495.8Z" transform="translate(-46.9 -173.7)"/><path class="cls-2" d="M182.3,403.2Z" transform="translate(-46.9 -173.7)"/><path class="cls-1" d="M275.7,507.7l.3.3a2.209,2.209,0,0,0,.7-2c0,.1-.1.2-.2.4C276.5,506.4,276.2,506.9,275.7,507.7Z" transform="translate(-46.9 -173.7)"/><path class="cls-1" d="M276.1,504.3l.3.3a4.179,4.179,0,0,0-.4-1l-.3.6C275.9,504.1,276,504.2,276.1,504.3Z" transform="translate(-46.9 -173.7)"/><path class="cls-1" d="M271.6,514.1c2.6-3.6,4.2-6,4.2-6l.1-.1-.3-.3C274.8,508.9,273.4,511.1,271.6,514.1Z" transform="translate(-46.9 -173.7)"/><path class="cls-4" d="M353.9,483.5a5.783,5.783,0,0,0,2.3,1.9c2.7,1.4,8.1,2.1,18.3-1.5C368.5,480.8,362,481.5,353.9,483.5Z" transform="translate(-46.9 -173.7)"/><path class="cls-4" d="M389.7,467.4c1.2-7.9.1-12.2-.3-13.4a81.4,81.4,0,0,1-11-10.6,30.206,30.206,0,0,0-3.7-3.5c4,5.3,6.1,12.8,6.2,22.3C384,464.2,387,466,389.7,467.4Z" transform="translate(-46.9 -173.7)"/><path class="cls-4" d="M361.8,439.1c-5-4.2-11.8-2.8-11.9-2.8a1.634,1.634,0,0,1-.7,0c-.7,1.2-.6,2.8-.5,4.9,0,.7.1,1.4.1,2.1,0,3,1.8,5.1,11.6,8.1a38.348,38.348,0,0,1,7,2.9C367.3,447.2,365.4,442.1,361.8,439.1Z" transform="translate(-46.9 -173.7)"/><path class="cls-4" d="M354.3,487.8a8.836,8.836,0,0,1-3.5-3.5c-1.5.4-3.1.9-4.8,1.3q-3.6,1.05-7.5,2.1c-16.4,4.2-30.7-3.4-31.3-3.7a1.476,1.476,0,0,1,1.4-2.6c.1.1,13.9,7.4,29.1,3.4,2.6-.7,5.1-1.4,7.5-2,2.1-.6,4.2-1.2,6.1-1.7h0c9.4-2.5,17.3-3.6,24.7.3,1.5.8,2.8,1.5,4.1,2.2,7.9,4.4,10.6,5.6,14.2,1.6,1.6-1.7,3.3-4.4,2.7-7.3-.5-2.7-2.9-5.1-7-6.9a112.841,112.841,0,0,1-11.6-6.7c-6.3-4-12.8-8.1-19.1-10-8.9-2.7-13.7-5.3-13.7-11a12.1,12.1,0,0,0-.1-1.9c-.2-3.7-.6-9.3,7.6-9.9,1-.1,2.5-.1,4.5-.1h.3a15.852,15.852,0,0,1,4.3.5c5.9.9,13.1,3.4,18.4,9.6,3.4,4,15.3,16.9,25.9,17h.1a11.446,11.446,0,0,0,9-4.3,1.4,1.4,0,0,1,1.9-.2c2-4.9-2.3-11.4-5.1-14.1a118.106,118.106,0,0,0-46.7-31.1c-27.6-9.8-36-1.8-47.6,12.4s-36,68-36,68l57.8,30.2C339.5,501.7,350.5,491,354.3,487.8Z" transform="translate(-46.9 -173.7)"/><path class="cls-4" d="M361.6,434.7c-.5-.1-1-.1-1.5-.2a17.424,17.424,0,0,1,3.6,2.2c4.6,3.8,6.8,10.2,6.7,19.1q3.75,2.1,7.5,4.5c-.4-9.4-3-16.4-7.6-20.9A18.8,18.8,0,0,0,361.6,434.7Z" transform="translate(-46.9 -173.7)"/><path class="cls-4" d="M340.3,519.4l-57.8-30.2C300.3,534.5,340.3,519.4,340.3,519.4Z" transform="translate(-46.9 -173.7)"/><path class="cls-2" d="M361.6,434.7a6.723,6.723,0,0,0-1.8-.3c.1,0,.2.1.3.1A7.719,7.719,0,0,0,361.6,434.7Z" transform="translate(-46.9 -173.7)"/><path class="cls-2" d="M358,431.3h-.3c1.4.1,2.9.2,4.6.4A29.1,29.1,0,0,0,358,431.3Z" transform="translate(-46.9 -173.7)"/><path class="cls-2" d="M351.4,481.1Z" transform="translate(-46.9 -173.7)"/><path class="cls-2" d="M377.5,485.5c.2.1.3.2.5.3.1-.1.3-.1.4-.2A2.769,2.769,0,0,1,377.5,485.5Z" transform="translate(-46.9 -173.7)"/><path class="cls-2" d="M390.8,469.7c.5.1,1,.3,1.4.4,0-.1.1-.1.1-.2.1-.4.1-.8.2-1.1-.2-.1-.3-.2-.5-.2C391.7,469.3,391.4,469.7,390.8,469.7Z" transform="translate(-46.9 -173.7)"/><path class="cls-2" d="M392.5,455.1a8.658,8.658,0,0,0,.1,1.1c.1.1.3.2.4.3-.1-.5-.1-.9-.2-1.3Z" transform="translate(-46.9 -173.7)"/><path class="cls-6" d="M417.9,454c-.1,0-.1-.1-.2-.1a1.513,1.513,0,0,0-1.9.2,11.59,11.59,0,0,1-9,4.3h-.1c-10.6-.1-22.5-13.1-25.9-17-5.4-6.2-12.6-8.7-18.4-9.6a26.022,26.022,0,0,0-4.6-.4,30.064,30.064,0,0,0-4.5.1c-8.1.6-7.8,6.2-7.6,9.9,0,.7.1,1.3.1,1.9,0,5.7,4.8,8.3,13.7,11,6.3,1.9,12.8,6.1,19.1,10a96.978,96.978,0,0,0,11.6,6.7c4,1.9,6.4,4.3,7,6.9.6,2.9-1.1,5.6-2.7,7.3-3.6,4-6.3,2.8-14.2-1.6-1.3-.7-2.6-1.5-4.1-2.2-7.4-3.9-15.3-2.7-24.7-.3h0c-2,.5-4,1.1-6.1,1.7-2.4.7-4.9,1.4-7.5,2-15.2,3.9-29-3.3-29.1-3.4a1.476,1.476,0,0,0-1.4,2.6c.6.3,14.9,7.9,31.3,3.7q3.9-1.05,7.5-2.1c1.7-.5,3.3-.9,4.8-1.3a9.574,9.574,0,0,0,3.5,3.5c.1.1.2.1.3.2a15.937,15.937,0,0,0,7.2,1.6c4.4,0,9.8-1.3,16.2-3.8-.2-.1-.3-.2-.5-.3.3,0,.6.1.9.1-.1.1-.3.1-.4.2a2.177,2.177,0,0,1,.8.5c4.4,2.5,8,4.4,11.3,4.4,2.3,0,4.4-1,6.6-3.4,2.9-3.2,4.1-6.6,3.4-9.9-.5-2.4-2.2-5.7-7.6-8.5-.1.4-.1.7-.2,1.1,0,.1,0,.1-.1.2a5.732,5.732,0,0,0-1.4-.4c.5,0,.9-.4,1.2-1.1.2.1.3.2.5.2a44.714,44.714,0,0,0,.5-12.2c-.1-.1-.3-.2-.4-.3a8.658,8.658,0,0,1-.1-1.1l.3.1c.1.4.1.8.2,1.3,4.3,2.8,9,4.8,13.6,4.9h.1a14.952,14.952,0,0,0,11.3-5.3A1.953,1.953,0,0,0,417.9,454Zm-61.8,31.4a7.732,7.732,0,0,1-2.3-1.9c8.1-2,14.6-2.7,20.6.4C364.2,487.5,358.9,486.8,356.1,485.4Zm2-51.1a2.92,2.92,0,0,1-.9-.2A2.92,2.92,0,0,0,358.1,434.3Zm2.3,17.1c-9.8-3-11.6-5.1-11.6-8.1a14.769,14.769,0,0,0-.1-2.1c-.1-2.1-.2-3.7.5-4.9a.854.854,0,0,0,.7,0c.1,0,6.9-1.4,11.9,2.8,3.6,3,5.4,8.1,5.6,15.2A41.5,41.5,0,0,0,360.4,451.4Zm10,4.4c.1-8.8-2.1-15.3-6.7-19.1a12.47,12.47,0,0,0-3.6-2.2c-.1,0-.2-.1-.3-.1q.75.15,1.8.3a17.792,17.792,0,0,1,8.6,4.6c4.7,4.5,7.2,11.5,7.6,20.9C375.4,458.7,372.9,457.2,370.4,455.8Zm19.3,11.6c-2.7-1.4-5.7-3.3-8.8-5.2-.1-9.5-2.2-17-6.2-22.3a20.274,20.274,0,0,1,3.7,3.5,75.771,75.771,0,0,0,11,10.6C389.8,455.2,390.9,459.5,389.7,467.4Z" transform="translate(-46.9 -173.7)"/><path class="cls-2" d="M439.6,481.6c6.7-6.1,15.1-8.5,21.1-6.6l1.4-.8v-.1c-5.6-6.1-17.2-4.5-26.1,3.6-8.7,8-11.4,19.3-6.1,25.4l1.1-1.5C429.9,495.4,433,487.6,439.6,481.6Z" transform="translate(-46.9 -173.7)"/><path class="cls-2" d="M430.1,503.3Z" transform="translate(-46.9 -173.7)"/><path class="cls-2" d="M456.1,499.7c-6.8,6.2-15.2,8.6-21.3,6.6l-1.2.9c5.6,6.1,17.2,4.5,26.1-3.6s11.5-19.5,6-25.6l-.9,1.8C465.8,486,462.6,493.8,456.1,499.7Z" transform="translate(-46.9 -173.7)"/><path class="cls-2" d="M438.6,490.1l-1,.8a.735.735,0,0,1-.6.2,1.135,1.135,0,0,1-.8-.3.966.966,0,0,1,.1-1.4l2-1.7v-.2c.2-.9.9-1.5,2-2.1a3.506,3.506,0,0,1,1.4-.6l5.6-4.8a.908.908,0,0,1-.3-.7.945.945,0,0,1,1-1,2.179,2.179,0,0,1,1,.4l.8-.7a.992.992,0,1,1,1.3,1.5l-.3.2c.3.2.5.4.8.6l9.2-5.4c-6.1-1.9-14.4.5-21.1,6.6-6.5,6-9.7,13.8-8.6,20l7.8-11.1C438.7,490.4,438.7,490.2,438.6,490.1Z" transform="translate(-46.9 -173.7)"/><path class="cls-2" d="M438.1,503.7c1.7.4,7.3.9,15.8-6,5.1-4.1,6.1-6.3,6.1-9.1a1,1,0,0,1,2,0c0,3.8-1.8,6.6-6.8,10.6-6.8,5.5-12,6.6-15.1,6.6a10.8,10.8,0,0,1-3.3-.5,1.38,1.38,0,0,1-.4-.3l-1.5,1.2c6.1,2,14.5-.4,21.3-6.6,6.5-5.9,9.7-13.7,8.6-19.9l-2.1,4.5Z" transform="translate(-46.9 -173.7)"/><path class="cls-2" d="M449.6,481.5a1.756,1.756,0,0,1-.5-.4l-2.4,2.1Z" transform="translate(-46.9 -173.7)"/><path class="cls-2" d="M465.7,478l-3.5-3.9h0a10.707,10.707,0,0,1,1.5,2.2C464.3,476.8,465,477.4,465.7,478Z" transform="translate(-46.9 -173.7)"/><path class="cls-2" d="M432.1,505a10.615,10.615,0,0,1-2-1.7l3.5,3.9A8.554,8.554,0,0,1,432.1,505Z" transform="translate(-46.9 -173.7)"/><path class="cls-2" d="M429.9,503.1l.2.2-.2-.2Z" transform="translate(-46.9 -173.7)"/><path class="cls-2" d="M463.6,476.3a10.707,10.707,0,0,0-1.5-2.2l-1.4.8A19.542,19.542,0,0,1,463.6,476.3Z" transform="translate(-46.9 -173.7)"/><path class="cls-2" d="M430.9,501.6l-1.1,1.5.2.2.1.1a10.615,10.615,0,0,0,2,1.7A14.49,14.49,0,0,1,430.9,501.6Z" transform="translate(-46.9 -173.7)"/><path class="cls-2" d="M464.8,479.9l.9-1.8a8.7,8.7,0,0,0-2.1-1.7A9.673,9.673,0,0,1,464.8,479.9Z" transform="translate(-46.9 -173.7)"/><path class="cls-2" d="M432.1,505a10.707,10.707,0,0,0,1.5,2.2l1.2-.9A8.449,8.449,0,0,1,432.1,505Z" transform="translate(-46.9 -173.7)"/><path class="cls-2" d="M445,484.7l1.5.3a6.882,6.882,0,0,0,1.3.2l3.1-2.7c-.4-.3-.9-.7-1.3-1l-3,1.7Z" transform="translate(-46.9 -173.7)"/><path class="cls-2" d="M436.3,505.1a.92.92,0,0,1-.1-1,.992.992,0,0,1,1.3-.5,3.224,3.224,0,0,0,.6.2l24.6-19.4,2.1-4.5a10.923,10.923,0,0,0-1.2-3.6,9.533,9.533,0,0,0-2.9-1.3l-9.2,5.4c.3.3.6.5.9.8l.8-.7a.992.992,0,0,1,1.3,1.5l-.8.7a4.348,4.348,0,0,1,.4.7,2.3,2.3,0,0,1-.5,2.4,7.127,7.127,0,0,1-5.2,1.6l-6.4,5.5a1.157,1.157,0,0,1-.5.7.9.9,0,0,1-.5.1l-1.2,1a.735.735,0,0,1-.6.2,1.135,1.135,0,0,1-.8-.3.966.966,0,0,1,.1-1.4l1-.9c-.4-.6-.6-1.2-.9-1.7l-7.8,11.1a4.346,4.346,0,0,0,3.9,4.8Z" transform="translate(-46.9 -173.7)"/><path class="cls-2" d="M452.3,484.2V484l-1,.9C451.6,484.7,451.9,484.5,452.3,484.2Z" transform="translate(-46.9 -173.7)"/><path class="cls-2" d="M442.6,486.7l-2.4,2a6,6,0,0,0,.9,2.1l4.6-3.9A8.257,8.257,0,0,0,442.6,486.7Z" transform="translate(-46.9 -173.7)"/><path class="cls-4" d="M436.7,505.4a7.617,7.617,0,0,0,3.3.5c3.1,0,8.3-1.1,15.1-6.6,5-4,6.8-6.8,6.8-10.6a1,1,0,1,0-2,0c0,2.7-1,5-6.1,9.1-8.5,6.8-14.1,6.3-15.8,6l-1.7,1.4C436.4,505.2,436.5,505.3,436.7,505.4Z" transform="translate(-46.9 -173.7)"/><path class="cls-4" d="M437.5,503.6a.992.992,0,0,0-1.3.5.9.9,0,0,0,.1,1l1.7-1.4A1.213,1.213,0,0,1,437.5,503.6Z" transform="translate(-46.9 -173.7)"/><path class="cls-4" d="M449.1,481.2a1.756,1.756,0,0,1,.5.4l1.9-1.1c-.3-.2-.5-.4-.8-.6Z" transform="translate(-46.9 -173.7)"/><path class="cls-4" d="M447.9,478.4a.945.945,0,0,0-1,1,.779.779,0,0,0,.3.7l1.6-1.4A2.3,2.3,0,0,0,447.9,478.4Z" transform="translate(-46.9 -173.7)"/><path class="cls-4" d="M438.6,490.1c0,.1.1.2.1.4l.8-1.2Z" transform="translate(-46.9 -173.7)"/><path class="cls-4" d="M440.3,485.5a3.689,3.689,0,0,0-2,2.1v.2l3.4-2.9A4.235,4.235,0,0,0,440.3,485.5Z" transform="translate(-46.9 -173.7)"/><path class="cls-4" d="M440.3,488.7l-.7.6-.8,1.2a9.466,9.466,0,0,0,.9,1.7l1.5-1.3A7.254,7.254,0,0,1,440.3,488.7Z" transform="translate(-46.9 -173.7)"/><path class="cls-4" d="M441.6,493.4a1.794,1.794,0,0,0,.5-.7l-.9.8C441.2,493.6,441.4,493.5,441.6,493.4Z" transform="translate(-46.9 -173.7)"/><path class="cls-4" d="M445,484.7l-2.3,2a8.909,8.909,0,0,1,3.2.2l2-1.7c-.4-.1-.9-.1-1.3-.2C446,484.9,445.5,484.8,445,484.7Z" transform="translate(-46.9 -173.7)"/><path class="cls-4" d="M452.3,484.2a4.129,4.129,0,0,1-1.1.7l-2.8,2.4a6.823,6.823,0,0,0,5.2-1.6,1.973,1.973,0,0,0,.5-2.4,5.736,5.736,0,0,0-.4-.7l-1.5,1.3A.774.774,0,0,1,452.3,484.2Z" transform="translate(-46.9 -173.7)"/><path class="cls-4" d="M450.9,482.5l1.5-1.3c-.3-.3-.6-.5-.9-.8l-1.9,1.1A11.319,11.319,0,0,0,450.9,482.5Z" transform="translate(-46.9 -173.7)"/><path class="cls-4" d="M438.3,487.8l-2,1.7a.972.972,0,0,0-.1,1.4,1.135,1.135,0,0,0,.8.3,1.072,1.072,0,0,0,.6-.2l1-.8A5.427,5.427,0,0,1,438.3,487.8Z" transform="translate(-46.9 -173.7)"/><path class="cls-4" d="M450.9,479.6a.992.992,0,0,0-1.3-1.5l-.8.7c.5.3,1.1.6,1.8,1.1Z" transform="translate(-46.9 -173.7)"/><path class="cls-4" d="M444.3,484.6l2.3-1.4,2.4-2.1a14.676,14.676,0,0,0-1.5-.9c-.1,0-.2-.1-.3-.2l-5.6,4.8A12.745,12.745,0,0,1,444.3,484.6Z" transform="translate(-46.9 -173.7)"/><path class="cls-4" d="M440.3,488.2v.2l.6-.9C440.4,487.8,440.3,488.1,440.3,488.2Z" transform="translate(-46.9 -173.7)"/><path class="cls-4" d="M441.4,487.2a.1.1,0,0,0-.1.1c-.2.1-.3.2-.4.2l-.6.9v.3l2.4-2A2.947,2.947,0,0,0,441.4,487.2Z" transform="translate(-46.9 -173.7)"/><path class="cls-4" d="M446.6,483.3l-2.3,1.4a1.268,1.268,0,0,1,.6.1Z" transform="translate(-46.9 -173.7)"/><path class="cls-4" d="M449.1,481.2l1.6-1.4c-.7-.5-1.3-.8-1.8-1.1l-1.6,1.4c.1.1.2.2.3.2A14.676,14.676,0,0,1,449.1,481.2Z" transform="translate(-46.9 -173.7)"/><path class="cls-4" d="M440.3,488.4v-.2c0-.1.1-.3.6-.7l1-1.4,2.4-1.4a7.634,7.634,0,0,0-2.6.2l-3.4,2.9a3.5,3.5,0,0,0,.3,2.4l1-.9Z" transform="translate(-46.9 -173.7)"/><path class="cls-4" d="M440.3,488.4l-.6.9.7-.6A.367.367,0,0,1,440.3,488.4Z" transform="translate(-46.9 -173.7)"/><path class="cls-4" d="M441.4,487.2a3.08,3.08,0,0,1,1.2-.5l2.3-2c-.2,0-.4-.1-.6-.1l-2.4,1.4-1,1.4c.1-.1.2-.1.4-.2Z" transform="translate(-46.9 -173.7)"/><path class="cls-4" d="M445.8,486.9l-4.6,3.9c.2.4.5.8.7,1.2a.878.878,0,0,1,.1.7l6.4-5.5a15.719,15.719,0,0,1-2.3-.4A.367.367,0,0,1,445.8,486.9Z" transform="translate(-46.9 -173.7)"/><path class="cls-4" d="M451.2,484.9l1-.9c-.1-.4-.7-.9-1.3-1.5l-3.1,2.7A5.632,5.632,0,0,0,451.2,484.9Z" transform="translate(-46.9 -173.7)"/><path class="cls-4" d="M440.2,493.1l-.6-.9-1,.9a.972.972,0,0,0-.1,1.4,1.135,1.135,0,0,0,.8.3,1.072,1.072,0,0,0,.6-.2l1.2-1h0A1.05,1.05,0,0,1,440.2,493.1Z" transform="translate(-46.9 -173.7)"/><path class="cls-4" d="M453.8,482.7l.8-.7a.992.992,0,1,0-1.3-1.5l-.8.7A17.383,17.383,0,0,1,453.8,482.7Z" transform="translate(-46.9 -173.7)"/><path class="cls-4" d="M452.2,484l1.5-1.3a8.7,8.7,0,0,0-1.3-1.5l-1.5,1.3A3.967,3.967,0,0,1,452.2,484Z" transform="translate(-46.9 -173.7)"/><path class="cls-4" d="M447.8,485.2l-2,1.7h.3c.8.1,1.5.3,2.3.4l2.8-2.4A5.632,5.632,0,0,1,447.8,485.2Z" transform="translate(-46.9 -173.7)"/><path class="cls-4" d="M441.9,492a7.459,7.459,0,0,1-.7-1.2l-1.5,1.3.6.9a1.05,1.05,0,0,0,.9.5h0l.9-.8A2.544,2.544,0,0,0,441.9,492Z" transform="translate(-46.9 -173.7)"/><path class="cls-6" d="M274.1,504.7s-.2.3-.5.7c.4.4.7.8,1.1,1.2l1-2.3c-.1-.1-.2-.1-.3-.2A1.2,1.2,0,0,0,274.1,504.7Z" transform="translate(-46.9 -173.7)"/><path class="cls-6" d="M275.8,504.1c-.1,0-.2-.1-.3-.1.1.1.2.1.3.2Z" transform="translate(-46.9 -173.7)"/><path class="cls-6" d="M274.7,506.5c-.4-.4-.7-.8-1.1-1.2A279.567,279.567,0,0,0,259.2,530c4.3-5.1,8.4-10.5,11.5-14.7Z" transform="translate(-46.9 -173.7)"/><path class="cls-6" d="M276.7,506a1.7,1.7,0,0,0,0-1c-.1,0-.1-.1-.2-.1A5.16,5.16,0,0,1,276.7,506Z" transform="translate(-46.9 -173.7)"/><path class="cls-6" d="M276.5,504.9c.1,0,.1.1.2.1a2.186,2.186,0,0,0-.3-.5A.756.756,0,0,1,276.5,504.9Z" transform="translate(-46.9 -173.7)"/><path class="cls-4" d="M270.2,516.4c.5-.8,1-1.6,1.4-2.4a14.629,14.629,0,0,0-.9,1.3Z" transform="translate(-46.9 -173.7)"/><path class="cls-6" d="M275.7,504.2l-1,2.3a10.949,10.949,0,0,0,1,1.1,10.257,10.257,0,0,1,.9-1.3c.1-.1.1-.2.2-.4a5.16,5.16,0,0,0-.2-1.1A2.361,2.361,0,0,1,275.7,504.2Z" transform="translate(-46.9 -173.7)"/><path class="cls-6" d="M276.5,504.9c0-.1-.1-.2-.1-.4l-.3-.3c-.1-.1-.2-.1-.4-.2l-.1.1C276,504.5,276.3,504.7,276.5,504.9Z" transform="translate(-46.9 -173.7)"/><path class="cls-6" d="M271.6,514.1c1.8-3,3.2-5.1,4-6.4a10.949,10.949,0,0,0-1-1.1l-4,8.8C271,514.9,271.3,514.5,271.6,514.1Z" transform="translate(-46.9 -173.7)"/><path class="cls-6" d="M196.2,374c10.5-1,17.2,0,20.5,3l.3.3a8.689,8.689,0,0,1,2.3,5.5c.6.2,1.1.4,1.6.6s1,.4,1.4.6a13.814,13.814,0,0,0-1.9-7.1,9.1,9.1,0,0,0-1.8-2.1c-4-3.7-11.3-4.9-22.8-3.8a54.984,54.984,0,0,0-24.6,8.6c-1,.6-2,1.3-3,2-.9.6-1.8,1.3-2.7,2-14.7,11.1-27.2,28.2-40.1,45.9q-1.95,2.7-4.2,6c-5.3,8-11.4,18.5-17.6,29.6-5.6,10-11.2,20.4-16.2,30a6.561,6.561,0,0,0,2.1.8c.1,0,.2.1.3.1a4.331,4.331,0,0,0,.5.1c4.7-9,10-18.8,15.2-28.2,6.5-11.7,13-22.7,18.5-31,1.3-2,2.6-3.9,3.8-5.5,12-16.4,23.6-32.2,36.8-43.1.4-.3.9-.7,1.3-1a65.165,65.165,0,0,1,12.6-8A45.987,45.987,0,0,1,196.2,374Z" transform="translate(-46.9 -173.7)"/><path class="cls-6" d="M200.6,394.9q2.4-.15,4.5-.3c9.3-.5,17.3-1,17.3-10.1v-.4c-.5-.2-.9-.4-1.4-.6s-1.1-.4-1.6-.6a8.6,8.6,0,0,1,.1,1.6c0,6-4.7,6.5-14.5,7.1-1.5.1-3,.2-4.6.3a29.51,29.51,0,0,0-7.2,1.5,27.057,27.057,0,0,0-10.6,6.6,34.906,34.906,0,0,0-15.1-2.8.367.367,0,0,0-.3.1,1.541,1.541,0,0,0-1.1,1.6,1.617,1.617,0,0,0,1.6,1.4h.7a31.606,31.606,0,0,1,13.9,3h0a20.042,20.042,0,0,1,4.6,3.2,21.5,21.5,0,0,1,6.4,12.8c-7.6-9.9-22.6-11.7-23.3-11.8a2.388,2.388,0,0,0-.9.2,1.23,1.23,0,0,0-.7,1.1,1.486,1.486,0,0,0,.2.9,1.549,1.549,0,0,0,1.2.8c.2,0,15.1,1.8,21.8,11.3,3.2,4.6,4,10.3,2.3,17a1.389,1.389,0,0,0,.2,1.1,1.167,1.167,0,0,0,.6.6c.7.3,6.3,3,10.6,3a6.15,6.15,0,0,0,1.4-.1,9.918,9.918,0,0,0,7.4-6.5,10.677,10.677,0,0,0-2.1-10c-.3-.3-.5-.7-.8-1a26.69,26.69,0,0,0-14.8-7.8,24.616,24.616,0,0,0-5.8-12.5,9.266,9.266,0,0,0-1.4-1.4,24.159,24.159,0,0,0-3.6-2.7l-.5.5.5-.5a26.368,26.368,0,0,1,6-4.1h0A22.953,22.953,0,0,1,200.6,394.9Zm-4.1,26.3a16.69,16.69,0,0,1,1.8.5,23.549,23.549,0,0,1,8.4,4.4,17.969,17.969,0,0,1,2,1.9c2.4,2.5,3.2,5.4,2.3,8a6.858,6.858,0,0,1-5,4.5c-2.4.4-6.7-1.1-9.1-2.2a24.994,24.994,0,0,0-.4-13.1,1.854,1.854,0,0,0,.2-.7C196.6,423.4,196.6,422.3,196.5,421.2Z" transform="translate(-46.9 -173.7)"/><path class="cls-6" d="M192.9,441a16.759,16.759,0,0,0-4.2-9.3c-4.6-5.1-12.1-7.1-22.4-6h-.2a1.513,1.513,0,0,0,.4,3c.4,0,.7-.1,1.1-.1,8.8-.8,15.2.9,19,5.1a15.052,15.052,0,0,1,3.6,10.6,16.562,16.562,0,0,1-.4,3.3,8.336,8.336,0,0,1-3,4.4,18.221,18.221,0,0,1-3.1,1.9c-5,2.2-11.2,2.2-15.3,0-.8-.4-1.8-1.1-1.7-1.9.1-1.9,4.5-4.7,7.4-6.1a1.5,1.5,0,0,0-1.3-2.7c-1.5.7-9,4.3-9.2,8.7a4.614,4.614,0,0,0,2.3,4h0v.1c-.4,1.9-.9,3.6-1.4,5.3a43.785,43.785,0,0,1-3.8,8.7,30.056,30.056,0,0,1-3.6,4.8,23.106,23.106,0,0,1-5.6,4.4c-.5.3-1,.5-1.4.7a22.921,22.921,0,0,1-16.4.2,1.523,1.523,0,0,0-1.2,2.8,24.82,24.82,0,0,0,12.2,1.5,22.306,22.306,0,0,0,2.3-.4,24.656,24.656,0,0,0,5.9-2.1q9.45-4.95,14.1-18.3a50.406,50.406,0,0,0,1.8-6.2,17.2,17.2,0,0,0,4.6,1.1h0a20.083,20.083,0,0,0,2.5.1,21.846,21.846,0,0,0,9.1-1.9,16.014,16.014,0,0,0,4.4-2.9,10.245,10.245,0,0,0,3.3-5.5,21.875,21.875,0,0,0,.4-2.7A36.178,36.178,0,0,0,192.9,441Z" transform="translate(-46.9 -173.7)"/><path class="cls-6" d="M259.2,530c-9.5,18.1-21.3,44.3-28.2,73.6-1.1,4.9-2.1,9.8-3,14.8-.2,1-.3,2-.5,3a1.48,1.48,0,0,0,1.3,1.7h.2a1.5,1.5,0,0,0,1.5-1.3,18.457,18.457,0,0,1,.4-2.3,253.478,253.478,0,0,1,8-33.6,336.553,336.553,0,0,1,31.3-69.6l.5-1.1C267.6,519.5,263.5,524.9,259.2,530Z" transform="translate(-46.9 -173.7)"/><path class="cls-4" d="M268.9,440.8c-7.1,0-11.2-3.2-11.4-3.4a1.492,1.492,0,0,1,1.9-2.3c.3.2,7.5,5.8,19.6.5,8.7-3.8,11.3-14,11.4-15.5a1.51,1.51,0,0,1,1.1-1.6,1.491,1.491,0,0,1,1.8,1.1c.3,1.3-2.3,14-13.2,18.7A28.59,28.59,0,0,1,268.9,440.8Zm21.6-20.6Zm0,0Z" transform="translate(-46.9 -173.7)"/></svg>