<?xml version="1.0" encoding="utf-8"?>
<!-- Generator: Adobe Illustrator 25.3.1, SVG Export Plug-In . SVG Version: 6.00 Build 0)  -->
<svg version="1.1" id="Calque_1" xmlns="http://www.w3.org/2000/svg" xmlns:xlink="http://www.w3.org/1999/xlink" x="0px" y="0px"
	 viewBox="0 0 50 50" style="enable-background:new 0 0 50 50;" xml:space="preserve">
<style type="text/css">
	.st0{fill:#F4D851;}
	.st1{fill:#FFFFFF;}
	.st2{fill:#2C55A7;}
	.st3{fill:#EFD423;}
	.st4{fill:#59E170;}
	.st5{fill:none;}
</style>
<g>
	<g>
		<path class="st0" d="M25,0.5C11.5,0.5,0.5,11.5,0.5,25c0,2.6,0.4,5.2,1.2,7.6c1.4-1.1,2.4-1.2,2.4-1.2s-0.4-1.1,2.1-2.2
			c2.5-1.1,4.1-1.9,4.4-5c0.3-3.1-1.5-4.5,0.5-9.5c2.1-5,7.4-4.4,7.4-4.4l1.3,0.1c2.3-1.7,5.1-2.7,8.2-2.7c7.7,0,13.9,6.2,13.9,13.9
			c0,4.1-1.7,7.7-4.5,10.2l2.3,3.6c0,0,0,0.1,0,0.1c0,0,0,0.1-0.1,0.1l-0.7,0.3c0.2,0.4,0.8,1.3,1.6,2.6c1-0.1,2,0,2.8,0.2
			c0.6,0.1,1,0.4,1.2,0.8c0,0,0,0.1,0,0.1c3.1-4.1,5-9.2,5-14.8C49.5,11.5,38.5,0.5,25,0.5z"/>
		<path class="st0" d="M26.5,29.2l1.7,0.3c0,0,0,0,0,0C27.8,29.4,27.2,29.3,26.5,29.2L26.5,29.2z"/>
		<path class="st0" d="M28,10.7c-0.6,0-1.1,0-1.6,0.1c1,0.8,0.8,4.5,0.8,8c0.1,0,0.2-0.1,0.4-0.1c2.4-0.6,2.8-1.3,3-2.4
			c0.2-1,2.2-1.6,3.8-0.2c1.6,1.4,0.2,8.6-5.4,8.8c-0.5,0-0.9,0-1.3-0.1c0.4,2.2,1.1,3.7,1.3,4.2c0.3-0.2,0.5-0.2,0.8-0.2
			c0.2-0.3,0.5-0.5,0.7-0.8c0.5-0.5,1.3-0.3,1.6-0.1c0.2-0.2,0.4-0.3,0.7-0.3c0.5-0.1,0.9,0.2,1,0.3c0.4-0.5,0.9-1,1.6-0.7
			c0.4,0.2,0.6,0.4,0.8,0.7c0.1,0.3,0.1,0.7-0.1,1.1c1.8-2,2.9-4.6,2.9-7.4C39,15.6,34.1,10.7,28,10.7z"/>
		<path class="st1" d="M14.1,20.3c0-0.1,0-0.2,0.1-0.2c0-0.3,0.1-0.6,0.1-0.9c-0.2-0.2-0.5-0.4-0.7-0.6c-0.1-0.1-0.1-0.2-0.1-0.3
			c0.1-0.1,0.2-0.1,0.3-0.1c0.1,0.1,0.4,0.2,0.6,0.4c0.1-0.3,0.1-0.6,0.2-0.9c-0.1,0-0.2,0-0.3,0c-2.3-0.1-1.9,1.4-1.7,2
			c0.1,0.4,0.9,1.1,1.6,1.5C14.2,21,14.2,20.7,14.1,20.3C14.2,20.4,14.2,20.3,14.1,20.3z"/>
		<path class="st1" d="M14.9,26.2c-0.1,0.8-0.6,1.6-0.7,1.9c-0.1,0.3,0.1,0.9,0.1,0.9c0.6,1.7,0.1,3.5,0.3,5.5c0,0,0,0.1,0,0.1
			c2.3,1.7,3.6,1.4,6.3-0.4c0.1-0.1,0.3-0.2,0.4-0.3C18.4,32.2,16,29.5,14.9,26.2z"/>
		<path class="st1" d="M21.1,21.2c0.8,0.2,1.1-0.2,1.3-0.4l-1.9-1.5c-0.3,0.5-0.4,1-0.2,1.3C20.3,20.9,20.6,21.1,21.1,21.2z"/>
		<path class="st1" d="M23.3,25.2c0,0,0,0.1-0.1,0.1C23.3,25.2,23.4,25.2,23.3,25.2c0.1,0,0.1,0,0.1,0c0,0,0,0,0.1,0
			c0.4-0.3,1-0.7,1.5-1.1c0.1-0.1,0.2-0.1,0.2-0.2c-0.1-0.1-0.2-0.2-0.2-0.3C24.1,23.9,23.6,24.7,23.3,25.2z"/>
		<path class="st1" d="M26.5,29.2L26.5,29.2L26.5,29.2C26.5,29.2,26.5,29.2,26.5,29.2z"/>
		<path class="st1" d="M22.7,29.1c-0.7,0-1.1,0-1.1,0v-2.9c-0.3,0-0.7,0.1-1,0.1c-1.1,0-2.1-0.2-2.2-0.2c-0.1,0-0.2-0.1-0.1-0.2
			c0-0.1,0.1-0.2,0.2-0.1c0,0,2.9,0.6,4.5-0.2c0,0,0,0,0,0c0,0-0.1,0-0.1,0c-0.1-0.1-0.1-0.2,0-0.3c0,0,0.1-0.1,0.1-0.2
			c0.2-0.4,0.8-1.4,1.9-1.9c-0.1-0.2-0.1-0.3-0.2-0.5c-0.2-1.3,0.2-2.6,1.6-3.4c0-1.5-0.1-3-0.2-4c-0.1,0-0.1,0.1-0.2,0
			c-0.8-0.3-1.5-0.4-2-0.1c-0.7,0.4-0.8,1.5-0.8,1.5l0,3.3c0,0.1-0.1,0.2-0.2,0.2s-0.2-0.1-0.2-0.2v-3.3c0-0.1,0.1-1.2,1-1.8
			c0.6-0.4,1.4-0.3,2.3,0c0,0,0,0,0,0c0-0.4-0.1-0.7-0.1-0.7c-1.3-0.6-2.5-2-2.9-2.4c-1.2,0.6-2.3,1.4-3.2,2.3
			c0.3,0.1,0.7,0.4,0.8,0.8c0,0.1-0.1,0.2-0.2,0.2c0,0,0,0,0,0c-0.1,0-0.2-0.1-0.2-0.2c0-0.3-0.4-0.5-0.7-0.5
			c-1.7,1.9-2.7,4.5-2.7,7.2c0,4.2,2.4,7.8,5.8,9.7C23,30.4,22.9,29.6,22.7,29.1z M24.4,16.7c0.2,0,0.4,0.3,0.4,0.6
			c0,0.3-0.2,0.6-0.4,0.6c-0.2,0-0.4-0.3-0.4-0.6C24,17,24.2,16.7,24.4,16.7z M20.4,18.8c0.1,0,0.1,0,0.1,0l2.2,1.7
			c0.1,0.1,0.1,0.1,0.1,0.2c-0.1,0.3-0.6,0.8-1.3,0.8c-0.2,0-0.3,0-0.5-0.1c-0.6-0.2-0.9-0.4-1.1-0.9c-0.2-0.5-0.1-1.1,0.4-1.8
			C20.3,18.9,20.3,18.9,20.4,18.8z M19.6,16.2c0.2,0,0.4,0.3,0.4,0.6c0,0.3-0.2,0.6-0.4,0.6c-0.2,0-0.4-0.3-0.4-0.6
			C19.2,16.5,19.4,16.2,19.6,16.2z"/>
		<path class="st2" d="M28.3,29.5l-1.7-0.3l-0.1,0c-0.1,0-0.2,0-0.3,0c0,0.1,0,0.1,0,0.2l0.1,0.2c0.2,0.6,0.3,1.1,0.5,1.6
			C27,30.8,27.6,30.1,28.3,29.5z"/>
		<path class="st2" d="M38.3,44.7l-2.6-5.1c0,0,0,0,0,0c-0.1,0-0.5-0.2-0.9,0.4c-0.4,0.7,0.5,1.8,1.1,2.4c0.6,0.6,0.7,1.3,0.9,2.9
			c0,0.2,0.1,0.4,0.1,0.6h0.8c0.3-0.2,0.5-0.3,0.8-0.5C38.5,45.2,38.4,45,38.3,44.7C38.3,44.7,38.3,44.7,38.3,44.7z"/>
		<path class="st2" d="M18.9,37.1c0-0.1,0.1-0.1,0.2-0.1c0.3,0.1,0.7,0.3,1.1,0.4c0.1-0.5,0.3-1.8,1-2.6c0.2-0.2,0.4-0.4,0.6-0.6
			c0,0,0,0,0.1-0.1c-0.1-0.1-0.3-0.1-0.4-0.2c-0.1,0.1-0.3,0.2-0.4,0.3c-2.7,1.9-4.1,2.2-6.3,0.4c0.1,1.9-2.2,0.7-5.2,1.7
			c-3,1-2.3-1.5-2.6-3.4s-2.8-1.5-2.8-1.5s-1,0.1-2.4,1.2c1.8,5.6,5.6,10.3,10.6,13.4C16.2,42.7,18.9,37.2,18.9,37.1z"/>
		<path class="st2" d="M22.8,31.3c0.1,0.1,0.2,0.1,0.3,0.1c0-0.1,0-0.2,0-0.3c0-0.8-0.1-1.5,0-2.1c-0.1,0-0.2,0-0.4,0
			C22.9,29.6,23,30.4,22.8,31.3z"/>
		<path d="M26.5,29.2c0.6,0.1,1.2,0.1,1.7,0.3c0.2-0.2,0.4-0.4,0.7-0.5c-0.2-0.5-0.9-1.9-1.3-4.2c-1.1-0.1-1.9-0.5-2.3-1.1
			c-0.1,0.1-0.2,0.2-0.2,0.2c-0.6,0.5-1.1,0.8-1.5,1.1c0.1,0,0.1,0,0.2,0.1c0.1,0.1,0.1,0.2,0,0.3c-0.5,0.5-1.3,0.7-2,0.8v2.9
			c0,0,0.4,0,1.1,0c0.1,0,0.2,0,0.4,0c0-0.9,0.2-1.6,0.5-2c0.2-0.2,0.5-0.3,0.8-0.3c0.7,0.2,1.4,1.1,1.8,2.4
			C26.3,29.2,26.4,29.2,26.5,29.2C26.5,29.2,26.5,29.2,26.5,29.2z"/>
		<path class="st3" d="M23,25.4C23,25.4,23,25.4,23,25.4C23,25.4,23,25.4,23,25.4C23,25.4,23,25.4,23,25.4z"/>
		<path class="st3" d="M23.4,25.2c0,0-0.1,0.1-0.1,0.1c0,0,0,0,0,0C23.3,25.2,23.4,25.2,23.4,25.2z"/>
		<path d="M26.1,14.2c0,0,0,0.2,0.1,0.7c0.1,0,0.1,0.1,0.1,0.2c0,0,0,0.1-0.1,0.1c0.1,0.9,0.2,2.4,0.2,4c0.2-0.1,0.5-0.2,0.8-0.3
			c0-3.5,0.2-7.1-0.8-8c-1.1,0.2-2.2,0.5-3.2,1C23.6,12.2,24.8,13.6,26.1,14.2z"/>
		<path d="M6.9,32.8c0.3,1.9-0.3,4.4,2.6,3.4c2.9-1,5.3,0.3,5.2-1.7c0,0,0-0.1,0-0.1c-0.2-2.1,0.3-3.9-0.3-5.5c0,0-0.2-0.6-0.1-0.9
			c0.1-0.3,0.5-1.1,0.7-1.9c-0.5-1.4-0.8-2.9-0.8-4.5c0-0.1,0-0.2,0-0.3c-0.7-0.4-1.4-1-1.6-1.5c-0.2-0.6-0.6-2.1,1.7-2
			c0.1,0,0.2,0,0.3,0c0.8-3,2.7-5.6,5.1-7.4l-1.3-0.1c0,0-5.3-0.6-7.4,4.4c-2.1,5-0.2,6.4-0.5,9.5c-0.3,3.1-1.9,3.9-4.4,5
			c-2.5,1.1-2.1,2.2-2.1,2.2S6.6,30.9,6.9,32.8z"/>
		<path d="M23.4,25.2c0,0-0.1,0.1-0.1,0.1c0,0-0.1,0.1-0.1,0.1c0,0-0.1,0.1-0.1,0.1c0,0,0,0,0,0c0,0,0,0,0,0
			c-1.6,0.8-4.4,0.2-4.5,0.2c-0.1,0-0.2,0-0.2,0.1c0,0.1,0,0.2,0.1,0.2c0.1,0,1.1,0.2,2.2,0.2c0.3,0,0.7,0,1-0.1
			c0.8-0.1,1.5-0.3,2-0.8c0.1-0.1,0.1-0.2,0-0.3c-0.1-0.1-0.1-0.1-0.2-0.1C23.5,25.1,23.5,25.1,23.4,25.2
			C23.4,25.1,23.4,25.2,23.4,25.2z"/>
		<path d="M13.6,18.4c-0.1,0.1,0,0.2,0.1,0.3c0.2,0.1,0.5,0.3,0.7,0.6c0-0.1,0.1-0.3,0.1-0.4c-0.3-0.2-0.5-0.4-0.6-0.4
			C13.8,18.2,13.6,18.3,13.6,18.4z"/>
		<path d="M14.1,20.3C14.2,20.3,14.2,20.4,14.1,20.3c0.1,0,0.1-0.1,0.1-0.2C14.2,20.1,14.1,20.2,14.1,20.3z"/>
		<path d="M41.4,41.1c0,0-0.1,0-0.2,0c-0.1,0-0.2,0-0.3,0.1C41.1,41.1,41.3,41.1,41.4,41.1C41.4,41.1,41.4,41.1,41.4,41.1z"/>
		<path d="M35.6,39.1c0.1,0,0.2,0,0.3,0.1c0.1,0,0.1,0.2,0.1,0.2c0,0.1-0.1,0.1-0.2,0.1l2.6,5.1c0-0.2,0.1-0.4,0.2-0.5
			c0.1-0.1,0.2-0.1,0.3-0.2c-0.4-0.1-0.8-0.3-1-0.6c-0.2-0.3-0.3-0.7-0.1-1c0.2-0.5,0.7-0.8,1.8-1c-1.1,0-1.5-0.2-1.7-0.5
			c-0.2-0.4-0.2-0.8,0.2-1.3c0.4-0.5,1.4-0.7,2.5-0.8c-0.8-1.2-1.3-2.2-1.6-2.6l-3.9,2L35.6,39.1z"/>
		<path class="st1" d="M27,31.4L27,31.4c0.1,0.2,0.2,0.4,0.4,0.5c0.2,0.1,0.3,0.1,0.5,0.2c0.1-0.9,0.6-1.9,1.4-2.9
			C28.7,29.4,27.6,30.6,27,31.4z"/>
		<path d="M29.4,29.2c0.1-0.1,0.2-0.3,0.4-0.4c-0.2,0-0.5,0.1-0.8,0.2c-0.2,0.1-0.4,0.3-0.7,0.5c0,0,0,0,0,0
			c-0.7,0.6-1.3,1.3-1.5,1.6c0.1,0.1,0.1,0.2,0.2,0.4l0,0C27.6,30.6,28.7,29.4,29.4,29.2z"/>
		<path class="st1" d="M31.9,28.2c-0.2-0.1-0.7-0.3-1.1,0c-1.4,1.3-2.2,2.6-2.4,3.8c0.4,0,0.8-0.1,1.3-0.2c0.1,0,0.2-0.1,0.3-0.1
			C30.1,30.8,31.1,29.3,31.9,28.2C31.8,28.3,31.8,28.3,31.9,28.2z"/>
		<path d="M30.7,28.3c0.4-0.4,0.9-0.2,1.1,0c0.1-0.1,0.2-0.2,0.3-0.3c-0.4-0.2-1.1-0.4-1.6,0.1c-0.3,0.3-0.5,0.5-0.7,0.8
			c-0.1,0.1-0.2,0.3-0.4,0.4c-0.8,1-1.3,2-1.4,2.9c0.1,0,0.2,0,0.4,0C28.5,30.9,29.3,29.6,30.7,28.3z"/>
		<path class="st1" d="M32.8,28c-0.3,0-0.5,0.2-0.7,0.5c-0.6,0.8-1.5,2.1-1.7,3c1.1-0.5,2.1-1.6,3.1-3l0,0c0,0,0-0.1,0.1-0.1
			c0,0,0.1-0.1,0.1-0.1C33.5,28.2,33.2,28,32.8,28z"/>
		<path d="M32.8,27.6c-0.2,0-0.5,0.1-0.7,0.3c-0.1,0.1-0.2,0.2-0.3,0.3c0,0,0,0.1-0.1,0.1c-0.7,1-1.7,2.4-1.9,3.4
			c0.1-0.1,0.3-0.1,0.4-0.2c0.3-0.9,1.2-2.2,1.7-3c0.2-0.3,0.5-0.5,0.7-0.5c0.4,0,0.7,0.2,0.8,0.3c0.1-0.1,0.1-0.2,0.2-0.3
			C33.7,27.9,33.3,27.6,32.8,27.6z"/>
		<path d="M19.9,20.7c0.2,0.4,0.5,0.7,1.1,0.9c0.2,0.1,0.3,0.1,0.5,0.1c0.7,0,1.1-0.5,1.3-0.8c0-0.1,0-0.2-0.1-0.2l-2.2-1.7
			c0,0-0.1,0-0.1,0c-0.1,0-0.1,0-0.1,0.1C19.8,19.6,19.7,20.2,19.9,20.7z M20.5,19.3l1.9,1.5c-0.1,0.2-0.5,0.6-1.3,0.4
			c-0.4-0.1-0.7-0.3-0.8-0.6C20.1,20.3,20.2,19.8,20.5,19.3z"/>
		<path d="M26.3,15.1c0-0.1,0-0.2-0.1-0.2c0,0,0,0,0,0c-0.9-0.4-1.7-0.4-2.3,0c-0.9,0.5-1,1.7-1,1.8v3.3c0,0.1,0.1,0.2,0.2,0.2
			s0.2-0.1,0.2-0.2l0-3.3c0,0,0.1-1,0.8-1.5c0.5-0.3,1.1-0.3,2,0.1C26.1,15.2,26.2,15.2,26.3,15.1C26.2,15.1,26.3,15.1,26.3,15.1z"
			/>
		<path d="M20.4,14.9c0,0.1,0.1,0.2,0.2,0.2c0,0,0,0,0,0c0.1,0,0.2-0.1,0.2-0.2c-0.1-0.4-0.5-0.7-0.8-0.8c-0.1,0.1-0.2,0.2-0.3,0.3
			C20,14.5,20.4,14.6,20.4,14.9z"/>
		<path d="M19.6,17.4c0.2,0,0.4-0.3,0.4-0.6c0-0.3-0.2-0.6-0.4-0.6c-0.2,0-0.4,0.3-0.4,0.6C19.2,17.1,19.4,17.4,19.6,17.4z"/>
		<path d="M24.4,17.9c0.2,0,0.4-0.3,0.4-0.6c0-0.3-0.2-0.6-0.4-0.6c-0.2,0-0.4,0.3-0.4,0.6C24,17.6,24.2,17.9,24.4,17.9z"/>
		<path class="st1" d="M39.2,35.5l-2.1-3.4c-1.3,1.1-2.8,2-4.4,2.6l1.7,3.4L39.2,35.5z"/>
		<path d="M39.2,35.5l-4.9,2.5l-1.7-3.4c-0.1,0-0.2,0.1-0.3,0.1c0,0,0,0,0,0l1.8,3.5c0,0,0.1,0.1,0.1,0.1c0,0,0,0,0.1,0
			c0,0,0.1,0,0.1,0l0.7-0.4l3.9-2l0.7-0.3c0,0,0.1-0.1,0.1-0.1c0,0,0-0.1,0-0.1l-2.3-3.6c-0.1,0.1-0.2,0.2-0.3,0.2L39.2,35.5z"/>
		<path class="st1" d="M16.7,21.6c0-6.3,5.1-11.3,11.3-11.3c6.3,0,11.3,5.1,11.3,11.3c0,3.3-1.4,6.3-3.7,8.4c0,0.1-0.1,0.2-0.1,0.2
			c-0.3,0.6-1.1,1.6-2.2,2.9c-0.3,0.4-0.7,0.9-1.1,1.3c5.3-1.8,9.2-6.9,9.2-12.8c0-7.4-6.1-13.5-13.5-13.5s-13.5,6.1-13.5,13.5
			c0,5.3,3.1,9.9,7.6,12.1c0.5-0.6,0.9-1.1,1-1.9C19.3,30,16.7,26.1,16.7,21.6z"/>
		<path d="M14.7,17.9c-0.1,0.3-0.2,0.6-0.2,0.9c0,0.1-0.1,0.3-0.1,0.4c-0.1,0.3-0.1,0.6-0.1,0.9c0,0.1,0,0.2,0,0.3
			c0,0.3,0,0.6-0.1,0.9c0,0.1,0,0.2,0,0.3c0,1.6,0.3,3.1,0.8,4.5c1.1,3.3,3.5,6,6.5,7.7c0.1,0.1,0.3,0.1,0.4,0.2
			c0.1-0.1,0.2-0.2,0.3-0.3c-4.5-2.2-7.6-6.8-7.6-12.1c0-7.4,6.1-13.5,13.5-13.5s13.5,6.1,13.5,13.5c0,5.9-3.9,11-9.2,12.8
			c-0.1,0.2-0.3,0.3-0.4,0.5c0.1,0,0.3-0.1,0.4-0.1c0.1,0,0.2-0.1,0.3-0.1c1.6-0.6,3.2-1.5,4.4-2.6c0.1-0.1,0.2-0.2,0.3-0.2
			c2.8-2.5,4.5-6.2,4.5-10.2C41.9,14,35.7,7.8,28,7.8c-3.1,0-5.9,1-8.2,2.7C17.4,12.3,15.5,14.9,14.7,17.9z"/>
		<path d="M39.4,21.6c0-6.3-5.1-11.3-11.3-11.3c-6.3,0-11.3,5.1-11.3,11.3c0,4.5,2.6,8.4,6.4,10.2c0-0.1,0-0.3,0-0.4
			c-0.1,0-0.2-0.1-0.3-0.1c-3.5-1.9-5.8-5.5-5.8-9.7c0-2.8,1-5.3,2.7-7.2c0.1-0.1,0.2-0.2,0.3-0.3c0.9-1,2-1.8,3.2-2.3
			c1-0.5,2-0.8,3.2-1c0.5-0.1,1.1-0.1,1.6-0.1c6.1,0,11,4.9,11,11c0,2.9-1.1,5.5-2.9,7.4c-0.1,0.3-0.2,0.6-0.4,1
			C37.9,27.9,39.4,24.9,39.4,21.6z"/>
		<path class="st1" d="M35.2,30.1c0.6-1,0.8-1.7,0.6-2c-0.1-0.2-0.2-0.3-0.5-0.4c-0.6-0.2-1.1,0.4-1.5,1c0,0-0.1,0.1-0.1,0.1l0,0
			c-1.2,1.8-2.6,3-4,3.4c-1.1,0.3-1.9,0.3-2.5,0c-0.8-0.4-1-1.4-1.3-2.6l-0.1-0.2c-0.4-1.4-1-2.2-1.5-2.3c-0.2,0-0.3,0-0.4,0.1
			c-0.5,0.6-0.5,2.2-0.4,3.8c0.1,1.5-0.7,2.4-1.5,3.2c-0.2,0.2-0.4,0.4-0.5,0.6c-0.7,0.9-0.9,2.2-0.9,2.6c2.3,1,5,2.4,6.9,3.5
			c1.3-2.8,3.8-5.9,5.6-8.2C34.1,31.6,34.9,30.7,35.2,30.1z"/>
		<path d="M32.3,34.4c0.4-0.5,0.7-0.9,1.1-1.3c1-1.3,1.8-2.2,2.2-2.9c0-0.1,0.1-0.2,0.1-0.2c0.2-0.4,0.3-0.7,0.4-1
			c0.2-0.5,0.2-0.8,0.1-1.1c-0.1-0.3-0.4-0.5-0.8-0.7c-0.7-0.3-1.2,0.3-1.6,0.7c-0.1,0.1-0.2,0.2-0.2,0.3c0,0.1-0.1,0.1-0.1,0.1
			c0,0,0,0.1-0.1,0.1l0,0c-0.9,1.4-2,2.4-3.1,3c-0.1,0.1-0.3,0.1-0.4,0.2c-0.1,0-0.2,0.1-0.3,0.1c-0.5,0.1-0.9,0.2-1.3,0.2
			c-0.1,0-0.3,0-0.4,0c-0.2,0-0.4-0.1-0.5-0.2c-0.2-0.1-0.3-0.2-0.4-0.4c-0.1-0.1-0.1-0.2-0.2-0.4c-0.2-0.4-0.3-1-0.5-1.6l-0.1-0.2
			c0-0.1,0-0.1,0-0.2c-0.4-1.3-1.1-2.2-1.8-2.4c-0.3-0.1-0.6,0-0.8,0.3c-0.3,0.4-0.5,1.1-0.5,2c0,0.6,0,1.3,0,2.1c0,0.1,0,0.2,0,0.3
			c0,0.1,0,0.3,0,0.4c-0.1,0.8-0.5,1.3-1,1.9C22,33.9,21.9,34,21.8,34c0,0,0,0-0.1,0.1c-0.2,0.2-0.4,0.4-0.6,0.6
			c-0.7,0.9-0.9,2.1-1,2.6c0.1,0,0.2,0.1,0.4,0.1c0-0.4,0.2-1.7,0.9-2.6c0.2-0.2,0.4-0.4,0.5-0.6c0.8-0.9,1.6-1.7,1.5-3.2
			c-0.1-1.6-0.1-3.2,0.4-3.8c0.1-0.1,0.3-0.2,0.4-0.1c0.5,0.1,1.2,0.9,1.5,2.3l0.1,0.2c0.3,1.2,0.6,2.1,1.3,2.6
			c0.6,0.3,1.3,0.3,2.5,0c1.4-0.4,2.8-1.6,4-3.4l0,0c0,0,0-0.1,0.1-0.1c0.4-0.6,0.9-1.2,1.5-1c0.3,0.1,0.5,0.3,0.5,0.4
			c0.1,0.4-0.1,1-0.6,2c-0.3,0.6-1.1,1.6-2.1,2.8c-1.8,2.3-4.3,5.4-5.6,8.2c0.1,0.1,0.2,0.1,0.3,0.2c1-2.1,2.6-4.3,4.1-6.3
			C32,34.8,32.2,34.6,32.3,34.4z"/>
		<path class="st1" d="M44.2,39.8c-0.1-0.3-0.4-0.5-0.9-0.6c-1.8-0.4-4.4-0.2-5,0.5c-0.2,0.3-0.3,0.6-0.2,0.8
			c0.1,0.2,0.7,0.7,3.1,0.1c0.2-0.1,0.4,0,0.5,0.1c0.1,0.1,0.2,0.2,0.2,0.3c0.4,0,0.8-0.1,1.3-0.1c0.2,0,0.4,0,0.5,0
			c0.2-0.2,0.4-0.5,0.6-0.7C44.2,40.1,44.2,40,44.2,39.8z"/>
		<path d="M43.3,38.9c-0.8-0.2-1.9-0.2-2.8-0.2c-1.1,0.1-2.1,0.3-2.5,0.8c-0.3,0.4-0.4,0.9-0.2,1.3c0.2,0.3,0.7,0.6,1.7,0.5
			c0.4-0.1,0.9-0.2,1.5-0.2c0.1,0,0.2,0,0.3-0.1c0.1,0,0.1,0,0.2,0c0,0,0,0,0,0c0.1,0,0.3,0,0.4,0c0-0.1-0.1-0.2-0.2-0.3
			c-0.1-0.1-0.2-0.1-0.5-0.1c-2.4,0.6-3,0.1-3.1-0.1c-0.1-0.2-0.1-0.5,0.2-0.8c0.5-0.7,3.2-0.9,5-0.5c0.5,0.1,0.8,0.3,0.9,0.6
			c0,0.1,0.1,0.3,0,0.4c0.1-0.1,0.2-0.3,0.3-0.4c0,0,0-0.1,0-0.1C44.4,39.3,44,39,43.3,38.9z"/>
		<path class="st1" d="M38,42.5c-0.1,0.3,0,0.5,0.1,0.6c0.2,0.3,0.8,0.6,1.4,0.6c0.4-0.1,1-0.2,1.6-0.2c0.8-0.7,1.5-1.4,2.2-2.1
			c-0.1,0-0.1,0-0.2,0C39.6,41.5,38.3,41.8,38,42.5z"/>
		<path d="M43.1,40.9c-0.5,0-0.9,0.1-1.3,0.1c-0.1,0-0.3,0-0.4,0c-0.1,0-0.3,0-0.4,0c-0.6,0.1-1.1,0.1-1.5,0.2
			c-1.1,0.2-1.6,0.5-1.8,1c-0.1,0.3-0.1,0.7,0.1,1c0.2,0.3,0.6,0.5,1,0.6c0.2-0.1,0.5-0.2,0.7-0.3c-0.7,0-1.2-0.2-1.4-0.6
			C38,43,37.9,42.8,38,42.5c0.3-0.7,1.6-1,5.1-1.2c0.1,0,0.1,0,0.2,0c0.1-0.1,0.2-0.2,0.3-0.4C43.5,40.9,43.3,40.9,43.1,40.9z"/>
		<path class="st1" d="M38.7,44.7c0,0.2,0.1,0.4,0.2,0.5c0.6-0.4,1.2-0.9,1.8-1.3c-0.9,0.1-1.6,0.3-1.8,0.6
			C38.7,44.5,38.7,44.6,38.7,44.7z"/>
		<path d="M38.8,44c-0.1,0.1-0.2,0.1-0.3,0.2c-0.1,0.2-0.2,0.3-0.2,0.5c0,0,0,0,0,0.1c0,0.3,0.1,0.5,0.2,0.6
			c0.1-0.1,0.2-0.1,0.3-0.2c-0.1-0.1-0.2-0.3-0.2-0.5c0-0.1,0-0.2,0.1-0.3c0.3-0.3,0.9-0.5,1.8-0.6c0.2-0.1,0.3-0.3,0.5-0.4
			c-0.6,0-1.1,0.1-1.6,0.2C39.3,43.8,39,43.8,38.8,44z"/>
		<path class="st4" d="M24.7,22.5c0,0.2,0.1,0.4,0.2,0.5c0.2-0.1,0.5-0.2,0.8-0.3c1.8-0.4,4.9-2,5.8-3.9c0-0.1,0.2-0.1,0.2-0.1
			c0.1,0,0.1,0.2,0.1,0.2c-1,2.1-4.1,3.6-6,4.1c-0.3,0.1-0.5,0.1-0.7,0.3c0.1,0.1,0.1,0.2,0.2,0.3c0.5,0.6,1.3,1,2.3,1.1
			c0.4,0.1,0.8,0.1,1.3,0.1c5.6-0.2,6.9-7.4,5.4-8.8c-1.6-1.4-3.5-0.8-3.8,0.2c-0.2,1-0.7,1.8-3,2.4c-0.1,0-0.3,0.1-0.4,0.1
			c-0.3,0.1-0.6,0.2-0.8,0.3C25,19.9,24.5,21.2,24.7,22.5z"/>
		<path class="st2" d="M23,25.4c0,0,0.1,0,0.1-0.1c0,0,0-0.1,0.1-0.1c0,0,0,0,0,0c0,0,0-0.1,0.1-0.1c0.2-0.4,0.7-1.3,1.7-1.8
			c0.2-0.1,0.4-0.2,0.7-0.3c1.9-0.5,5-2,6-4.1c0-0.1,0-0.2-0.1-0.2c-0.1,0-0.2,0-0.2,0.1c-0.9,1.9-4,3.5-5.8,3.9
			c-0.3,0.1-0.5,0.2-0.8,0.3c-1.1,0.5-1.7,1.5-1.9,1.9c0,0.1-0.1,0.1-0.1,0.2c-0.1,0.1-0.1,0.2,0,0.3C22.9,25.4,23,25.4,23,25.4
			C23,25.4,23,25.4,23,25.4C23,25.4,23,25.4,23,25.4z"/>
		<path class="st2" d="M37.1,46.3c0.2-0.1,0.4-0.3,0.7-0.4h-0.8C37,46.1,37,46.2,37.1,46.3z"/>
		<path d="M31.5,37.1c0-0.1-0.1-0.2-0.2-0.1c-0.1,0-0.2,0.1-0.1,0.2c0,0.1,1.5,5.3,1.1,8.7c0,0.4-0.1,0.7-0.2,1h0.4
			c0.1-0.3,0.2-0.7,0.2-1C33,42.4,31.5,37.4,31.5,37.1z"/>
		<path d="M36.9,45.9c-0.1-0.2-0.1-0.4-0.1-0.6c-0.2-1.5-0.3-2.3-0.9-2.9c-0.6-0.6-1.5-1.8-1.1-2.4c0.4-0.6,0.9-0.4,0.9-0.4
			c0,0,0,0,0,0c0.1,0,0.2,0,0.2-0.1c0-0.1,0-0.2-0.1-0.2c-0.1,0-0.2-0.1-0.3-0.1c-0.3,0-0.7,0.1-1.1,0.6c-0.7,1.1,1.1,2.8,1.2,2.9
			c0.5,0.5,0.6,1.2,0.8,2.6c0,0.2,0.1,0.4,0.1,0.6c0.1,0.2,0.1,0.4,0.2,0.6c0.1-0.1,0.2-0.1,0.3-0.2C37,46.2,37,46.1,36.9,45.9z"/>
	</g>
	<g>
		<path class="st5" d="M31.2,37c-0.1,0-0.2,0.1-0.1,0.2c0,0.1,1.5,5.3,1.1,8.7c0,0.4-0.1,0.7-0.2,1h0.4c0.1-0.3,0.2-0.7,0.2-1
			c0.4-3.5-1-8.5-1.1-8.8C31.4,37,31.3,37,31.2,37z"/>
		<path class="st2" d="M29.4,42.6c-0.9-0.6-6.5-3.9-10.2-5.2c-0.5,0.9-3,5.8-6.6,8.7c0.2,0.1,0.3,0.2,0.5,0.3c0.3,0.2,0.7,0.4,1,0.5
			c3.3,1.6,7,2.5,10.9,2.5c0.1,0,0.1,0,0.2,0c1.7-1.8,3.5-5.3,4.1-6.4C29.3,42.9,29.4,42.7,29.4,42.6z"/>
		<path class="st2" d="M36.8,46.5c-0.1-0.2-0.1-0.4-0.2-0.6c-0.1-0.2-0.1-0.4-0.1-0.6c-0.2-1.4-0.2-2.1-0.8-2.6
			c-0.1-0.1-1.9-1.8-1.2-2.9c0.3-0.5,0.7-0.7,1.1-0.6l-0.5-1l-0.7,0.4c0,0-0.1,0-0.1,0c0,0,0,0-0.1,0c0,0-0.1,0-0.1-0.1l-1.8-3.5
			c0,0,0,0,0,0c-0.1,0-0.3,0.1-0.4,0.1c-1.5,2-3.2,4.2-4.1,6.3c1.2,0.7,2,1.2,2,1.2c0.1,0,0.1,0.1,0.1,0.2c0,0,0,0.1-0.1,0.3
			c0,0-2,4.4-4.1,6.6c3.7-0.1,7.2-1,10.3-2.5C36.2,46.8,36.5,46.7,36.8,46.5z M32.6,45.9c0,0.4-0.1,0.7-0.2,1H32
			c0.1-0.3,0.2-0.7,0.2-1c0.4-3.4-1.1-8.6-1.1-8.7c0-0.1,0-0.2,0.1-0.2c0.1,0,0.2,0,0.2,0.1C31.5,37.4,33,42.4,32.6,45.9z"/>
	</g>
	<path d="M29.8,42.4c0,0-0.8-0.5-2-1.2c-0.1-0.1-0.2-0.1-0.3-0.2c-1.9-1.1-4.6-2.5-6.9-3.5c-0.1-0.1-0.2-0.1-0.4-0.1
		c-0.4-0.2-0.7-0.3-1.1-0.4c-0.1,0-0.2,0-0.2,0.1c0,0.1-2.7,5.6-6.7,8.8c0.1,0.1,0.2,0.1,0.3,0.2c3.6-3,6.1-7.8,6.6-8.7
		c3.7,1.3,9.3,4.7,10.2,5.2c0,0.1-0.1,0.3-0.2,0.4c-0.5,1.1-2.3,4.7-4.1,6.4c0.2,0,0.3,0,0.4,0c2-2.2,4.1-6.6,4.1-6.6
		c0.1-0.2,0.1-0.3,0.1-0.3C29.9,42.5,29.8,42.4,29.8,42.4z"/>
</g>
</svg>
