<?xml version="1.0" encoding="utf-8"?>
<!-- Generator: Adobe Illustrator 25.3.1, SVG Export Plug-In . SVG Version: 6.00 Build 0)  -->
<svg version="1.1" id="Calque_1" xmlns="http://www.w3.org/2000/svg" xmlns:xlink="http://www.w3.org/1999/xlink" x="0px" y="0px"
	 viewBox="0 0 50 50" style="enable-background:new 0 0 50 50;" xml:space="preserve">
<style type="text/css">
	.st0{fill:#2C55A7;}
	.st1{fill:#E87A69;}
	.st2{fill:#EFD423;}
	.st3{fill:#FFFFFF;}
	.st4{fill:#FEB799;}
	.st5{fill:#00ACF2;}
</style>
<g>
	<path class="st0" d="M31.9,39.8c0.1-3.4,0.3-6.2,0.3-6.2s-4.3,1.6-6.2-3.3l-0.7,1.6c0,0,0,0.1,0,0.1c0,0,0,0,0,0.1c0,0,0,0.1,0,0.1
		c0,0.1-0.1,0.2-0.1,0.2c0,0,0,0,0,0s-0.2,0.3-0.5,0.6c0,0.1-0.1,0.2-0.2,0.3l-2.8,5c-0.4,1.2-1.3,4.9-1.5,6.1c0,0.1,0,0.2,0,0.2
		c0,0.1-0.1,0.1-0.2,0.1c0,0,0,0,0,0c-0.1,0-0.1-0.1-0.1-0.2c0-0.1,0-0.2,0.1-0.3l0.4-0.6l-0.1-1c0.7-3.2,2-6,3-8
		c-0.4,0.5-0.8,0.9-1.2,1.2c-1.7,1.4-2.3,3.2-3.9,1.7c-1.5-1.5-2.4-2.5-1.8-3.9c0.1-0.3,0.3-0.8,0.4-1.3c-1.5,0.1-3.3-0.1-5.3-1
		c-0.2-0.1-0.5-0.2-0.7-0.3v2v0.5c0,0-4,1.4-5.5-1.7L5.2,31l-0.3-0.1c-0.6-0.3-0.7-1.3,0-3.4C5.6,25.1,4,23.7,4,23.7s0,0,0,0
		c-1,0-2.3,0-3.4,0c0,0.4,0,0.9,0,1.3c0,13.5,11,24.5,24.5,24.5c2.2,0,4.3-0.3,6.3-0.8c0.3-0.1,0.7-0.2,1-0.3c0.1,0,0.2-0.1,0.3-0.1
		C32,46.3,31.8,42.8,31.9,39.8z"/>
	<g>
		<path class="st1" d="M6.5,8.9C6.5,8.9,6.5,8.9,6.5,8.9C6.5,8.9,6.5,8.9,6.5,8.9z"/>
		<path class="st2" d="M25,0.5c-7.4,0-14,3.2-18.5,8.4c0,0,0,0,0,0C6.4,9,6.4,9.1,6.3,9.2c0,0.1-0.1,0.1-0.1,0.2
			C6.1,9.4,6,9.5,6,9.5C5.9,9.6,5.8,9.7,5.7,9.8c0,0,0,0.1-0.1,0.1c-0.1,0.1-0.2,0.3-0.3,0.4c0,0,0,0,0,0c-2.8,3.8-4.6,8.4-4.8,13.4
			c1.1,0,2.4,0,3.4,0c0-0.1-0.2-1.1,2.2-1c2.8,0.1,4.1-4.4,4.1-4.4c1.4-5.6,5.9-4.7,8.1-5.8s2.6-0.5,5.5,0.4c3.2,1,1.2,3.2,1.5,3.2
			c0.3,0,1.6,0.5,1.7,1.4c0.1,1.3-1.2,2.4-1.2,2.4c0,0,0,0,0,0c0,0.1,0.1,0.3,0.1,0.4c0.7,0.4,1.1,1.2,1.1,2c0,1.3-1,2.3-2.2,2.4
			c0,0,0,0,0,0l0.1,0c0,0-1.1,5.3-0.1,6.3c0.3,0.3,0.5,0.5,0.5,0.7l0.7-1.6c0,0,2.6-5.8,3.9-7.4c1.2-1.5,2.2-2.4,5.1-1.3
			c3,1.1,4.7,3,5,3.4c0.3,0.3,0.8,1,0.5,1.5c0,0,0,0,0,0c0.1,0.1,0.1,0.2,0,0.2c-0.3,0.4-0.7,0.6-1.2,0.6c0,0,0,0,0,0
			c-0.5,0-1-0.2-1.5-0.5c0,0.3,0,0.7-0.1,1.3c0.6,0.3,0.8,0.7,0.8,0.9c0.1,0.4-0.1,0.7-0.4,1.1c-0.2,0.3-0.5,0.4-0.7,0.4
			c-0.4,0-0.7-0.2-1.2-0.5c0,0-0.1,0-0.1,0c-0.7,0.3-1.3,0.4-1.7,0.4c-0.3,0-0.6-0.1-0.8-0.2c0,0,0,0,0,0c-0.4,0.3-1.6,1.5-1.5,3.4
			c0,0-0.3,2.9-0.3,6.2c-0.1,3.1,0.1,6.5,0.7,8.5c0.8-0.3,1.6-0.6,2.4-0.9c3.1-1.4,5.9-3.4,8.1-5.9c0,0,0.1-0.1,0.1-0.1
			c0.1-0.1,0.2-0.2,0.3-0.3c0-0.1,0.1-0.1,0.1-0.2c0.1-0.1,0.1-0.1,0.2-0.2c0.1-0.2,0.3-0.3,0.4-0.5c0,0,0,0,0,0
			c3.3-4.2,5.3-9.5,5.3-15.3C49.5,11.5,38.5,0.5,25,0.5z M45.1,31.8c-1,0.9-2.2,1-2.8,0.4l-0.4-0.4c0,0,0,0,0,0c0,0,0,0,0,0l0,0l0,0
			c-0.6-0.7-0.3-1.9,0.7-2.7c1-0.9,2.2-1,2.8-0.4c0,0,0,0,0,0l0,0l0.4,0.4C46.4,29.7,46.1,30.9,45.1,31.8z"/>
		<path class="st3" d="M14.4,26.9c-0.1,0-0.2,0-0.3,0c1.5,0.5,2.8,0.9,3.5,1.1l0.5-0.5c-0.6-0.1-1.3-0.3-1.9-0.7
			c-0.1,0-0.1-0.1,0-0.2c-0.1,0-0.2-0.1-0.2-0.2c-0.1,0.1-0.3,0.2-0.5,0.3C15.1,26.9,14.8,26.9,14.4,26.9z"/>
		<path class="st3" d="M16.8,29.4c0,0-0.1,0.1-0.1,0.1c0,0-0.1,0-0.1,0c0,0,0,0,0-0.1L16,29.8l-2.5-2.4c-0.3,1-0.8,1.6-1.5,2
			c-0.2,0.1-0.4-0.2-0.6-0.2c-0.1,0.1-0.4,0.2-0.5,0.3l0.3,1.7c0.2,0.1,0.4,0.2,0.7,0.3c2,0.8,3.8,1,5.3,1c0.4-1.6,0.8-3.8,0.9-4.2
			L16.8,29.4z"/>
		<path class="st4" d="M12.8,28.2l-0.4,0.5C12.6,28.5,12.7,28.4,12.8,28.2z"/>
		<path class="st3" d="M16.5,29.2l1.1-1.2c-0.6-0.2-2-0.6-3.5-1.1c-0.2,0-0.3-0.1-0.5-0.1c-0.1,0.2-0.1,0.5-0.2,0.7l2.5,2.4l0.5-0.5
			C16.5,29.3,16.5,29.2,16.5,29.2z"/>
		<path d="M25,32C25,31.9,25.1,31.9,25,32c0.1-0.1,0.1-0.1,0.2-0.1c-0.9-0.7-1.8-1.3-2.6-1.8C23.5,30.6,24.3,31.2,25,32z"/>
		<path d="M19.5,27.5c-0.1,0-0.2,0-0.4,0c0,0,0,0,0,0c0,0.1-0.1,0.2-0.2,0.2c0,0,0,0,0,0c0,0-0.2,0-0.5,0l-0.5,0.6
			c0.4,0.2,2.2,0.5,4.7,1.9c0.8,0.5,1.7,1,2.6,1.8c0,0,0,0,0,0l0-0.1c-0.1-0.2-0.2-0.4-0.5-0.7c-0.9-1,0.1-6.3,0.1-6.3l-0.1,0
			C23.6,26.4,21.7,27.5,19.5,27.5z"/>
		<path d="M22.6,30.1L22.6,30.1c0,0-2,2.1-5.6,2.4c-0.1,0.5-0.3,1-0.4,1.3c-0.6,1.3,0.3,2.4,1.8,3.9c1.5,1.5,2.2-0.3,3.9-1.7
			c0.4-0.3,0.8-0.7,1.2-1.2c0.8-1.4,1.4-2.4,1.6-2.7C24.3,31.2,23.5,30.6,22.6,30.1z"/>
		<path d="M22.6,30.1L22.6,30.1c-2.4-1.5-4.3-1.8-4.7-2l-0.1,0.1c-0.1,0.5-0.4,2.7-0.9,4.2C20.6,32.2,22.6,30.1,22.6,30.1z"/>
		<path class="st3" d="M19.3,18.1c0.1,0.2,0.2,0.5,0.2,0.8c0.8,0.4,1.4,1.2,1.4,2.2c0,0.1,0,0.1,0,0.2c0.2-0.1,0.5-0.2,0.8-0.2
			c0.3,0,0.5,0.1,0.7,0.4c0.4-0.9,1.2-1.5,2.2-1.5c0.5,0,0.9,0.1,1.3,0.4c0-0.1,0-0.3-0.1-0.4c-1.2,0-4.7-2.4-4.7-2.4
			C20.8,17.8,20.1,18,19.3,18.1z"/>
		<path class="st3" d="M15.9,21.1c0.1,0,0.1,0.1,0.1,0.2c0,0,0-0.1,0-0.1c0-0.3,0-0.5,0.1-0.8c-0.3,0.1-0.5,0.3-0.7,0.4
			C15.6,20.8,15.7,20.9,15.9,21.1z"/>
		<path class="st4" d="M18.7,27.3l0.5-0.5L18.7,27.3C18.7,27.3,18.7,27.3,18.7,27.3z"/>
		<path class="st3" d="M24.6,24.8c-1.3,0-2.4-1.1-2.4-2.4c0-0.2,0-0.4,0.1-0.6c-0.2-0.2-0.4-0.4-0.6-0.4c-0.4-0.1-0.8,0.3-0.8,0.3
			c0,0,0,0,0,0c-0.3,1-1.2,1.8-2.4,1.8c0,0-0.1,0-0.1,0c0.3,0.3,0.4,0.7,0.2,1.1c-0.1,0.4-0.4,0.6-0.8,0.7c0,0-0.1,0-0.2,0
			c-0.5,0-1.1-0.3-1.1-0.3c0,0-0.1,0-0.1-0.1c0,0-0.1,0.1-0.1,0.1c0,0.2,0,0.3,0,0.5c0,0.1,0,0.2,0,0.3c0,0.2-0.2,0.4-0.4,0.6
			c0.1,0.1,0.2,0.1,0.2,0.2c0,0,0,0,0,0c0.1-0.1,0.2-0.1,0.2,0c0.8,0.5,1.8,0.7,2.3,0.8l0.5-0.5l-0.5,0.5c0.2,0,0.3,0,0.3,0
			c0.1,0,0.2,0.1,0.2,0.2c0.1,0,0.2,0,0.4,0c2.2,0,4.1-1,5.3-2.6c0,0,0,0,0,0C24.7,24.8,24.7,24.8,24.6,24.8z M21.7,21.6
			C21.7,21.6,21.7,21.6,21.7,21.6c0.1,0,0.2,0.1,0.2,0.2c0,0.6,0.1,1.5,0.4,1.6c0.1,0.1,0.2,0.2,0.2,0.3c0,0.2-0.1,0.4-0.3,0.6
			c-0.1,0.1-0.2,0.2-0.3,0.3c0,0.1-0.1,0.1-0.1,0.1c0,0,0,0-0.1,0c-0.1,0-0.1-0.1-0.1-0.2c0.1-0.1,0.2-0.3,0.3-0.4
			c0.1-0.1,0.2-0.3,0.2-0.3c0,0,0,0-0.1-0.1c-0.5-0.3-0.5-1.6-0.5-1.9C21.6,21.7,21.6,21.6,21.7,21.6z M23.1,25.7
			c-0.4,0.3-1,0.3-1.5,0.3c-0.1,0-0.1,0-0.2,0c-0.2,0-0.3,0-0.3,0C21,26,21,25.9,21,25.8c0-0.1,0.1-0.2,0.2-0.1c0,0,1.2,0.1,1.7-0.3
			c0.1-0.1,0.2,0,0.2,0c0,0,0,0,0,0C23.2,25.5,23.1,25.6,23.1,25.7z"/>
		<path class="st5" d="M17.6,20c-0.2,0-0.3,0-0.5,0c-0.4,0-0.7,0.1-1,0.3c-0.1,0.2-0.1,0.5-0.1,0.8c0,0,0,0.1,0,0.1
			c0.3,0.4,0.5,0.8,0.6,1.3c0.3,0.1,1,0.2,1.6,0.8c0,0,0.1,0.1,0.1,0.1c0,0,0.1,0,0.1,0c1.1,0,2.1-0.8,2.4-1.8c-0.1,0-0.1,0-0.2,0
			c-0.1-0.1-0.1-0.2,0-0.2c0,0,0.1-0.1,0.3-0.2c0-0.1,0-0.1,0-0.2c0-1-0.6-1.8-1.4-2.2c0,0,0,0,0,0C19.5,19.9,18.6,20,17.6,20z"/>
		<path class="st5" d="M24.8,24.8c1.2-0.1,2.2-1.1,2.2-2.4c0-0.9-0.4-1.6-1.1-2c0,0.3,0.1,0.6,0.1,0.9C26,22.6,25.5,23.8,24.8,24.8z
			"/>
		<path class="st5" d="M22.4,21.4c0.1,0.1,0.1,0.1,0.2,0.2c0.1,0.1,0,0.2,0,0.2c0,0-0.1,0-0.1,0c-0.1,0-0.1,0-0.1-0.1c0,0,0,0,0,0
			c-0.1,0.2-0.1,0.4-0.1,0.6c0,1.3,1.1,2.4,2.4,2.4c0.1,0,0.1,0,0.2,0c0.7-1,1.2-2.3,1.2-3.6c0-0.3,0-0.6-0.1-0.9
			c-0.4-0.2-0.8-0.4-1.3-0.4C23.6,20,22.7,20.6,22.4,21.4z"/>
		<path d="M22.2,23.4c-0.2-0.2-0.4-1.1-0.4-1.6c0-0.1-0.1-0.2-0.2-0.2c0,0,0,0,0,0c-0.1,0-0.2,0.1-0.2,0.2c0,0.3,0,1.6,0.5,1.9
			c0,0,0.1,0.1,0.1,0.1c0,0.1-0.1,0.2-0.2,0.3c-0.1,0.1-0.2,0.3-0.3,0.4c0,0.1,0,0.2,0.1,0.2c0,0,0,0,0.1,0c0.1,0,0.1,0,0.1-0.1
			c0.1-0.1,0.2-0.2,0.3-0.3c0.2-0.2,0.4-0.4,0.3-0.6C22.4,23.6,22.4,23.5,22.2,23.4z"/>
		<path d="M23.1,25.4C23.1,25.4,23.1,25.4,23.1,25.4c-0.1-0.1-0.2-0.1-0.2,0c-0.5,0.4-1.7,0.3-1.7,0.3c-0.1,0-0.2,0.1-0.2,0.1
			c0,0.1,0.1,0.2,0.1,0.2c0,0,0.1,0,0.3,0c0.1,0,0.1,0,0.2,0c0.4,0,1.1-0.1,1.5-0.3C23.1,25.6,23.2,25.5,23.1,25.4z"/>
		<path d="M20.8,21.7c0,0,0.4-0.3,0.8-0.3c0.2,0,0.4,0.2,0.6,0.4c0-0.1,0.1-0.2,0.1-0.4c-0.2-0.2-0.4-0.3-0.7-0.4
			c-0.3,0-0.6,0.1-0.8,0.2C20.9,21.4,20.8,21.6,20.8,21.7C20.8,21.7,20.8,21.7,20.8,21.7z"/>
		<path d="M20.6,21.7c0.1,0.1,0.1,0.1,0.2,0c0-0.1,0.1-0.3,0.1-0.4c-0.2,0.1-0.2,0.2-0.3,0.2C20.5,21.5,20.5,21.6,20.6,21.7z"/>
		<path d="M22.3,21.8c0,0,0.1,0.1,0.1,0.1c0,0,0.1,0,0.1,0c0.1-0.1,0.1-0.2,0-0.2c-0.1-0.1-0.1-0.1-0.2-0.2
			C22.3,21.6,22.3,21.7,22.3,21.8C22.2,21.8,22.3,21.8,22.3,21.8z"/>
		<path d="M19.2,27.5c0-0.1-0.1-0.2-0.2-0.2c0,0-0.1,0-0.3,0c0,0,0,0,0,0c-0.5-0.1-1.5-0.2-2.3-0.8c-0.1-0.1-0.2,0-0.2,0
			c0,0,0,0,0,0c0,0.1,0,0.2,0,0.2c0.6,0.4,1.3,0.6,1.9,0.7L17.6,28l-1.1,1.2c0,0-0.1,0.1,0,0.2c0,0,0,0.1,0,0.1c0,0,0.1,0,0.1,0
			c0,0,0.1,0,0.1-0.1l1.1-1.2l0.1-0.1l0.5-0.6c0.3,0,0.5,0,0.5,0c0,0,0,0,0,0C19.1,27.6,19.2,27.6,19.2,27.5
			C19.2,27.5,19.2,27.5,19.2,27.5z"/>
		<path d="M5.2,23.7c-0.2,0-0.3,0-0.5,0C4.8,23.7,5,23.7,5.2,23.7z"/>
		<path d="M27,17.6c-0.1-0.9-1.3-1.4-1.7-1.4C25,16.2,27,14,23.8,13c-2.8-0.9-3.2-1.6-5.5-0.4s-6.7,0.2-8.1,5.8c0,0-1.3,4.5-4.1,4.4
			c-2.4-0.1-2.2,0.9-2.2,1c0.2,0,0.5,0,0.7,0c0.2,0,0.3,0,0.5,0c0.1,0,0.1,0,0.2,0c0,0,0.1,0,0.1,0c1,0.1,2.1,0.3,3.1,0.7
			C8.7,24.2,8.9,24,9,23.8c1.4-1.9,2.7-3.8,4.3-5c0.1-0.1,0.2-0.1,0.3-0.2c0.1-0.1,0.2-0.1,0.3-0.2c-0.1,0-0.2,0.1-0.3,0.1
			c1.1-2.1,3.3-3.5,5.8-3.5c3.1,0,5.7,2.1,6.3,5c0,0,0,0,0,0C25.8,20,27.1,18.9,27,17.6z"/>
		<path d="M4.9,27.4c-0.7,2.1-0.5,3.1,0,3.4c0.5-1,1.1-2.2,1.7-3.2c-1.1-1.7-1.2-3.3-1.2-3.9c0,0-0.1,0-0.1,0c-0.1,0-0.1,0-0.2,0
			c-0.1,0-0.3,0-0.5,0c-0.2,0-0.4,0-0.7,0c0,0,0,0,0,0S5.6,25.1,4.9,27.4z"/>
		<path d="M5.4,23.7c-0.1,0-0.1,0-0.2,0C5.2,23.7,5.3,23.7,5.4,23.7z"/>
		<path d="M5.5,23.7c0,0.6,0.1,2.2,1.2,3.9c0.7-1.2,1.3-2.3,1.9-3.2C7.6,24,6.5,23.8,5.5,23.7z"/>
		<path d="M19.5,15c-2.5,0-4.8,1.4-5.8,3.5c0.1,0,0.2-0.1,0.3-0.1c0.8-0.5,1.7-0.8,2.7-0.9c1.2-0.1,2,0,2.5,0.4
			c0.1,0.1,0.1,0.1,0.2,0.2c0.8-0.1,1.5-0.3,1.9-0.5c0,0,3.4,2.4,4.7,2.4C25.2,17.1,22.6,15,19.5,15z"/>
		<path class="st3" d="M18,23.6c-0.1-0.1-0.1-0.1-0.2-0.2c-0.3-0.3-0.6-0.4-0.9-0.5c-0.1,0-0.1,0-0.2-0.1c0,0.1,0,0.2,0,0.4
			c0,0,0,0.1,0,0.1c0.1,0.4,0.2,0.9,0,1.4c0.3,0.1,0.7,0.3,1,0.2c0.2,0,0.5-0.2,0.5-0.5C18.4,24.2,18.3,23.9,18,23.6z"/>
		<path class="st3" d="M13.3,19.3c0,0.1,0,0.2,0,0.2c0-0.1,0.1-0.2,0.1-0.3C13.3,19.2,13.3,19.3,13.3,19.3z"/>
		<path class="st1" d="M5.2,31C5.2,31,5.2,31,5.2,31C5.2,31,5.2,31,5.2,31C5.2,31,5.2,31,5.2,31z"/>
		<path class="st1" d="M15.1,21C15.1,21,15.1,21,15.1,21C15.1,21,15.1,21,15.1,21z"/>
		<path class="st0" d="M25.2,32.2C25.3,32.3,25.3,32.3,25.2,32.2c0.1,0,0.1,0,0.1-0.2c0,0,0,0,0,0C25.3,32.1,25.3,32.2,25.2,32.2z"
			/>
		<path class="st0" d="M25.3,31.9C25.3,31.9,25.3,31.9,25.3,31.9C25.3,31.9,25.3,31.8,25.3,31.9L25.3,31.9
			C25.3,31.9,25.3,31.9,25.3,31.9z"/>
		<path class="st0" d="M24.8,32.9c0.3-0.4,0.5-0.6,0.5-0.6s0,0,0,0c0,0,0,0,0,0C25.2,32.4,25,32.6,24.8,32.9z"/>
		<path class="st3" d="M33.7,29.6c0,0.1,0.1,0.1,0.2,0.2c0.3,0.1,0.9,0.2,2-0.2C35.3,29.3,34.6,29.4,33.7,29.6z"/>
		<path class="st3" d="M37.6,27.9c0.1-0.9,0-1.3,0-1.5c-0.5-0.4-0.9-0.9-1.2-1.1c-0.1-0.1-0.3-0.3-0.4-0.4c0.4,0.6,0.7,1.4,0.7,2.4
			C37,27.5,37.3,27.7,37.6,27.9z"/>
		<path class="st3" d="M34.6,24.8c-0.5-0.5-1.3-0.3-1.3-0.3c0,0-0.1,0-0.1,0c-0.1,0.1-0.1,0.3-0.1,0.5c0,0.1,0,0.2,0,0.2
			c0,0.3,0.2,0.6,1.3,0.9c0.3,0.1,0.5,0.2,0.8,0.3C35.1,25.7,34.9,25.2,34.6,24.8z"/>
		<path class="st3" d="M33.7,30.1c-0.2-0.1-0.3-0.3-0.4-0.4c-0.2,0-0.3,0.1-0.5,0.1c-0.3,0.1-0.5,0.1-0.8,0.2
			c-1.8,0.5-3.3-0.4-3.4-0.4c-0.1,0-0.1-0.1-0.1-0.2c0-0.1,0.1-0.1,0.2-0.1c0,0,1.5,0.8,3.1,0.4c0.3-0.1,0.6-0.1,0.8-0.2
			c0.2-0.1,0.5-0.1,0.7-0.2c0,0,0,0,0,0c0,0,0,0,0,0c1-0.3,1.9-0.4,2.7,0c0.2,0.1,0.3,0.2,0.4,0.2c0.9,0.5,1.1,0.6,1.5,0.2
			c0.2-0.2,0.4-0.5,0.3-0.8c-0.1-0.3-0.3-0.5-0.8-0.7c-0.4-0.2-0.8-0.4-1.3-0.7c-0.7-0.4-1.4-0.9-2.1-1.1c-1-0.3-1.5-0.6-1.5-1.2
			c0-0.1,0-0.1,0-0.2c0-0.4-0.1-1,0.8-1.1c0.1,0,0.3,0,0.5,0c0,0,0,0,0,0c0,0,0.2,0,0.5,0.1c0.6,0.1,1.4,0.4,2,1
			c0.4,0.4,1.7,1.8,2.8,1.8c0,0,0,0,0,0c0.4,0,0.7-0.2,1-0.5c0.1-0.1,0.1-0.1,0.2,0c0.2-0.5-0.3-1.2-0.5-1.5c-0.4-0.4-2.1-2.3-5-3.4
			c-3-1.1-3.9-0.2-5.1,1.3c-1.2,1.5-3.9,7.4-3.9,7.4l6.2,3.3C32.1,31.6,33.3,30.4,33.7,30.1z"/>
		<path class="st3" d="M34.5,24.4c-0.1,0-0.1,0-0.2,0c0.1,0.1,0.3,0.1,0.4,0.2c0.5,0.4,0.7,1.1,0.7,2.1c0.3,0.1,0.5,0.3,0.8,0.5
			c0-1-0.3-1.8-0.8-2.3C35.1,24.6,34.8,24.4,34.5,24.4z"/>
		<path class="st3" d="M32.2,33.5L26,30.2C27.9,35.1,32.2,33.5,32.2,33.5z"/>
		<path class="st1" d="M34.5,24.4c-0.1,0-0.1,0-0.2,0c0,0,0,0,0,0C34.4,24.3,34.5,24.4,34.5,24.4z"/>
		<path class="st1" d="M34.1,24C34.1,24,34.1,24,34.1,24c0.1,0,0.3,0,0.5,0.1C34.3,24,34.2,24,34.1,24z"/>
		<polygon class="st1" points="33.4,29.4 33.4,29.4 33.4,29.4 		"/>
		<path class="st1" d="M36.3,29.9C36.3,29.9,36.3,29.9,36.3,29.9C36.3,29.9,36.3,29.9,36.3,29.9C36.3,29.9,36.3,29.9,36.3,29.9z"/>
		<path class="st1" d="M37.7,28.1c0.1,0,0.1,0,0.2,0c0,0,0,0,0,0c0,0,0-0.1,0-0.1c0,0,0,0-0.1,0C37.8,28.1,37.7,28.1,37.7,28.1z"/>
		<path class="st1" d="M37.9,26.6c0,0,0,0,0,0.1c0,0,0,0,0,0C37.9,26.7,37.9,26.6,37.9,26.6L37.9,26.6z"/>
		<path d="M40.6,26.4C40.6,26.4,40.6,26.4,40.6,26.4c-0.1-0.1-0.2,0-0.2,0c-0.3,0.3-0.6,0.5-1,0.5c0,0,0,0,0,0
			c-1.1,0-2.4-1.4-2.8-1.8c-0.6-0.7-1.4-0.9-2-1c-0.2,0-0.4,0-0.5,0c-0.2,0-0.4,0-0.5,0c-0.9,0.1-0.8,0.7-0.8,1.1c0,0.1,0,0.1,0,0.2
			c0,0.6,0.5,0.9,1.5,1.2c0.7,0.2,1.4,0.7,2.1,1.1c0.4,0.3,0.9,0.5,1.3,0.7c0.4,0.2,0.7,0.5,0.8,0.7c0.1,0.3-0.1,0.6-0.3,0.8
			c-0.4,0.4-0.7,0.3-1.5-0.2c-0.1-0.1-0.3-0.2-0.4-0.2c-0.8-0.4-1.7-0.3-2.7,0c0,0,0,0,0,0c-0.2,0.1-0.4,0.1-0.7,0.2
			c-0.3,0.1-0.5,0.1-0.8,0.2c-1.6,0.4-3.1-0.4-3.1-0.4c-0.1,0-0.2,0-0.2,0.1c0,0.1,0,0.2,0.1,0.2c0.1,0,1.6,0.9,3.4,0.4
			c0.3-0.1,0.6-0.1,0.8-0.2c0.2-0.1,0.4-0.1,0.5-0.1c0.1,0.1,0.2,0.3,0.4,0.4c0,0,0,0,0,0c0.2,0.1,0.5,0.2,0.8,0.2
			c0.5,0,1.1-0.1,1.7-0.4c0,0,0,0-0.1,0c0,0,0.1,0,0.1,0c0,0,0,0,0,0c0,0,0.1,0,0.1,0c0.5,0.3,0.9,0.5,1.2,0.5
			c0.2,0,0.5-0.1,0.7-0.4c0.3-0.3,0.4-0.7,0.4-1.1c-0.1-0.3-0.2-0.6-0.8-0.9c0,0,0,0.1,0,0.1c0,0,0,0,0,0c0,0-0.1,0-0.2,0
			c0.1,0,0.1,0,0.1-0.1c0,0,0,0,0.1,0c0.1-0.6,0.1-1,0.1-1.3c0,0,0,0,0,0c0-0.1,0-0.1,0-0.1l0,0c0,0,0,0.1,0,0.1
			c0.5,0.3,1,0.5,1.5,0.5c0,0,0,0,0,0c0.5,0,0.9-0.2,1.2-0.6C40.7,26.6,40.7,26.5,40.6,26.4z M33.9,29.8c-0.1-0.1-0.2-0.1-0.2-0.2
			c0.9-0.2,1.6-0.3,2.2,0C34.8,30.1,34.2,30,33.9,29.8z M34.2,24.3C34.1,24.3,34.1,24.3,34.2,24.3C34.1,24.3,34.1,24.3,34.2,24.3z
			 M34.4,26.2c-1.1-0.3-1.3-0.5-1.3-0.9c0-0.1,0-0.2,0-0.2c0-0.2,0-0.4,0.1-0.5c0,0,0.1,0,0.1,0c0,0,0.7-0.2,1.3,0.3
			c0.4,0.3,0.6,0.9,0.6,1.6C34.9,26.3,34.7,26.2,34.4,26.2z M35.5,26.6c0-1-0.2-1.6-0.7-2.1c-0.1-0.1-0.3-0.2-0.4-0.2c0,0,0,0,0,0
			c0.1,0,0.1,0,0.2,0c0.3,0.1,0.6,0.2,0.9,0.5c0.5,0.5,0.8,1.2,0.8,2.3C36,27,35.8,26.8,35.5,26.6z M37.6,27.9
			c-0.3-0.2-0.6-0.4-0.9-0.6c0-1-0.2-1.8-0.7-2.4c0.1,0.1,0.3,0.2,0.4,0.4c0.2,0.3,0.7,0.7,1.2,1.1C37.6,26.6,37.7,27,37.6,27.9z"/>
		<path class="st1" d="M43,29.4c0.7-0.7,1.6-0.9,2.3-0.7l0.1-0.1c0,0,0,0,0,0c-0.6-0.7-1.9-0.5-2.8,0.4c-0.9,0.9-1.2,2.1-0.7,2.7
			l0.1-0.2C41.9,30.9,42.3,30.1,43,29.4z"/>
		<polygon class="st1" points="41.9,31.8 41.9,31.8 41.9,31.8 		"/>
		<path class="st1" d="M44.7,31.4c-0.7,0.7-1.6,0.9-2.3,0.7l-0.1,0.1c0.6,0.7,1.9,0.5,2.8-0.4s1.2-2.1,0.6-2.8l-0.1,0.2
			C45.8,29.9,45.5,30.7,44.7,31.4z"/>
		<path class="st1" d="M42.9,30.3l-0.1,0.1c0,0,0,0-0.1,0c0,0-0.1,0-0.1,0c0,0,0-0.1,0-0.2l0.2-0.2c0,0,0,0,0,0
			c0-0.1,0.1-0.2,0.2-0.2c0,0,0.1-0.1,0.1-0.1l0.6-0.5c0,0,0,0,0-0.1c0-0.1,0-0.1,0.1-0.1c0,0,0.1,0,0.1,0L44,29c0,0,0.1,0,0.2,0
			c0,0,0,0.1,0,0.2l0,0c0,0,0.1,0,0.1,0.1l1-0.6c-0.7-0.2-1.6,0.1-2.3,0.7c-0.7,0.6-1,1.5-0.9,2.2L42.9,30.3
			C42.9,30.4,42.9,30.4,42.9,30.3z"/>
		<path class="st1" d="M42.8,31.8c0.2,0,0.8,0.1,1.7-0.6c0.6-0.4,0.7-0.7,0.7-1c0-0.1,0-0.1,0.1-0.1c0.1,0,0.1,0,0.1,0.1
			c0,0.4-0.2,0.7-0.7,1.1c-0.7,0.6-1.3,0.7-1.6,0.7c-0.2,0-0.3-0.1-0.4-0.1c0,0,0,0,0,0l-0.2,0.1c0.7,0.2,1.6,0,2.3-0.7
			c0.7-0.6,1-1.5,0.9-2.1l-0.2,0.5L42.8,31.8z"/>
		<path class="st1" d="M44,29.4C44,29.4,44,29.4,44,29.4l-0.3,0.2L44,29.4z"/>
		<path class="st1" d="M45.8,29l-0.4-0.4l0,0c0.1,0.1,0.1,0.1,0.2,0.2C45.6,28.9,45.7,29,45.8,29z"/>
		<path class="st1" d="M42.2,32c-0.1-0.1-0.2-0.1-0.2-0.2l0.4,0.4C42.3,32.1,42.2,32,42.2,32z"/>
		<path class="st1" d="M41.9,31.8L41.9,31.8C41.9,31.8,41.9,31.8,41.9,31.8L41.9,31.8z"/>
		<path class="st1" d="M45.6,28.9c0-0.1-0.1-0.2-0.2-0.2l-0.1,0.1C45.4,28.7,45.5,28.8,45.6,28.9z"/>
		<path class="st1" d="M42,31.6l-0.1,0.2c0,0,0,0,0,0l0,0c0.1,0.1,0.1,0.1,0.2,0.2C42.1,31.8,42,31.7,42,31.6z"/>
		<path class="st1" d="M45.7,29.2l0.1-0.2c-0.1-0.1-0.1-0.1-0.2-0.2C45.6,29,45.7,29.1,45.7,29.2z"/>
		<path class="st1" d="M42.2,32c0,0.1,0.1,0.2,0.2,0.2l0.1-0.1C42.3,32.1,42.2,32,42.2,32z"/>
		<path class="st1" d="M43.5,29.8c0.1,0,0.1,0,0.2,0c0,0,0.1,0,0.1,0l0.3-0.3c0,0-0.1-0.1-0.1-0.1l-0.3,0.2L43.5,29.8z"/>
		<path class="st1" d="M42.6,32c0,0,0-0.1,0-0.1c0-0.1,0.1-0.1,0.1-0.1c0,0,0,0,0.1,0l2.7-2.1l0.2-0.5c0-0.1-0.1-0.3-0.1-0.4
			c-0.1-0.1-0.2-0.1-0.3-0.1l-1,0.6c0,0,0.1,0.1,0.1,0.1l0.1-0.1c0,0,0.1,0,0.2,0c0,0,0,0.1,0,0.2l-0.1,0.1c0,0,0,0,0,0.1
			c0,0.1,0,0.2-0.1,0.3c-0.2,0.2-0.4,0.2-0.6,0.2l-0.7,0.6c0,0,0,0.1,0,0.1c0,0,0,0-0.1,0L43,30.8c0,0,0,0-0.1,0c0,0-0.1,0-0.1,0
			c0,0,0-0.1,0-0.2l0.1-0.1c0-0.1-0.1-0.1-0.1-0.2L42,31.6c0,0.1,0.1,0.3,0.1,0.4c0.1,0.1,0.2,0.1,0.3,0.1L42.6,32z"/>
		<path class="st1" d="M44.3,29.7C44.3,29.7,44.3,29.7,44.3,29.7l-0.1,0.1C44.3,29.8,44.3,29.7,44.3,29.7z"/>
		<path class="st1" d="M43.3,30L43,30.2c0,0.1,0,0.1,0.1,0.2l0.5-0.4C43.5,30,43.4,30,43.3,30z"/>
		<path class="st3" d="M42.6,32c0,0,0.1,0.1,0.4,0.1c0.3,0,0.9-0.1,1.6-0.7c0.5-0.4,0.7-0.7,0.7-1.1c0-0.1,0-0.1-0.1-0.1
			c-0.1,0-0.1,0-0.1,0.1c0,0.3-0.1,0.5-0.7,1c-0.9,0.7-1.5,0.7-1.7,0.6L42.6,32C42.6,32,42.6,32,42.6,32z"/>
		<path class="st3" d="M42.7,31.8c-0.1,0-0.1,0-0.1,0.1c0,0,0,0.1,0,0.1L42.7,31.8C42.8,31.8,42.7,31.8,42.7,31.8z"/>
		<path class="st3" d="M44,29.4C44,29.4,44,29.4,44,29.4l0.3-0.1c0,0-0.1,0-0.1-0.1L44,29.4z"/>
		<path class="st3" d="M43.9,29.1c-0.1,0-0.1,0-0.1,0.1c0,0,0,0.1,0,0.1l0.2-0.1C43.9,29.1,43.9,29.1,43.9,29.1z"/>
		<path class="st3" d="M42.9,30.3C42.9,30.4,42.9,30.4,42.9,30.3l0.1-0.1L42.9,30.3z"/>
		<path class="st3" d="M43,29.9c-0.1,0.1-0.2,0.1-0.2,0.2c0,0,0,0,0,0l0.4-0.3C43.1,29.8,43.1,29.8,43,29.9z"/>
		<path class="st3" d="M43,30.2L43,30.2l-0.2,0.2c0,0.1,0.1,0.1,0.1,0.2l0.2-0.1C43.1,30.3,43,30.3,43,30.2z"/>
		<path class="st3" d="M43.2,30.7C43.2,30.7,43.2,30.7,43.2,30.7L43.2,30.7C43.1,30.7,43.2,30.7,43.2,30.7z"/>
		<path class="st3" d="M43.5,29.8L43.3,30c0.1,0,0.2,0,0.3,0l0.2-0.2c0,0-0.1,0-0.1,0C43.6,29.8,43.6,29.8,43.5,29.8z"/>
		<path class="st3" d="M44.3,29.7c0,0-0.1,0.1-0.1,0.1L43.9,30c0.2,0,0.4,0,0.6-0.2c0.1-0.1,0.1-0.2,0.1-0.3c0,0,0,0,0-0.1
			L44.3,29.7C44.3,29.7,44.3,29.7,44.3,29.7z"/>
		<path class="st3" d="M44.2,29.5l0.2-0.1c0,0-0.1-0.1-0.1-0.1L44,29.4C44.1,29.5,44.1,29.5,44.2,29.5z"/>
		<path class="st3" d="M42.8,30.1l-0.2,0.2c0,0-0.1,0.1,0,0.2c0,0,0.1,0,0.1,0c0,0,0,0,0.1,0l0.1-0.1C42.8,30.3,42.8,30.2,42.8,30.1
			z"/>
		<path class="st3" d="M44.2,29.2c0,0,0.1-0.1,0-0.2c0,0-0.1-0.1-0.2,0L44,29.1C44,29.1,44.1,29.2,44.2,29.2L44.2,29.2z"/>
		<path class="st3" d="M43.5,29.8l0.3-0.1l0.3-0.2c-0.1,0-0.1-0.1-0.2-0.1c0,0,0,0,0,0l-0.6,0.5C43.3,29.8,43.4,29.7,43.5,29.8z"/>
		<path class="st3" d="M43,30.1C43,30.1,43,30.2,43,30.1L43,30.1C43,30.1,43,30.1,43,30.1z"/>
		<path class="st3" d="M43.2,30C43.2,30,43.1,30,43.2,30C43.1,30,43.1,30.1,43.2,30L43,30.2c0,0,0,0,0,0l0.3-0.2
			C43.2,30,43.2,30,43.2,30z"/>
		<path class="st3" d="M43.7,29.6l-0.3,0.1c0,0,0,0,0.1,0L43.7,29.6z"/>
		<path class="st3" d="M44,29.4l0.2-0.1c-0.1,0-0.1-0.1-0.2-0.1l-0.2,0.1c0,0,0,0,0,0C43.9,29.3,43.9,29.3,44,29.4z"/>
		<path class="st3" d="M43,30.2C43,30.2,43,30.1,43,30.2C43,30.1,43,30.1,43,30.2l0.2-0.2l0.3-0.2c-0.1,0-0.2,0-0.3,0l-0.4,0.3
			c0,0.1,0,0.2,0,0.3L43,30.2L43,30.2z"/>
		<path class="st3" d="M43,30.2L43,30.2L43,30.2C43,30.2,43,30.2,43,30.2z"/>
		<path class="st3" d="M43.2,30c0,0,0.1,0,0.1-0.1l0.2-0.2c0,0,0,0-0.1,0l-0.3,0.2L43.2,30C43.1,30.1,43.1,30,43.2,30
			C43.1,30,43.2,30,43.2,30z"/>
		<path class="st3" d="M43.6,30l-0.5,0.4c0,0,0,0.1,0.1,0.1c0,0,0,0.1,0,0.1l0.7-0.6C43.8,30,43.7,30,43.6,30
			C43.6,30,43.6,30,43.6,30z"/>
		<path class="st3" d="M44.2,29.8l0.1-0.1c0,0-0.1-0.1-0.1-0.2l-0.3,0.3C44,29.8,44.1,29.8,44.2,29.8z"/>
		<path class="st3" d="M43,30.7c0,0,0-0.1-0.1-0.1l-0.1,0.1c0,0-0.1,0.1,0,0.2c0,0,0.1,0,0.1,0c0,0,0,0,0.1,0L43,30.7
			C43.1,30.7,43.1,30.7,43,30.7C43.1,30.7,43,30.7,43,30.7z"/>
		<path class="st3" d="M44.5,29.5L44.5,29.5c0.1-0.1,0.1-0.2,0.1-0.2c0,0-0.1-0.1-0.2,0l-0.1,0.1C44.4,29.4,44.5,29.5,44.5,29.5z"/>
		<path class="st3" d="M44.3,29.7l0.2-0.1c0-0.1-0.1-0.1-0.1-0.2l-0.2,0.1C44.3,29.6,44.3,29.6,44.3,29.7z"/>
		<path class="st3" d="M43.8,29.8L43.6,30c0,0,0,0,0,0c0.1,0,0.2,0,0.3,0l0.3-0.3C44.1,29.8,44,29.8,43.8,29.8z"/>
		<path class="st3" d="M43.2,30.6c0,0-0.1-0.1-0.1-0.1L43,30.6c0,0,0,0.1,0.1,0.1c0,0,0.1,0.1,0.1,0.1c0,0,0,0,0,0L43.2,30.6
			C43.2,30.6,43.2,30.6,43.2,30.6z"/>
		<path d="M25.1,31.9C25.1,31.9,25,31.9,25.1,31.9c0,0.1,0,0.2,0.1,0.2l0.1-0.2c0,0,0,0,0,0C25.2,31.8,25.1,31.9,25.1,31.9z"/>
		<path d="M25.3,31.9C25.2,31.9,25.2,31.9,25.3,31.9C25.2,31.9,25.2,31.9,25.3,31.9L25.3,31.9z"/>
		<path d="M25.1,32.1c0,0-0.1-0.1-0.1-0.1c-0.2,0.3-0.8,1.2-1.6,2.7c0.5-0.5,0.9-1.1,1.2-1.6L25.1,32.1z"/>
		<path d="M25.4,32.1c0,0,0-0.1,0-0.1c0,0,0,0,0,0C25.3,32,25.4,32,25.4,32.1z"/>
		<path d="M25.3,31.9C25.3,32,25.3,32,25.3,31.9C25.3,31.9,25.3,31.9,25.3,31.9C25.3,31.9,25.3,31.9,25.3,31.9z"/>
		<path class="st3" d="M24.7,33.2c0.1-0.1,0.1-0.2,0.2-0.3c0,0-0.1,0.1-0.1,0.1L24.7,33.2z"/>
		<path d="M25.2,31.9l-0.1,0.2c0,0,0.1,0.1,0.1,0.1c0.1-0.1,0.1-0.1,0.1-0.1c0,0,0,0,0,0C25.4,32,25.3,32,25.2,31.9
			C25.3,31.9,25.3,31.9,25.2,31.9z"/>
		<path d="M25.3,31.9C25.3,31.9,25.3,31.9,25.3,31.9C25.3,31.9,25.3,31.9,25.3,31.9C25.3,31.9,25.3,31.9,25.3,31.9L25.3,31.9
			C25.3,31.9,25.3,31.9,25.3,31.9z"/>
		<path d="M24.8,32.9c0.2-0.3,0.3-0.6,0.4-0.7c0,0-0.1-0.1-0.1-0.1l-0.4,1C24.7,33,24.8,33,24.8,32.9z"/>
		<g>
			<path d="M16.7,17.8c1.1-0.1,1.9,0,2.2,0.3c0,0,0,0,0,0c0.1,0.1,0.2,0.3,0.3,0.6c0.1,0,0.1,0,0.2,0.1c0.1,0,0.1,0,0.2,0.1
				c0-0.3-0.1-0.6-0.2-0.8c-0.1-0.1-0.1-0.2-0.2-0.2c-0.4-0.4-1.2-0.5-2.5-0.4c-1,0.1-1.9,0.4-2.7,0.9c-0.1,0.1-0.2,0.1-0.3,0.2
				c-0.1,0.1-0.2,0.1-0.3,0.2c-1.6,1.2-2.9,3-4.3,5c-0.1,0.2-0.3,0.4-0.4,0.7c-0.6,0.9-1.2,2-1.9,3.2c-0.6,1.1-1.2,2.2-1.7,3.2
				c0.1,0,0.1,0.1,0.2,0.1c0,0,0,0,0,0c0,0,0,0,0,0c0.5-1,1.1-2,1.6-3c0.7-1.3,1.4-2.5,2-3.4C9,24.4,9.1,24.2,9.3,24
				c1.3-1.8,2.5-3.5,4-4.7c0,0,0.1-0.1,0.1-0.1c0.4-0.3,0.9-0.6,1.4-0.9C15.3,18,16,17.9,16.7,17.8z"/>
			<path d="M17.1,20.1c0.2,0,0.3,0,0.5,0c1-0.1,1.9-0.1,1.9-1.1c0,0,0,0,0,0c-0.1,0-0.1,0-0.2-0.1c-0.1,0-0.1,0-0.2-0.1
				c0,0.1,0,0.1,0,0.2c0,0.6-0.5,0.7-1.6,0.8c-0.2,0-0.3,0-0.5,0c-0.3,0-0.6,0.1-0.8,0.2c-0.6,0.2-1,0.5-1.1,0.7
				c-0.8-0.4-1.6-0.3-1.6-0.3c0,0,0,0,0,0c-0.1,0-0.1,0.1-0.1,0.2c0,0.1,0.1,0.2,0.2,0.1c0,0,0,0,0.1,0c0.2,0,0.9,0,1.5,0.3
				c0,0,0,0,0,0c0.2,0.1,0.3,0.2,0.5,0.3c0.4,0.3,0.6,0.8,0.7,1.4c-0.8-1.1-2.4-1.3-2.5-1.3c0,0-0.1,0-0.1,0c0,0-0.1,0.1-0.1,0.1
				c0,0,0,0.1,0,0.1c0,0,0.1,0.1,0.1,0.1c0,0,1.6,0.2,2.4,1.2c0.3,0.5,0.4,1.1,0.2,1.8c0,0,0,0.1,0,0.1c0,0,0,0.1,0.1,0.1
				c0.1,0,0.7,0.3,1.1,0.3c0.1,0,0.1,0,0.2,0c0.4-0.1,0.7-0.3,0.8-0.7c0.1-0.4,0-0.7-0.2-1.1c0,0-0.1-0.1-0.1-0.1
				c-0.6-0.6-1.3-0.8-1.6-0.8c-0.1-0.5-0.3-1-0.6-1.3c0-0.1-0.1-0.1-0.1-0.2c-0.1-0.1-0.3-0.2-0.4-0.3c0,0,0,0-0.1,0.1
				c0,0,0,0,0.1-0.1c0.1-0.1,0.3-0.3,0.6-0.4c0,0,0,0,0,0C16.4,20.2,16.7,20.1,17.1,20.1z M16.7,22.9c0.1,0,0.1,0,0.2,0.1
				c0.3,0.1,0.6,0.2,0.9,0.5c0.1,0.1,0.1,0.1,0.2,0.2c0.3,0.3,0.3,0.6,0.2,0.9c-0.1,0.2-0.3,0.4-0.5,0.5c-0.3,0-0.7-0.1-1-0.2
				c0.1-0.5,0.1-1,0-1.4c0,0,0-0.1,0-0.1C16.7,23.1,16.7,23,16.7,22.9z"/>
		</g>
		<path d="M16.3,25c0-0.3-0.2-0.7-0.4-1c-0.5-0.6-1.3-0.8-2.4-0.7c0,0,0,0,0,0c-0.1,0-0.2,0.1-0.1,0.2c0,0.1,0.1,0.2,0.2,0.1
			c0,0,0.1,0,0.1,0c1-0.1,1.6,0.1,2.1,0.6c0.3,0.3,0.4,0.8,0.4,1.1c0,0.1,0,0.2,0,0.4c0,0.2-0.2,0.3-0.3,0.5
			c-0.1,0.1-0.2,0.1-0.3,0.2c-0.5,0.2-1.2,0.2-1.7,0c-0.1,0-0.2-0.1-0.2-0.2c0-0.2,0.5-0.5,0.8-0.7c0.1,0,0.1-0.1,0.1-0.2
			c0-0.1-0.1-0.1-0.2-0.1c-0.2,0.1-1,0.5-1,0.9c0,0.1,0,0.3,0.2,0.4v0c0,0,0,0,0,0c0,0.2-0.1,0.4-0.2,0.6c-0.1,0.4-0.3,0.7-0.4,0.9
			c-0.1,0.2-0.2,0.4-0.4,0.5c-0.2,0.2-0.4,0.4-0.6,0.5c-0.1,0-0.1,0.1-0.2,0.1c-0.9,0.4-1.8,0-1.8,0c-0.1,0-0.2,0-0.2,0.1
			c0,0.1,0,0.2,0.1,0.2c0,0,0.4,0.2,1,0.2c0.1,0,0.2,0,0.3,0c0.1,0,0.2,0,0.2,0c0.2,0,0.4-0.1,0.6-0.2c0.7-0.4,1.2-1,1.5-2
			c0.1-0.2,0.1-0.4,0.2-0.7c0.2,0.1,0.3,0.1,0.5,0.1h0c0.1,0,0.2,0,0.3,0c0.3,0,0.7-0.1,1-0.2c0.2-0.1,0.3-0.2,0.5-0.3
			c0.2-0.2,0.3-0.4,0.4-0.6c0-0.1,0-0.2,0-0.3C16.3,25.4,16.3,25.2,16.3,25z"/>
		<path d="M23.5,34.7c-1,2-2.3,4.8-3,8c-0.1,0.5-0.2,1.1-0.3,1.6c0,0.1,0,0.2-0.1,0.3c0,0.1,0,0.2,0.1,0.2c0,0,0,0,0,0
			c0.1,0,0.1-0.1,0.2-0.1c0-0.1,0-0.2,0-0.2c0.2-1.3,0.5-2.5,0.9-3.6c1-3.3,2.5-6.1,3.4-7.5l0.1-0.1C24.4,33.5,23.9,34.1,23.5,34.7z
			"/>
	</g>
	<path class="st3" d="M24.5,25c-0.8,0-1.2-0.4-1.2-0.4c-0.1-0.1-0.1-0.2,0-0.2c0.1-0.1,0.2-0.1,0.2,0c0,0,0.8,0.6,2.1,0
		c0.9-0.4,1.2-1.5,1.2-1.7c0-0.1,0-0.1,0.1-0.2c0.1,0,0.2,0,0.2,0.1c0,0.1-0.3,1.5-1.4,2C25.3,24.9,24.9,25,24.5,25z M26.8,22.8
		C26.8,22.8,26.8,22.8,26.8,22.8C26.8,22.8,26.8,22.8,26.8,22.8z M26.8,22.8L26.8,22.8L26.8,22.8z"/>
</g>
</svg>
